# 3ds Max Wavefront OBJ Exporter v0.99 - (c)2007 guruware
# File Created: 12.03.2026 11:56:33

mtllib Ribbed 60mm Panel Configurator_OBJ.mtl

#
# object Mesh2
#

v  -726.8432 2811.2410 -847.2477
v  -726.8480 66.7168 -847.2477
v  -725.7327 71.7537 -852.2846
v  -725.7279 2806.2041 -852.2846
v  -728.3986 2816.2192 -842.2695
v  -728.3986 2816.2192 -882.8010
v  -730.3881 2821.1196 -887.7014
v  -730.3881 2821.1196 -837.3691
v  -726.8432 2811.2410 -877.8228
v  -728.4034 61.7386 186.9835
v  -728.4034 61.7386 227.5151
v  -730.3929 56.8382 232.4154
v  -730.3929 56.8382 182.0832
v  -726.8432 2811.2410 -784.3192
v  -726.8432 2811.2410 -814.8943
v  -728.3986 2816.2192 -819.8726
v  -728.3986 2816.2192 -779.3410
v  -726.8432 2811.2410 222.5368
v  -726.8480 66.7168 222.5368
v  -725.7327 71.7537 217.4999
v  -725.7279 2806.2041 217.4999
v  -725.7279 2806.2041 -789.3561
v  -725.7279 2806.2041 -809.8575
v  -730.3881 2821.1196 -774.4407
v  -730.3881 2821.1196 -824.7729
v  -732.8040 2825.9231 -829.5765
v  -732.8040 2825.9231 -769.6371
v  -726.8480 66.7168 -814.8943
v  -726.8480 66.7168 -784.3192
v  -728.4034 61.7386 -779.3410
v  -728.4034 61.7386 -819.8726
v  -726.8432 2811.2410 191.9617
v  -726.8480 66.7168 191.9617
v  -728.3986 2816.2192 186.9835
v  -732.8089 52.0347 -829.5765
v  -730.3929 56.8382 -824.7729
v  -724.8378 81.9257 207.1706
v  -724.8378 81.9257 207.3280
v  -725.0618 76.8299 212.4238
v  -725.0618 76.8299 202.0748
v  -730.3881 2821.1196 182.0832
v  -732.8088 52.0347 177.2796
v  -732.8040 2825.9231 177.2796
v  -732.8040 2825.9231 237.2190
v  -732.8088 52.0347 237.2190
v  -730.3881 2821.1196 232.4154
v  -728.3986 2816.2192 227.5151
v  -730.3929 56.8382 -774.4407
v  -732.8088 52.0347 -769.6371
v  -725.7327 71.7537 -789.3561
v  -725.0618 76.8299 -804.7812
v  -725.0570 2801.1279 -804.7812
v  -724.8331 2796.0322 -799.6854
v  -724.8379 81.9257 -799.6854
v  -725.0618 76.8299 -794.4322
v  -725.7327 71.7537 -809.8575
v  -724.8331 2796.0322 -799.5281
v  -725.0570 2801.1279 -794.4322
v  -725.7279 2806.2041 196.9987
v  -725.7327 71.7537 196.9987
v  -725.0570 2801.1279 212.4238
v  -724.8331 2796.0322 207.3280
v  -724.8379 81.9257 -799.5281
v  -725.0570 2801.1279 202.0748
v  -724.8331 2796.0322 207.1706
v  -728.4034 61.7386 -882.8010
v  -726.8480 66.7168 -877.8228
v  -728.4034 61.7386 -842.2695
v  -724.8378 81.9257 -170.4004
v  -724.8331 2796.0322 -170.4004
v  -724.8331 2796.0322 -170.2431
v  -724.8378 81.9257 -170.2431
v  -730.3929 56.8382 -887.7014
v  -730.3929 56.8382 -837.3691
v  -732.8089 52.0347 -832.5656
v  -732.8089 52.0347 -892.5051
v  -725.0570 2801.1279 -175.4962
v  -725.0570 2801.1279 -165.1473
v  -725.7279 2806.2041 -180.5724
v  -725.7279 2806.2041 -160.0711
v  -724.8331 2796.0322 -484.8856
v  -724.8331 2796.0322 -485.0429
v  -725.0570 2801.1279 -490.1387
v  -725.0570 2801.1279 -479.7897
v  -725.7327 71.7537 -495.2149
v  -725.7279 2806.2041 -495.2149
v  -725.0618 76.8299 -490.1387
v  -724.8378 81.9257 -485.0429
v  -724.8378 81.9257 -484.8856
v  -725.0618 76.8299 -479.7897
v  -725.7327 71.7537 -474.7136
v  -726.8480 66.7168 -500.2518
v  -726.8432 2811.2410 -500.2518
v  -726.8480 66.7168 -469.6767
v  -726.8432 2811.2410 -185.6093
v  -726.8432 2811.2410 -155.0342
v  -725.7327 71.7537 -180.5724
v  -725.7327 71.7537 -160.0711
v  -726.8480 66.7168 -155.0342
v  -726.8480 66.7168 -185.6093
v  -725.0618 76.8299 -165.1473
v  -725.7279 2806.2041 -474.7136
v  -726.8432 2811.2410 -469.6767
v  -728.3986 2816.2192 -505.2300
v  -728.3986 2816.2192 -464.6985
v  -728.3986 2816.2192 -150.0559
v  -728.3986 2816.2192 -190.5875
v  -730.3881 2821.1196 -195.4879
v  -730.3881 2821.1196 -145.1556
v  -730.3881 2821.1196 -510.1304
v  -730.3881 2821.1196 -459.7981
v  -732.8040 2825.9231 -514.9339
v  -732.8040 2825.9231 -454.9945
v  -732.8040 2825.9231 -200.2914
v  -732.8040 2825.9231 -140.3520
v  -732.8040 2825.9231 -892.5051
v  -732.8040 2825.9231 -832.5656
v  -732.8088 52.0347 -200.2914
v  -730.3929 56.8382 -195.4879
v  -728.4034 61.7386 -190.5875
v  -732.8088 52.0347 -514.9339
v  -730.3929 56.8382 -510.1304
v  -725.0618 76.8299 -175.4962
v  -728.4034 61.7386 -464.6985
v  -728.4034 61.7386 -505.2300
v  -730.3929 56.8382 -459.7981
v  -732.8088 52.0347 -454.9945
v  -726.8480 66.7168 -940.7513
v  -726.8432 2811.2410 -940.7513
v  -725.7279 2806.2041 -935.7144
v  -725.7327 71.7537 -935.7144
v  -725.7279 2806.2041 -915.2132
v  -726.8432 2811.2410 -910.1762
v  -725.0570 2801.1279 -615.9958
v  -725.0570 2801.1279 -605.6468
v  -724.8331 2796.0322 -610.7426
v  -724.8331 2796.0322 -610.8999
v  -728.4034 61.7386 -945.7296
v  -728.4034 61.7386 -905.1981
v  -730.3929 56.8382 -900.2977
v  -730.3929 56.8382 -950.6299
v  -724.8379 81.9257 -925.3852
v  -724.8379 81.9257 -925.5424
v  -724.8331 2796.0322 -925.5424
v  -724.8331 2796.0322 -925.3852
v  -725.0570 2801.1279 -930.6382
v  -725.0618 76.8299 -930.6382
v  -726.8480 66.7168 -910.1762
v  -725.0570 2801.1279 -920.2892
v  -732.8089 52.0347 -955.4335
v  -732.8040 2825.9231 -955.4335
v  -730.3881 2821.1196 -950.6299
v  -728.3986 2816.2192 -945.7296
v  -728.3986 2816.2192 -905.1981
v  -725.0618 76.8299 -920.2892
v  -725.7327 71.7537 -915.2132
v  -725.7279 2806.2041 -621.0719
v  -725.7327 71.7537 -621.0719
v  -726.8480 66.7168 -626.1088
v  -726.8432 2811.2410 -626.1088
v  -726.8432 2811.2410 -595.5337
v  -725.7279 2806.2041 -600.5706
v  -730.3881 2821.1196 -900.2977
v  -725.7327 71.7537 -600.5706
v  -725.0618 76.8299 -615.9958
v  -725.0618 76.8299 -605.6468
v  -732.8040 2825.9231 -895.4941
v  -724.8379 81.9257 -610.8999
v  -724.8379 81.9257 -610.7426
v  -726.8480 66.7168 -595.5337
v  -732.8089 52.0347 -895.4941
v  -728.4034 61.7386 -590.5555
v  -728.3986 2816.2192 -590.5555
v  -730.3881 2821.1196 -585.6552
v  -730.3929 56.8382 -585.6552
v  -732.8040 2825.9231 -640.7910
v  -732.8040 2825.9231 -580.8515
v  -730.3881 2821.1196 -635.9874
v  -732.8088 52.0347 -580.8515
v  -732.8088 52.0347 -640.7910
v  -730.3929 56.8382 -635.9874
v  -728.4034 61.7386 -631.0870
v  -728.3986 2816.2192 -631.0870
v  -725.0570 2801.1279 -857.3608
v  -725.0618 76.8299 -857.3608
v  -724.8379 81.9257 -862.4566
v  -724.8331 2796.0322 -862.4566
v  -725.7327 71.7537 -872.7859
v  -725.7279 2806.2041 -872.7859
v  -725.0570 2801.1279 -867.7098
v  -725.0618 76.8299 -867.7098
v  -724.8331 2796.0322 -862.6140
v  -724.8379 81.9257 -862.6140
v  -732.8040 2825.9231 -703.7194
v  -732.8088 52.0347 -703.7194
v  -732.8088 52.0347 -643.7800
v  -732.8040 2825.9231 -643.7800
v  -732.8040 2825.9231 -766.6479
v  -732.8088 52.0347 -766.6479
v  -732.8088 52.0347 -706.7086
v  -732.8040 2825.9231 -706.7086
v  -732.8040 2825.9231 114.3511
v  -732.8088 52.0347 114.3511
v  -732.8088 52.0347 174.2905
v  -732.8040 2825.9231 174.2905
v  -732.8040 2825.9231 51.4226
v  -732.8088 52.0347 51.4226
v  -732.8088 52.0347 111.3620
v  -732.8040 2825.9231 111.3620
v  -732.8040 2825.9231 -137.3629
v  -732.8088 52.0347 -137.3629
v  -732.8088 52.0347 -77.4235
v  -732.8040 2825.9231 -77.4235
v  -732.8088 52.0347 -140.3520
v  -732.8040 2825.9231 -326.1484
v  -732.8088 52.0347 -326.1484
v  -732.8088 52.0347 -266.2090
v  -732.8040 2825.9231 -266.2090
v  -732.8040 2825.9231 -74.4344
v  -732.8088 52.0347 -74.4344
v  -732.8088 52.0347 -14.4950
v  -732.8040 2825.9231 -14.4950
v  -732.8040 2825.9231 -452.0054
v  -732.8088 52.0347 -452.0054
v  -732.8088 52.0347 -392.0660
v  -732.8040 2825.9231 -392.0660
v  -732.8040 2825.9231 -11.5059
v  -732.8088 52.0347 -11.5059
v  -732.8088 52.0347 48.4335
v  -732.8040 2825.9231 48.4335
v  -732.8040 2825.9231 -263.2199
v  -732.8088 52.0347 -263.2199
v  -732.8088 52.0347 -203.2805
v  -732.8040 2825.9231 -203.2805
v  -732.8040 2825.9231 -389.0769
v  -732.8088 52.0347 -389.0769
v  -732.8088 52.0347 -329.1376
v  -732.8040 2825.9231 -329.1376
v  -732.8040 2825.9231 -577.8624
v  -732.8088 52.0347 -577.8624
v  -732.8088 52.0347 -517.9230
v  -732.8040 2825.9231 -517.9230
v  -728.4034 61.7386 -150.0559
v  -730.3929 56.8382 -145.1556
v  -730.3929 56.8382 -271.0126
v  -730.3881 2821.1196 -271.0126
v  -728.3986 2816.2192 -275.9130
v  -728.4034 61.7386 -275.9130
v  -726.8480 66.7168 -280.8912
v  -726.8432 2811.2410 -280.8912
v  -726.8480 66.7168 -311.4662
v  -728.4034 61.7386 -316.4445
v  -726.8432 2811.2410 -311.4662
v  -728.3986 2816.2192 -316.4445
v  -730.3929 56.8382 -321.3448
v  -725.7279 2806.2041 -117.6439
v  -725.7279 2806.2041 -97.1426
v  -725.0570 2801.1279 -102.2187
v  -725.0570 2801.1279 -112.5677
v  -724.8379 81.9257 -736.7569
v  -724.8331 2796.0322 -736.7569
v  -724.8331 2796.0322 -736.5996
v  -724.8379 81.9257 -736.5996
v  -725.0570 2801.1279 -741.8527
v  -725.0570 2801.1279 -731.5038
v  -725.7279 2806.2041 -746.9289
v  -725.7279 2806.2041 -726.4276
v  -724.8331 2796.0322 -107.3146
v  -724.8331 2796.0322 -107.4719
v  -730.3881 2821.1196 -321.3448
v  -724.8378 81.9257 -107.4719
v  -724.8378 81.9257 -107.3146
v  -725.0618 76.8299 -102.2187
v  -725.0618 76.8299 -112.5677
v  -725.7327 71.7537 -97.1426
v  -725.7327 71.7537 -117.6439
v  -726.8480 66.7168 -92.1057
v  -726.8480 66.7168 -122.6808
v  -726.8432 2811.2410 -92.1057
v  -725.0570 2801.1279 -291.0042
v  -725.0618 76.8299 -291.0042
v  -724.8378 81.9257 -296.1001
v  -724.8331 2796.0322 -296.1001
v  -726.8432 2811.2410 -122.6808
v  -728.4034 61.7386 -127.6590
v  -728.3986 2816.2192 -127.6590
v  -726.8432 2811.2410 -751.9658
v  -726.8432 2811.2410 -721.3907
v  -725.0618 76.8299 -731.5038
v  -725.0618 76.8299 -741.8527
v  -726.8480 66.7168 -721.3907
v  -725.7327 71.7537 -726.4276
v  -725.7327 71.7537 -746.9289
v  -726.8480 66.7168 -751.9658
v  -728.3986 2816.2192 -716.4125
v  -728.4034 61.7386 -716.4125
v  -725.0570 2801.1279 -678.9242
v  -725.0618 76.8299 -678.9242
v  -725.7327 71.7537 -684.0004
v  -725.7279 2806.2041 -684.0004
v  -725.7327 71.7537 -663.4991
v  -725.0618 76.8299 -668.5753
v  -728.3986 2816.2192 -756.9441
v  -730.3881 2821.1196 -132.5594
v  -730.3929 56.8382 -132.5594
v  -728.3986 2816.2192 -87.1274
v  -730.3929 56.8382 -761.8444
v  -730.3881 2821.1196 -761.8444
v  -728.4034 61.7386 -756.9441
v  -726.8480 66.7168 -689.0373
v  -726.8432 2811.2410 -689.0373
v  -728.4034 61.7386 -87.1274
v  -730.3929 56.8382 -82.2271
v  -730.3881 2821.1196 -711.5121
v  -725.0570 2801.1279 -668.5753
v  -724.8331 2796.0322 -673.6711
v  -724.8331 2796.0322 -673.8284
v  -730.3929 56.8382 -711.5121
v  -724.8379 81.9257 -673.8284
v  -724.8379 81.9257 -673.6711
v  -730.3881 2821.1196 -82.2271
v  -728.3986 2816.2192 -694.0156
v  -728.4034 61.7386 -694.0156
v  -730.3929 56.8382 -698.9159
v  -730.3881 2821.1196 -698.9159
v  -725.7279 2806.2041 -663.4991
v  -726.8432 2811.2410 -658.4622
v  -726.8480 66.7168 -658.4622
v  -730.3881 2821.1196 -648.5836
v  -728.3986 2816.2192 -653.4840
v  -728.4034 61.7386 -653.4840
v  -730.3929 56.8382 -648.5836
v  -732.8088 44.0637 238.7135
v  -732.8040 2833.8940 238.7135
v  -732.8089 44.0637 -956.9280
v  -732.8040 2833.8940 -956.9280
v  -725.7327 71.7537 -243.5009
v  -725.7327 71.7537 -222.9996
v  -726.8480 66.7168 -217.9627
v  -726.8480 66.7168 -248.5378
v  -726.8432 2811.2410 -248.5378
v  -726.8432 2811.2410 -217.9627
v  -725.7279 2806.2041 -222.9996
v  -725.7279 2806.2041 -243.5009
v  -725.0618 76.8299 -228.0758
v  -725.0570 2801.1279 -228.0758
v  -728.4034 61.7386 -212.9845
v  -728.4034 61.7386 -253.5160
v  -730.3929 56.8382 -258.4164
v  -730.3929 56.8382 -208.0841
v  -730.3881 2821.1196 -208.0841
v  -730.3881 2821.1196 -258.4164
v  -724.8331 2796.0322 -233.3289
v  -724.8378 81.9257 -233.3289
v  -725.0618 76.8299 -238.4247
v  -725.0570 2801.1279 -238.4247
v  -724.8378 81.9257 -233.1716
v  -724.8331 2796.0322 -233.1716
v  -728.3986 2816.2192 -253.5160
v  -728.3986 2816.2192 -212.9845
v  -726.8432 2811.2410 -532.6052
v  -726.8432 2811.2410 -563.1803
v  -728.3986 2816.2192 -568.1586
v  -728.3986 2816.2192 -527.6270
v  -730.3881 2821.1196 -573.0589
v  -730.3881 2821.1196 -522.7266
v  -730.3929 56.8382 -573.0589
v  -728.4034 61.7386 -568.1586
v  -724.8331 2796.0322 -359.0286
v  -724.8331 2796.0322 -359.1859
v  -725.0570 2801.1279 -364.2817
v  -725.0570 2801.1279 -353.9327
v  -725.7279 2806.2041 -369.3579
v  -725.7279 2806.2041 -348.8566
v  -725.0618 76.8299 -364.2817
v  -724.8378 81.9257 -359.1859
v  -725.0618 76.8299 -353.9327
v  -725.7327 71.7537 -348.8566
v  -725.7327 71.7537 -369.3579
v  -726.8432 2811.2410 -343.8197
v  -726.8480 66.7168 -343.8197
v  -726.8480 66.7168 -563.1803
v  -726.8480 66.7168 -532.6052
v  -728.4034 61.7386 -527.6270
v  -726.8432 2811.2410 -374.3948
v  -724.8378 81.9257 -359.0286
v  -726.8480 66.7168 -374.3948
v  -730.3929 56.8382 -522.7266
v  -728.3986 2816.2192 -338.8414
v  -728.3986 2816.2192 -379.3730
v  -730.3881 2821.1196 -384.2734
v  -730.3881 2821.1196 -333.9411
v  -730.3929 56.8382 -384.2734
v  -728.4034 61.7386 -379.3730
v  -725.0570 2801.1279 -542.7183
v  -725.0618 76.8299 -542.7183
v  -724.8379 81.9257 -547.8141
v  -724.8331 2796.0322 -547.8141
v  -725.7279 2806.2041 -537.6421
v  -725.7327 71.7537 -537.6421
v  -724.8378 81.9257 -296.2574
v  -724.8331 2796.0322 -296.2574
v  -725.0618 76.8299 -301.3532
v  -725.0570 2801.1279 -301.3532
v  -730.3929 56.8382 -333.9411
v  -728.4034 61.7386 -338.8414
v  -726.8432 2811.2410 -437.3233
v  -726.8432 2811.2410 -406.7482
v  -725.7279 2806.2041 -411.7851
v  -725.7279 2806.2041 -432.2864
v  -725.7327 71.7537 -432.2864
v  -726.8480 66.7168 -437.3233
v  -725.7327 71.7537 -306.4294
v  -725.7279 2806.2041 -306.4294
v  -725.7279 2806.2041 -285.9280
v  -724.8378 81.9257 -422.1144
v  -724.8331 2796.0322 -422.1144
v  -724.8331 2796.0322 -421.9570
v  -724.8378 81.9257 -421.9570
v  -725.7327 71.7537 -411.7851
v  -726.8480 66.7168 -406.7482
v  -725.0570 2801.1279 -427.2103
v  -725.0570 2801.1279 -416.8613
v  -725.0618 76.8299 -427.2103
v  -725.0618 76.8299 -416.8613
v  -728.4034 61.7386 -442.3015
v  -728.3986 2816.2192 -442.3015
v  -730.3929 56.8382 -447.2019
v  -730.3881 2821.1196 -447.2019
v  -728.3986 2816.2192 -401.7700
v  -728.4034 61.7386 -401.7700
v  -730.3929 56.8382 -396.8696
v  -730.3881 2821.1196 -396.8696
v  -725.7327 71.7537 -285.9280
v  -724.8331 2796.0322 -547.9714
v  -725.0570 2801.1279 -553.0673
v  -725.7279 2806.2041 -558.1434
v  -725.7327 71.7537 -558.1434
v  -725.0618 76.8299 -553.0673
v  -724.8379 81.9257 -547.9714
v  -728.4034 61.7386 124.0550
v  -728.4034 61.7386 164.5866
v  -730.3929 56.8382 169.4869
v  -730.3929 56.8382 119.1546
v  -726.8480 66.7168 159.6084
v  -726.8432 2811.2410 159.6084
v  -728.3986 2816.2192 164.5866
v  -730.3881 2821.1196 169.4869
v  -724.8378 81.9257 81.3136
v  -724.8331 2796.0322 81.3136
v  -724.8331 2796.0322 81.4709
v  -724.8378 81.9257 81.4709
v  -725.0570 2801.1279 76.2178
v  -725.0570 2801.1279 86.5668
v  -725.7279 2806.2041 71.1416
v  -725.7279 2806.2041 91.6429
v  -726.8432 2811.2410 66.1047
v  -726.8432 2811.2410 96.6798
v  -726.8480 66.7168 66.1047
v  -725.7327 71.7537 71.1416
v  -725.0618 76.8299 76.2178
v  -725.0570 2801.1279 -39.2902
v  -725.0570 2801.1279 -49.6392
v  -725.7279 2806.2041 -54.7154
v  -725.7279 2806.2041 -34.2141
v  -725.0618 76.8299 86.5668
v  -725.7327 71.7537 91.6429
v  -726.8480 66.7168 96.6798
v  -726.8432 2811.2410 -59.7523
v  -726.8432 2811.2410 -29.1772
v  -726.8480 66.7168 -59.7523
v  -725.7327 71.7537 -54.7154
v  -724.8378 81.9257 -44.5434
v  -724.8331 2796.0322 -44.5434
v  -724.8331 2796.0322 -44.3861
v  -724.8378 81.9257 -44.3861
v  -725.0618 76.8299 -49.6392
v  -725.7327 71.7537 -34.2141
v  -726.8480 66.7168 -29.1772
v  -728.4034 61.7386 -64.7305
v  -728.4034 61.7386 -24.1989
v  -730.3929 56.8382 -19.2986
v  -730.3929 56.8382 -69.6309
v  -728.3986 2816.2192 61.1265
v  -728.3986 2816.2192 101.6581
v  -730.3881 2821.1196 -19.2986
v  -728.4034 61.7386 61.1265
v  -728.4034 61.7386 101.6581
v  -730.3929 56.8382 106.5584
v  -730.3929 56.8382 56.2261
v  -725.0618 76.8299 -39.2902
v  -728.3986 2816.2192 -64.7305
v  -728.3986 2816.2192 -24.1989
v  -730.3881 2821.1196 56.2261
v  -730.3881 2821.1196 106.5584
v  -730.3881 2821.1196 -69.6309
v  -725.0618 76.8299 13.2893
v  -725.0618 76.8299 23.6383
v  -725.7327 71.7537 28.7144
v  -725.7327 71.7537 8.2131
v  -730.3881 2821.1196 -6.7024
v  -730.3929 56.8382 -6.7024
v  -726.8432 2811.2410 33.7513
v  -726.8432 2811.2410 3.1762
v  -728.3986 2816.2192 -1.8020
v  -728.3986 2816.2192 38.7296
v  -730.3929 56.8382 43.6299
v  -725.0570 2801.1279 139.1463
v  -725.0570 2801.1279 149.4953
v  -724.8331 2796.0322 144.3994
v  -724.8331 2796.0322 144.2421
v  -725.7327 71.7537 134.0702
v  -725.7327 71.7537 154.5714
v  -726.8480 66.7168 129.0332
v  -730.3881 2821.1196 43.6299
v  -726.8480 66.7168 33.7513
v  -725.7279 2806.2041 28.7144
v  -724.8331 2796.0322 18.5424
v  -724.8331 2796.0322 18.3851
v  -725.0570 2801.1279 13.2893
v  -725.0570 2801.1279 23.6383
v  -726.8480 66.7168 3.1762
v  -728.4034 61.7386 38.7296
v  -728.4034 61.7386 -1.8020
v  -725.0618 76.8299 139.1463
v  -725.7279 2806.2041 134.0702
v  -725.7279 2806.2041 8.2131
v  -724.8378 81.9257 18.3851
v  -724.8378 81.9257 18.5424
v  -724.8378 81.9257 144.2421
v  -724.8378 81.9257 144.3994
v  -726.8432 2811.2410 129.0332
v  -725.7279 2806.2041 154.5714
v  -725.0618 76.8299 149.4953
v  -728.3986 2816.2192 124.0550
v  -730.3881 2821.1196 119.1546
v  -736.7943 44.0637 238.7135
v  -736.7894 2833.8940 238.7135
v  -736.7895 2833.8940 -956.9280
v  -736.7944 44.0637 -956.9280
# 540 vertices

vn -0.1309 -0.1309 -0.9827
vn -0.1309 0.1309 -0.9827
vn -0.0875 0.0875 -0.9923
vn -0.0875 -0.0875 -0.9923
vn -0.1738 -0.1738 -0.9693
vn 0.1738 -0.1738 -0.9693
vn 0.2160 -0.2160 -0.9522
vn -0.2160 -0.2160 -0.9522
vn 0.1309 -0.1309 -0.9827
vn 0.1738 0.1738 -0.9693
vn -0.1738 0.1738 -0.9693
vn -0.2160 0.2160 -0.9522
vn 0.2160 0.2160 -0.9522
vn 0.0875 -0.0875 -0.9923
vn 0.2369 -0.2369 -0.9422
vn -0.2369 -0.2369 -0.9422
vn 0.1309 0.1309 -0.9827
vn 0.2369 0.2369 -0.9422
vn 0.0146 0.0146 -0.9998
vn -0.0146 0.0146 -0.9998
vn -0.0439 0.0439 -0.9981
vn 0.0439 0.0439 -0.9981
vn -0.2369 0.2369 -0.9422
vn 0.0439 -0.0439 -0.9981
vn 0.0146 -0.0146 -0.9998
vn 0.0875 0.0875 -0.9923
vn -0.0146 -0.0146 -0.9998
vn -0.0439 -0.0439 -0.9981
vn 0.0000 0.0000 1.0000
vn 0.0000 0.0000 -1.0000
vn 0.0000 -0.0000 1.0000
vn 1.0000 0.0000 -0.0000
vn -1.0000 0.0000 -0.0000
vn 0.0000 1.0000 0.0000
vn 0.0000 -1.0000 -0.0000
# 35 vertex normals

vt 0.9083 0.9919 0.0000
vt 0.9083 0.0081 0.0000
vt 0.9125 0.0099 0.0000
vt 0.9125 0.9901 0.0000
vt 0.9041 0.9937 0.0000
vt 0.9380 0.9937 0.0000
vt 0.9421 0.9954 0.0000
vt 0.9000 0.9954 0.0000
vt 0.9338 0.9919 0.0000
vt 0.0433 0.0063 0.0000
vt 0.0094 0.0063 0.0000
vt 0.0053 0.0046 0.0000
vt 0.0474 0.0046 0.0000
vt 0.8556 0.9919 0.0000
vt 0.8812 0.9919 0.0000
vt 0.8854 0.9937 0.0000
vt 0.8515 0.9937 0.0000
vt 0.0135 0.9919 0.0000
vt 0.0135 0.0081 0.0000
vt 0.0177 0.0099 0.0000
vt 0.0177 0.9901 0.0000
vt 0.8598 0.9901 0.0000
vt 0.8770 0.9901 0.0000
vt 0.8474 0.9954 0.0000
vt 0.8895 0.9954 0.0000
vt 0.8935 0.9971 0.0000
vt 0.8434 0.9971 0.0000
vt 0.8812 0.0081 0.0000
vt 0.8556 0.0081 0.0000
vt 0.8515 0.0063 0.0000
vt 0.8854 0.0063 0.0000
vt 0.0391 0.9919 0.0000
vt 0.0391 0.0081 0.0000
vt 0.0433 0.9937 0.0000
vt 0.8935 0.0029 0.0000
vt 0.8895 0.0046 0.0000
vt 0.0264 0.0136 0.0000
vt 0.0262 0.0136 0.0000
vt 0.0220 0.0117 0.0000
vt 0.0306 0.0117 0.0000
vt 0.0474 0.9954 0.0000
vt 0.0514 0.0029 0.0000
vt 0.0514 0.9971 0.0000
vt 0.0013 0.9971 0.0000
vt 0.0012 0.0029 0.0000
vt 0.0053 0.9954 0.0000
vt 0.0094 0.9937 0.0000
vt 0.8474 0.0046 0.0000
vt 0.8434 0.0029 0.0000
vt 0.8598 0.0099 0.0000
vt 0.8727 0.0117 0.0000
vt 0.8727 0.9883 0.0000
vt 0.8685 0.9864 0.0000
vt 0.8685 0.0136 0.0000
vt 0.8641 0.0117 0.0000
vt 0.8770 0.0099 0.0000
vt 0.8684 0.9864 0.0000
vt 0.8641 0.9883 0.0000
vt 0.0349 0.9901 0.0000
vt 0.0349 0.0099 0.0000
vt 0.0220 0.9883 0.0000
vt 0.0263 0.9864 0.0000
vt 0.8684 0.0136 0.0000
vt 0.0306 0.9883 0.0000
vt 0.0264 0.9864 0.0000
vt 0.9380 0.0063 0.0000
vt 0.9338 0.0081 0.0000
vt 0.9041 0.0063 0.0000
vt 0.3422 0.0136 0.0000
vt 0.3422 0.9864 0.0000
vt 0.3420 0.9864 0.0000
vt 0.3420 0.0136 0.0000
vt 0.9421 0.0046 0.0000
vt 0.9000 0.0046 0.0000
vt 0.8960 0.0029 0.0000
vt 0.9461 0.0029 0.0000
vt 0.3464 0.9883 0.0000
vt 0.3378 0.9883 0.0000
vt 0.3507 0.9901 0.0000
vt 0.3335 0.9901 0.0000
vt 0.6052 0.9864 0.0000
vt 0.6053 0.9864 0.0000
vt 0.6096 0.9883 0.0000
vt 0.6009 0.9883 0.0000
vt 0.6138 0.0099 0.0000
vt 0.6138 0.9901 0.0000
vt 0.6096 0.0117 0.0000
vt 0.6053 0.0136 0.0000
vt 0.6052 0.0136 0.0000
vt 0.6009 0.0117 0.0000
vt 0.5967 0.0099 0.0000
vt 0.6180 0.0081 0.0000
vt 0.6180 0.9919 0.0000
vt 0.5925 0.0081 0.0000
vt 0.3549 0.9919 0.0000
vt 0.3293 0.9919 0.0000
vt 0.3507 0.0099 0.0000
vt 0.3335 0.0099 0.0000
vt 0.3293 0.0081 0.0000
vt 0.3549 0.0081 0.0000
vt 0.3378 0.0117 0.0000
vt 0.5967 0.9901 0.0000
vt 0.5925 0.9919 0.0000
vt 0.6222 0.9937 0.0000
vt 0.5883 0.9937 0.0000
vt 0.3252 0.9937 0.0000
vt 0.3591 0.9937 0.0000
vt 0.3632 0.9954 0.0000
vt 0.3211 0.9954 0.0000
vt 0.6263 0.9954 0.0000
vt 0.5842 0.9954 0.0000
vt 0.6303 0.9971 0.0000
vt 0.5802 0.9971 0.0000
vt 0.3672 0.9971 0.0000
vt 0.3170 0.9971 0.0000
vt 0.9461 0.9971 0.0000
vt 0.8960 0.9971 0.0000
vt 0.3672 0.0029 0.0000
vt 0.3632 0.0046 0.0000
vt 0.3591 0.0063 0.0000
vt 0.6303 0.0029 0.0000
vt 0.6263 0.0046 0.0000
vt 0.3464 0.0117 0.0000
vt 0.5883 0.0063 0.0000
vt 0.6222 0.0063 0.0000
vt 0.5842 0.0046 0.0000
vt 0.5802 0.0029 0.0000
vt 0.9865 0.0081 0.0000
vt 0.9865 0.9919 0.0000
vt 0.9823 0.9901 0.0000
vt 0.9823 0.0099 0.0000
vt 0.9651 0.9901 0.0000
vt 0.9609 0.9919 0.0000
vt 0.7149 0.9883 0.0000
vt 0.7062 0.9883 0.0000
vt 0.7105 0.9864 0.0000
vt 0.7106 0.9864 0.0000
vt 0.9906 0.0063 0.0000
vt 0.9567 0.0063 0.0000
vt 0.9526 0.0046 0.0000
vt 0.9947 0.0046 0.0000
vt 0.9736 0.0136 0.0000
vt 0.9737 0.0136 0.0000
vt 0.9738 0.9864 0.0000
vt 0.9736 0.9864 0.0000
vt 0.9780 0.9883 0.0000
vt 0.9780 0.0117 0.0000
vt 0.9609 0.0081 0.0000
vt 0.9694 0.9883 0.0000
vt 0.9987 0.0029 0.0000
vt 0.9988 0.9971 0.0000
vt 0.9947 0.9954 0.0000
vt 0.9906 0.9937 0.0000
vt 0.9567 0.9937 0.0000
vt 0.9694 0.0117 0.0000
vt 0.9651 0.0099 0.0000
vt 0.7191 0.9901 0.0000
vt 0.7191 0.0099 0.0000
vt 0.7233 0.0081 0.0000
vt 0.7233 0.9919 0.0000
vt 0.6977 0.9919 0.0000
vt 0.7020 0.9901 0.0000
vt 0.9526 0.9954 0.0000
vt 0.7020 0.0099 0.0000
vt 0.7149 0.0117 0.0000
vt 0.7062 0.0117 0.0000
vt 0.9486 0.9971 0.0000
vt 0.7106 0.0136 0.0000
vt 0.7105 0.0136 0.0000
vt 0.6977 0.0081 0.0000
vt 0.9486 0.0029 0.0000
vt 0.6936 0.0063 0.0000
vt 0.6936 0.9937 0.0000
vt 0.6895 0.9954 0.0000
vt 0.6895 0.0046 0.0000
vt 0.7356 0.9971 0.0000
vt 0.6855 0.9971 0.0000
vt 0.7316 0.9954 0.0000
vt 0.6855 0.0029 0.0000
vt 0.7356 0.0029 0.0000
vt 0.7316 0.0046 0.0000
vt 0.7275 0.0063 0.0000
vt 0.7275 0.9937 0.0000
vt 0.9167 0.9883 0.0000
vt 0.9167 0.0117 0.0000
vt 0.9210 0.0136 0.0000
vt 0.9210 0.9864 0.0000
vt 0.9296 0.0099 0.0000
vt 0.9296 0.9901 0.0000
vt 0.9254 0.9883 0.0000
vt 0.9254 0.0117 0.0000
vt 0.9211 0.9864 0.0000
vt 0.9211 0.0136 0.0000
vt 0.2118 0.9971 0.0000
vt 0.2118 0.0029 0.0000
vt 0.2619 0.0029 0.0000
vt 0.2619 0.9971 0.0000
vt 0.1591 0.9971 0.0000
vt 0.1591 0.0029 0.0000
vt 0.2093 0.0029 0.0000
vt 0.2093 0.9971 0.0000
vt 0.0013 0.0029 0.0000
vt 0.0012 0.9971 0.0000
vt 0.9988 0.0029 0.0000
vt 0.9987 0.9971 0.0000
vt 0.6328 0.9971 0.0000
vt 0.6328 0.0029 0.0000
vt 0.6830 0.0029 0.0000
vt 0.6830 0.9971 0.0000
vt 0.5276 0.9971 0.0000
vt 0.5276 0.0029 0.0000
vt 0.5777 0.0029 0.0000
vt 0.5777 0.9971 0.0000
vt 0.7381 0.9971 0.0000
vt 0.7381 0.0029 0.0000
vt 0.7882 0.0029 0.0000
vt 0.7882 0.9971 0.0000
vt 0.4223 0.9971 0.0000
vt 0.4223 0.0029 0.0000
vt 0.4724 0.0029 0.0000
vt 0.4724 0.9971 0.0000
vt 0.7907 0.9971 0.0000
vt 0.7907 0.0029 0.0000
vt 0.8409 0.0029 0.0000
vt 0.8409 0.9971 0.0000
vt 0.3697 0.9971 0.0000
vt 0.3697 0.0029 0.0000
vt 0.4198 0.0029 0.0000
vt 0.4198 0.9971 0.0000
vt 0.2644 0.9971 0.0000
vt 0.2644 0.0029 0.0000
vt 0.3145 0.0029 0.0000
vt 0.3145 0.9971 0.0000
vt 0.4749 0.9971 0.0000
vt 0.4749 0.0029 0.0000
vt 0.5251 0.0029 0.0000
vt 0.5251 0.9971 0.0000
vt 0.3170 0.0029 0.0000
vt 0.3252 0.0063 0.0000
vt 0.3211 0.0046 0.0000
vt 0.4263 0.0046 0.0000
vt 0.4263 0.9954 0.0000
vt 0.4304 0.9937 0.0000
vt 0.4304 0.0063 0.0000
vt 0.4346 0.0081 0.0000
vt 0.4346 0.9919 0.0000
vt 0.4602 0.0081 0.0000
vt 0.4643 0.0063 0.0000
vt 0.4602 0.9919 0.0000
vt 0.4643 0.9937 0.0000
vt 0.4684 0.0046 0.0000
vt 0.2980 0.9901 0.0000
vt 0.2809 0.9901 0.0000
vt 0.2851 0.9883 0.0000
vt 0.2938 0.9883 0.0000
vt 0.8159 0.0136 0.0000
vt 0.8159 0.9864 0.0000
vt 0.8157 0.9864 0.0000
vt 0.8157 0.0136 0.0000
vt 0.8201 0.9883 0.0000
vt 0.8115 0.9883 0.0000
vt 0.8244 0.9901 0.0000
vt 0.8072 0.9901 0.0000
vt 0.2894 0.9864 0.0000
vt 0.2895 0.9864 0.0000
vt 0.4684 0.9954 0.0000
vt 0.2895 0.0136 0.0000
vt 0.2894 0.0136 0.0000
vt 0.2851 0.0117 0.0000
vt 0.2938 0.0117 0.0000
vt 0.2809 0.0099 0.0000
vt 0.2980 0.0099 0.0000
vt 0.2767 0.0081 0.0000
vt 0.3023 0.0081 0.0000
vt 0.2767 0.9919 0.0000
vt 0.4430 0.9883 0.0000
vt 0.4430 0.0117 0.0000
vt 0.4473 0.0136 0.0000
vt 0.4473 0.9864 0.0000
vt 0.3023 0.9919 0.0000
vt 0.3064 0.0063 0.0000
vt 0.3064 0.9937 0.0000
vt 0.8286 0.9919 0.0000
vt 0.8030 0.9919 0.0000
vt 0.8115 0.0117 0.0000
vt 0.8201 0.0117 0.0000
vt 0.8030 0.0081 0.0000
vt 0.8072 0.0099 0.0000
vt 0.8244 0.0099 0.0000
vt 0.8286 0.0081 0.0000
vt 0.7988 0.9937 0.0000
vt 0.7988 0.0063 0.0000
vt 0.7675 0.9883 0.0000
vt 0.7675 0.0117 0.0000
vt 0.7717 0.0099 0.0000
vt 0.7717 0.9901 0.0000
vt 0.7546 0.0099 0.0000
vt 0.7588 0.0117 0.0000
vt 0.8327 0.9937 0.0000
vt 0.3105 0.9954 0.0000
vt 0.3105 0.0046 0.0000
vt 0.2725 0.9937 0.0000
vt 0.8368 0.0046 0.0000
vt 0.8368 0.9954 0.0000
vt 0.8327 0.0063 0.0000
vt 0.7759 0.0081 0.0000
vt 0.7759 0.9919 0.0000
vt 0.2725 0.0063 0.0000
vt 0.2684 0.0046 0.0000
vt 0.7947 0.9954 0.0000
vt 0.7588 0.9883 0.0000
vt 0.7631 0.9864 0.0000
vt 0.7632 0.9864 0.0000
vt 0.7947 0.0046 0.0000
vt 0.7632 0.0136 0.0000
vt 0.7631 0.0136 0.0000
vt 0.2684 0.9954 0.0000
vt 0.7801 0.9937 0.0000
vt 0.7801 0.0063 0.0000
vt 0.7842 0.0046 0.0000
vt 0.7842 0.9954 0.0000
vt 0.7546 0.9901 0.0000
vt 0.7504 0.9919 0.0000
vt 0.7504 0.0081 0.0000
vt 0.7421 0.9954 0.0000
vt 0.7462 0.9937 0.0000
vt 0.7462 0.0063 0.0000
vt 0.7421 0.0046 0.0000
vt -0.0000 0.0000 0.0000
vt 0.0000 1.0000 0.0000
vt 1.0000 0.0000 0.0000
vt 0.0539 0.0029 0.0000
vt 0.1040 0.0029 0.0000
vt 0.1065 0.0029 0.0000
vt 0.1040 0.9971 0.0000
vt 0.1566 0.0029 0.0000
vt 0.1566 0.9971 0.0000
vt 1.0000 1.0000 0.0000
vt 0.0539 0.9971 0.0000
vt 0.1065 0.9971 0.0000
vt 0.4033 0.0099 0.0000
vt 0.3862 0.0099 0.0000
vt 0.3820 0.0081 0.0000
vt 0.4075 0.0081 0.0000
vt 0.4075 0.9919 0.0000
vt 0.3820 0.9919 0.0000
vt 0.3862 0.9901 0.0000
vt 0.4033 0.9901 0.0000
vt 0.3904 0.0117 0.0000
vt 0.3904 0.9883 0.0000
vt 0.3778 0.0063 0.0000
vt 0.4117 0.0063 0.0000
vt 0.4158 0.0046 0.0000
vt 0.3737 0.0046 0.0000
vt 0.3737 0.9954 0.0000
vt 0.4158 0.9954 0.0000
vt 0.3948 0.9864 0.0000
vt 0.3948 0.0136 0.0000
vt 0.3991 0.0117 0.0000
vt 0.3991 0.9883 0.0000
vt 0.3947 0.0136 0.0000
vt 0.3947 0.9864 0.0000
vt 0.4117 0.9937 0.0000
vt 0.3778 0.9937 0.0000
vt 0.6451 0.9919 0.0000
vt 0.6707 0.9919 0.0000
vt 0.6748 0.9937 0.0000
vt 0.6409 0.9937 0.0000
vt 0.6789 0.9954 0.0000
vt 0.6368 0.9954 0.0000
vt 0.6789 0.0046 0.0000
vt 0.6748 0.0063 0.0000
vt 0.4999 0.9864 0.0000
vt 0.5001 0.9864 0.0000
vt 0.5043 0.9883 0.0000
vt 0.4957 0.9883 0.0000
vt 0.5086 0.9901 0.0000
vt 0.4914 0.9901 0.0000
vt 0.5043 0.0117 0.0000
vt 0.5001 0.0136 0.0000
vt 0.4957 0.0117 0.0000
vt 0.4914 0.0099 0.0000
vt 0.5086 0.0099 0.0000
vt 0.4872 0.9919 0.0000
vt 0.4872 0.0081 0.0000
vt 0.6707 0.0081 0.0000
vt 0.6451 0.0081 0.0000
vt 0.6409 0.0063 0.0000
vt 0.5128 0.9919 0.0000
vt 0.4999 0.0136 0.0000
vt 0.5128 0.0081 0.0000
vt 0.6368 0.0046 0.0000
vt 0.4831 0.9937 0.0000
vt 0.5169 0.9937 0.0000
vt 0.5210 0.9954 0.0000
vt 0.4790 0.9954 0.0000
vt 0.5210 0.0046 0.0000
vt 0.5169 0.0063 0.0000
vt 0.6536 0.9883 0.0000
vt 0.6536 0.0117 0.0000
vt 0.6578 0.0136 0.0000
vt 0.6578 0.9864 0.0000
vt 0.6493 0.9901 0.0000
vt 0.6493 0.0099 0.0000
vt 0.4474 0.0136 0.0000
vt 0.4474 0.9864 0.0000
vt 0.4517 0.0117 0.0000
vt 0.4517 0.9883 0.0000
vt 0.4790 0.0046 0.0000
vt 0.4831 0.0063 0.0000
vt 0.5654 0.9919 0.0000
vt 0.5398 0.9919 0.0000
vt 0.5441 0.9901 0.0000
vt 0.5612 0.9901 0.0000
vt 0.5612 0.0099 0.0000
vt 0.5654 0.0081 0.0000
vt 0.4559 0.0099 0.0000
vt 0.4559 0.9901 0.0000
vt 0.4388 0.9901 0.0000
vt 0.5527 0.0136 0.0000
vt 0.5527 0.9864 0.0000
vt 0.5526 0.9864 0.0000
vt 0.5526 0.0136 0.0000
vt 0.5441 0.0099 0.0000
vt 0.5398 0.0081 0.0000
vt 0.5570 0.9883 0.0000
vt 0.5483 0.9883 0.0000
vt 0.5570 0.0117 0.0000
vt 0.5483 0.0117 0.0000
vt 0.5696 0.0063 0.0000
vt 0.5696 0.9937 0.0000
vt 0.5737 0.0046 0.0000
vt 0.5737 0.9954 0.0000
vt 0.5357 0.9937 0.0000
vt 0.5357 0.0063 0.0000
vt 0.5316 0.0046 0.0000
vt 0.5316 0.9954 0.0000
vt 0.4388 0.0099 0.0000
vt 0.6580 0.9864 0.0000
vt 0.6622 0.9883 0.0000
vt 0.6665 0.9901 0.0000
vt 0.6665 0.0099 0.0000
vt 0.6622 0.0117 0.0000
vt 0.6580 0.0136 0.0000
vt 0.0959 0.0063 0.0000
vt 0.0620 0.0063 0.0000
vt 0.0579 0.0046 0.0000
vt 0.1000 0.0046 0.0000
vt 0.0662 0.0081 0.0000
vt 0.0662 0.9919 0.0000
vt 0.0620 0.9937 0.0000
vt 0.0579 0.9954 0.0000
vt 0.1316 0.0136 0.0000
vt 0.1316 0.9864 0.0000
vt 0.1315 0.9864 0.0000
vt 0.1315 0.0136 0.0000
vt 0.1359 0.9883 0.0000
vt 0.1273 0.9883 0.0000
vt 0.1402 0.9901 0.0000
vt 0.1230 0.9901 0.0000
vt 0.1444 0.9919 0.0000
vt 0.1188 0.9919 0.0000
vt 0.1444 0.0081 0.0000
vt 0.1402 0.0099 0.0000
vt 0.1359 0.0117 0.0000
vt 0.2325 0.9883 0.0000
vt 0.2412 0.9883 0.0000
vt 0.2454 0.9901 0.0000
vt 0.2283 0.9901 0.0000
vt 0.1273 0.0117 0.0000
vt 0.1230 0.0099 0.0000
vt 0.1188 0.0081 0.0000
vt 0.2496 0.9919 0.0000
vt 0.2241 0.9919 0.0000
vt 0.2496 0.0081 0.0000
vt 0.2454 0.0099 0.0000
vt 0.2369 0.0136 0.0000
vt 0.2369 0.9864 0.0000
vt 0.2368 0.9864 0.0000
vt 0.2368 0.0136 0.0000
vt 0.2412 0.0117 0.0000
vt 0.2283 0.0099 0.0000
vt 0.2241 0.0081 0.0000
vt 0.2538 0.0063 0.0000
vt 0.2199 0.0063 0.0000
vt 0.2158 0.0046 0.0000
vt 0.2579 0.0046 0.0000
vt 0.1485 0.9937 0.0000
vt 0.1146 0.9937 0.0000
vt 0.2158 0.9954 0.0000
vt 0.1485 0.0063 0.0000
vt 0.1146 0.0063 0.0000
vt 0.1105 0.0046 0.0000
vt 0.1526 0.0046 0.0000
vt 0.2325 0.0117 0.0000
vt 0.2538 0.9937 0.0000
vt 0.2199 0.9937 0.0000
vt 0.1526 0.9954 0.0000
vt 0.1105 0.9954 0.0000
vt 0.2579 0.9954 0.0000
vt 0.1885 0.0117 0.0000
vt 0.1799 0.0117 0.0000
vt 0.1756 0.0099 0.0000
vt 0.1928 0.0099 0.0000
vt 0.2053 0.9954 0.0000
vt 0.2053 0.0046 0.0000
vt 0.1714 0.9919 0.0000
vt 0.1970 0.9919 0.0000
vt 0.2012 0.9937 0.0000
vt 0.1673 0.9937 0.0000
vt 0.1632 0.0046 0.0000
vt 0.0833 0.9883 0.0000
vt 0.0746 0.9883 0.0000
vt 0.0789 0.9864 0.0000
vt 0.0790 0.9864 0.0000
vt 0.0875 0.0099 0.0000
vt 0.0704 0.0099 0.0000
vt 0.0917 0.0081 0.0000
vt 0.1632 0.9954 0.0000
vt 0.1714 0.0081 0.0000
vt 0.1756 0.9901 0.0000
vt 0.1841 0.9864 0.0000
vt 0.1843 0.9864 0.0000
vt 0.1885 0.9883 0.0000
vt 0.1799 0.9883 0.0000
vt 0.1970 0.0081 0.0000
vt 0.1673 0.0063 0.0000
vt 0.2012 0.0063 0.0000
vt 0.0833 0.0117 0.0000
vt 0.0875 0.9901 0.0000
vt 0.1928 0.9901 0.0000
vt 0.1843 0.0136 0.0000
vt 0.1841 0.0136 0.0000
vt 0.0790 0.0136 0.0000
vt 0.0789 0.0136 0.0000
vt 0.0917 0.9919 0.0000
vt 0.0704 0.9901 0.0000
vt 0.0746 0.0117 0.0000
vt 0.0959 0.9937 0.0000
vt 0.1000 0.9954 0.0000
vt -0.0000 1.0000 0.0000
vt 0.0000 0.0000 0.0000
vt 0.6667 1.0000 0.0000
vt 0.6667 0.0000 0.0000
vt 0.3333 0.0000 0.0000
vt 0.3333 1.0000 0.0000
vt 1.0000 0.3333 0.0000
vt -0.0000 0.3333 0.0000
# 548 texture coords

o Mesh2
g Mesh2
usemtl wire_204204204
s off
f 1/1/1 2/2/2 3/3/3 4/4/4 
f 5/5/5 6/6/6 7/7/7 8/8/8 
f 1/1/1 9/9/9 6/6/6 5/5/5 
f 10/10/10 11/11/11 12/12/12 13/13/13 
f 14/14/1 15/15/9 16/16/6 17/17/5 
f 18/18/1 19/19/2 20/20/3 21/21/4 
f 22/22/4 23/23/14 15/15/9 14/14/1 
f 24/24/8 25/25/7 26/26/15 27/27/16 
f 28/28/17 29/29/2 30/30/11 31/31/10 
f 32/32/9 33/33/17 10/10/10 34/34/6 
f 35/35/18 26/26/15 25/25/7 36/36/13 
f 17/17/5 30/30/11 29/29/2 14/14/1 
f 37/37/19 38/38/20 39/39/21 40/40/22 
f 41/41/7 13/13/13 42/42/18 43/43/15 
f 44/44/16 45/45/23 12/12/12 46/46/8 
f 46/46/8 12/12/12 11/11/11 47/47/5 
f 41/41/7 46/46/8 47/47/5 34/34/6 
f 36/36/13 48/48/12 49/49/23 35/35/18 
f 24/24/8 48/48/12 30/30/11 17/17/5 
f 14/14/1 29/29/2 50/50/3 22/22/4 
f 51/51/22 52/52/24 53/53/25 54/54/19 
f 51/51/22 55/55/21 50/50/3 56/56/26 
f 57/57/27 53/53/25 52/52/24 58/58/28 
f 17/17/5 16/16/6 25/25/7 24/24/8 
f 59/59/14 60/60/26 33/33/17 32/32/9 
f 33/33/17 19/19/2 11/11/11 10/10/10 
f 31/31/10 16/16/6 15/15/9 28/28/17 
f 56/56/26 50/50/3 29/29/2 28/28/17 
f 60/60/26 20/20/3 19/19/2 33/33/17 
f 34/34/6 10/10/10 13/13/13 41/41/7 
f 61/61/28 39/39/21 38/38/20 62/62/27 
f 34/34/6 47/47/5 18/18/1 32/32/9 
f 28/28/17 15/15/9 23/23/14 56/56/26 
f 54/54/19 63/63/20 55/55/21 51/51/22 
f 27/27/16 49/49/23 48/48/12 24/24/8 
f 56/56/26 23/23/14 52/52/24 51/51/22 
f 32/32/9 18/18/1 21/21/4 59/59/14 
f 22/22/4 50/50/3 55/55/21 58/58/28 
f 40/40/22 39/39/21 20/20/3 60/60/26 
f 58/58/28 52/52/24 23/23/14 22/22/4 
f 58/58/28 55/55/21 63/63/20 57/57/27 
f 31/31/10 30/30/11 48/48/12 36/36/13 
f 36/36/13 25/25/7 16/16/6 31/31/10 
f 59/59/14 21/21/4 61/61/28 64/64/24 
f 43/43/15 44/44/16 46/46/8 41/41/7 
f 13/13/13 12/12/12 45/45/23 42/42/18 
f 47/47/5 11/11/11 19/19/2 18/18/1 
f 21/21/4 20/20/3 39/39/21 61/61/28 
f 64/64/24 61/61/28 62/62/27 65/65/25 
f 66/66/10 6/6/6 9/9/9 67/67/17 
f 5/5/5 68/68/11 2/2/2 1/1/1 
f 69/69/19 70/70/25 71/71/27 72/72/20 
f 73/73/13 74/74/12 75/75/23 76/76/18 
f 71/71/27 70/70/25 77/77/24 78/78/28 
f 78/78/28 77/77/24 79/79/14 80/80/4 
f 81/81/27 82/82/25 83/83/24 84/84/28 
f 85/85/26 86/86/14 83/83/24 87/87/22 
f 88/88/19 89/89/20 90/90/21 87/87/22 
f 87/87/22 90/90/21 91/91/3 85/85/26 
f 92/92/17 93/93/9 86/86/14 85/85/26 
f 87/87/22 83/83/24 82/82/25 88/88/19 
f 85/85/26 91/91/3 94/94/2 92/92/17 
f 80/80/4 79/79/14 95/95/9 96/96/1 
f 97/97/26 98/98/3 99/99/2 100/100/17 
f 72/72/20 71/71/27 78/78/28 101/101/21 
f 102/102/4 91/91/3 90/90/21 84/84/28 
f 84/84/28 90/90/21 89/89/20 81/81/27 
f 103/103/1 93/93/9 104/104/6 105/105/5 
f 98/98/3 80/80/4 96/96/1 99/99/2 
f 106/106/5 107/107/6 108/108/7 109/109/8 
f 105/105/5 104/104/6 110/110/7 111/111/8 
f 111/111/8 110/110/7 112/112/15 113/113/16 
f 109/109/8 108/108/7 114/114/15 115/115/16 
f 8/8/8 7/7/7 116/116/15 117/117/16 
f 118/118/18 114/114/15 108/108/7 119/119/13 
f 119/119/13 108/108/7 107/107/6 120/120/10 
f 121/121/18 112/112/15 110/110/7 122/122/13 
f 100/100/17 95/95/9 79/79/14 97/97/26 
f 103/103/1 94/94/2 91/91/3 102/102/4 
f 8/8/8 74/74/12 68/68/11 5/5/5 
f 123/123/22 101/101/21 98/98/3 97/97/26 
f 76/76/18 116/116/15 7/7/7 73/73/13 
f 101/101/21 78/78/28 80/80/4 98/98/3 
f 69/69/19 72/72/20 101/101/21 123/123/22 
f 73/73/13 7/7/7 6/6/6 66/66/10 
f 123/123/22 77/77/24 70/70/25 69/69/19 
f 96/96/1 95/95/9 107/107/6 106/106/5 
f 117/117/16 75/75/23 74/74/12 8/8/8 
f 88/88/19 82/82/25 81/81/27 89/89/20 
f 84/84/28 83/83/24 86/86/14 102/102/4 
f 102/102/4 86/86/14 93/93/9 103/103/1 
f 97/97/26 79/79/14 77/77/24 123/123/22 
f 66/66/10 68/68/11 74/74/12 73/73/13 
f 67/67/17 2/2/2 68/68/11 66/66/10 
f 92/92/17 94/94/2 124/124/11 125/125/10 
f 122/122/13 126/126/12 127/127/23 121/121/18 
f 125/125/10 124/124/11 126/126/12 122/122/13 
f 111/111/8 126/126/12 124/124/11 105/105/5 
f 105/105/5 124/124/11 94/94/2 103/103/1 
f 125/125/10 104/104/6 93/93/9 92/92/17 
f 113/113/16 127/127/23 126/126/12 111/111/8 
f 54/54/19 53/53/25 57/57/27 63/63/20 
f 122/122/13 110/110/7 104/104/6 125/125/10 
f 128/128/17 129/129/9 130/130/14 131/131/26 
f 132/132/4 130/130/14 129/129/9 133/133/1 
f 134/134/24 135/135/28 136/136/27 137/137/25 
f 138/138/10 139/139/11 140/140/12 141/141/13 
f 142/142/20 143/143/19 144/144/25 145/145/27 
f 131/131/26 130/130/14 146/146/24 147/147/22 
f 128/128/17 148/148/2 139/139/11 138/138/10 
f 147/147/22 146/146/24 144/144/25 143/143/19 
f 149/149/28 146/146/24 130/130/14 132/132/4 
f 150/150/18 151/151/15 152/152/7 141/141/13 
f 133/133/1 129/129/9 153/153/6 154/154/5 
f 149/149/28 155/155/21 142/142/20 145/145/27 
f 131/131/26 156/156/3 148/148/2 128/128/17 
f 157/157/14 158/158/26 159/159/17 160/160/9 
f 160/160/9 161/161/1 162/162/4 157/157/14 
f 163/163/8 140/140/12 139/139/11 154/154/5 
f 141/141/13 152/152/7 153/153/6 138/138/10 
f 147/147/22 155/155/21 156/156/3 131/131/26 
f 154/154/5 139/139/11 148/148/2 133/133/1 
f 164/164/3 158/158/26 165/165/22 166/166/21 
f 163/163/8 152/152/7 151/151/15 167/167/16 
f 166/166/21 165/165/22 168/168/19 169/169/20 
f 169/169/20 136/136/27 135/135/28 166/166/21 
f 132/132/4 156/156/3 155/155/21 149/149/28 
f 138/138/10 153/153/6 129/129/9 128/128/17 
f 133/133/1 148/148/2 156/156/3 132/132/4 
f 157/157/14 162/162/4 135/135/28 134/134/24 
f 166/166/21 135/135/28 162/162/4 164/164/3 
f 137/137/25 168/168/19 165/165/22 134/134/24 
f 164/164/3 162/162/4 161/161/1 170/170/2 
f 143/143/19 142/142/20 155/155/21 147/147/22 
f 141/141/13 140/140/12 171/171/23 150/150/18 
f 167/167/16 171/171/23 140/140/12 163/163/8 
f 154/154/5 153/153/6 152/152/7 163/163/8 
f 168/168/19 137/137/25 136/136/27 169/169/20 
f 170/170/2 159/159/17 158/158/26 164/164/3 
f 134/134/24 165/165/22 158/158/26 157/157/14 
f 145/145/27 144/144/25 146/146/24 149/149/28 
f 172/172/11 173/173/5 174/174/8 175/175/12 
f 176/176/15 177/177/16 174/174/8 178/178/7 
f 179/179/23 180/180/18 181/181/13 175/175/12 
f 175/175/12 181/181/13 182/182/10 172/172/11 
f 178/178/7 174/174/8 173/173/5 183/183/6 
f 175/175/12 174/174/8 177/177/16 179/179/23 
f 178/178/7 181/181/13 180/180/18 176/176/15 
f 172/172/11 182/182/10 159/159/17 170/170/2 
f 183/183/6 173/173/5 161/161/1 160/160/9 
f 183/183/6 182/182/10 181/181/13 178/178/7 
f 170/170/2 161/161/1 173/173/5 172/172/11 
f 160/160/9 159/159/17 182/182/10 183/183/6 
f 184/184/28 185/185/21 186/186/20 187/187/27 
f 4/4/4 3/3/3 185/185/21 184/184/28 
f 188/188/26 189/189/14 190/190/24 191/191/22 
f 191/191/22 190/190/24 192/192/25 193/193/19 
f 193/193/19 186/186/20 185/185/21 191/191/22 
f 184/184/28 190/190/24 189/189/14 4/4/4 
f 4/4/4 189/189/14 9/9/9 1/1/1 
f 187/187/27 192/192/25 190/190/24 184/184/28 
f 194/194/29 195/195/29 196/196/29 197/197/29 
f 198/198/29 199/199/29 200/200/29 201/201/29 
f 150/202/29 171/42/29 167/43/29 151/203/29 
f 43/167/29 42/171/29 45/204/29 44/205/29 
f 202/117/29 203/75/29 204/76/29 205/116/29 
f 206/27/29 207/49/29 208/35/29 209/26/29 
f 67/67/17 9/9/9 189/189/14 188/188/26 
f 210/177/29 211/179/29 212/180/29 213/176/29 
f 114/206/29 118/207/29 214/208/29 115/209/29 
f 215/210/29 216/211/29 217/212/29 218/213/29 
f 219/214/29 220/215/29 221/216/29 222/217/29 
f 223/218/29 224/219/29 225/220/29 226/221/29 
f 227/222/29 228/223/29 229/224/29 230/225/29 
f 231/113/29 232/127/29 233/121/29 234/112/29 
f 112/226/29 121/227/29 127/228/29 113/229/29 
f 176/230/29 180/231/29 179/232/29 177/233/29 
f 235/234/29 236/235/29 237/236/29 238/237/29 
f 239/115/29 240/238/29 241/118/29 242/114/29 
f 120/120/10 243/239/11 244/240/12 119/119/13 
f 218/218/16 217/219/23 245/241/12 246/242/8 
f 100/100/17 99/99/2 243/239/11 120/120/10 
f 247/243/5 248/244/11 249/245/2 250/246/1 
f 243/239/11 106/106/5 109/109/8 244/240/12 
f 251/247/17 249/245/2 248/244/11 252/248/10 
f 253/249/9 251/247/17 252/248/10 254/250/6 
f 252/248/10 248/244/11 245/241/12 255/251/13 
f 256/252/14 257/253/4 258/254/28 259/255/24 
f 260/256/19 261/257/25 262/258/27 263/259/20 
f 99/99/2 96/96/1 106/106/5 243/239/11 
f 262/258/27 261/257/25 264/260/24 265/261/28 
f 265/261/28 264/260/24 266/262/14 267/263/4 
f 259/255/24 258/254/28 268/264/27 269/265/25 
f 254/250/6 252/248/10 255/251/13 270/266/7 
f 270/266/7 246/242/8 247/243/5 254/250/6 
f 270/266/7 255/251/13 216/220/18 215/221/15 
f 271/267/19 272/268/20 273/269/21 274/270/22 
f 274/270/22 273/269/21 275/271/3 276/272/26 
f 254/250/6 247/243/5 250/246/1 253/249/9 
f 119/119/13 244/240/12 214/238/23 118/118/18 
f 215/221/15 218/218/16 246/242/8 270/266/7 
f 276/272/26 275/271/3 277/273/2 278/274/17 
f 246/242/8 245/241/12 248/244/11 247/243/5 
f 120/120/10 107/107/6 95/95/9 100/100/17 
f 279/275/1 277/273/2 275/271/3 257/253/4 
f 255/251/13 245/241/12 217/219/23 216/220/18 
f 244/240/12 109/109/8 115/115/16 214/238/23 
f 280/276/28 281/277/21 282/278/20 283/279/27 
f 258/254/28 273/269/21 272/268/20 268/264/27 
f 284/280/9 278/274/17 285/281/10 286/282/6 
f 267/263/4 266/262/14 287/283/9 288/284/1 
f 260/256/19 263/259/20 289/285/21 290/286/22 
f 288/284/1 291/287/2 292/288/3 267/263/4 
f 293/289/26 292/288/3 291/287/2 294/290/17 
f 295/291/5 296/292/11 291/287/2 288/284/1 
f 297/293/24 298/294/22 299/295/26 300/296/14 
f 301/297/3 299/295/26 298/294/22 302/298/21 
f 293/289/26 266/262/14 264/260/24 290/286/22 
f 290/286/22 289/285/21 292/288/3 293/289/26 
f 288/284/1 287/283/9 303/299/6 295/291/5 
f 304/300/7 305/301/13 211/232/18 210/233/15 
f 286/282/6 306/302/5 279/275/1 284/280/9 
f 307/303/13 308/304/7 303/299/6 309/305/10 
f 300/296/14 299/295/26 310/306/17 311/307/9 
f 285/281/10 312/308/11 313/309/12 305/301/13 
f 295/291/5 303/299/6 308/304/7 314/310/8 
f 257/253/4 275/271/3 273/269/21 258/254/28 
f 305/301/13 313/309/12 212/231/23 211/232/18 
f 297/293/24 315/311/28 316/312/27 317/313/25 
f 307/303/13 318/314/12 200/223/23 199/224/18 
f 302/298/21 298/294/22 319/315/19 320/316/20 
f 309/305/10 296/292/11 318/314/12 307/303/13 
f 320/316/20 316/312/27 315/311/28 302/298/21 
f 304/300/7 321/317/8 306/302/5 286/282/6 
f 322/318/6 323/319/10 324/320/13 325/321/7 
f 290/286/22 264/260/24 261/257/25 260/256/19 
f 317/313/25 319/315/19 298/294/22 297/293/24 
f 294/290/17 291/287/2 296/292/11 309/305/10 
f 300/296/14 326/322/4 315/311/28 297/293/24 
f 301/297/3 326/322/4 327/323/1 328/324/2 
f 309/305/10 303/299/6 287/283/9 294/290/17 
f 267/263/4 292/288/3 289/285/21 265/261/28 
f 265/261/28 289/285/21 263/259/20 262/258/27 
f 314/310/8 308/304/7 198/225/15 201/222/16 
f 286/282/6 285/281/10 305/301/13 304/300/7 
f 199/224/18 198/225/15 308/304/7 307/303/13 
f 210/233/15 213/230/16 321/317/8 304/300/7 
f 213/230/16 212/231/23 313/309/12 321/317/8 
f 311/307/9 310/306/17 323/319/10 322/318/6 
f 278/274/17 277/273/2 312/308/11 285/281/10 
f 294/290/17 287/283/9 266/262/14 293/289/26 
f 321/317/8 313/309/12 312/308/11 306/302/5 
f 319/315/19 317/313/25 316/312/27 320/316/20 
f 302/298/21 315/311/28 326/322/4 301/297/3 
f 194/217/15 197/214/16 329/325/8 325/321/7 
f 201/222/16 200/223/23 318/314/12 314/310/8 
f 306/302/5 312/308/11 277/273/2 279/275/1 
f 328/324/2 310/306/17 299/295/26 301/297/3 
f 325/321/7 324/320/13 195/216/18 194/217/15 
f 314/310/8 318/314/12 296/292/11 295/291/5 
f 311/307/9 327/323/1 326/322/4 300/296/14 
f 271/267/19 269/265/25 268/264/27 272/268/20 
f 269/265/25 271/267/19 274/270/22 259/255/24 
f 322/318/6 330/326/5 327/323/1 311/307/9 
f 284/280/9 279/275/1 257/253/4 256/252/14 
f 256/252/14 276/272/26 278/274/17 284/280/9 
f 328/324/2 327/323/1 330/326/5 331/327/11 
f 196/215/23 195/216/18 324/320/13 332/328/12 
f 331/327/11 330/326/5 329/325/8 332/328/12 
f 332/328/12 329/325/8 197/214/16 196/215/23 
f 259/255/24 274/270/22 276/272/26 256/252/14 
f 325/321/7 329/325/8 330/326/5 322/318/6 
f 331/327/11 323/319/10 310/306/17 328/324/2 
f 332/328/12 324/320/13 323/319/10 331/327/11 
f 333/329/30 45/45/30 334/330/30 
f 45/45/30 333/329/30 335/331/30 
f 45/45/30 335/331/30 42/42/30 
f 42/42/30 335/331/30 204/332/30 
f 42/42/30 204/332/30 43/43/30 
f 204/332/30 335/331/30 203/333/30 
f 203/333/30 335/331/30 208/334/30 
f 203/333/30 208/334/30 202/335/30 
f 208/334/30 335/331/30 207/336/30 
f 207/336/30 335/331/30 229/199/30 
f 207/336/30 229/199/30 206/337/30 
f 229/199/30 335/331/30 228/200/30 
f 228/200/30 335/331/30 221/195/30 
f 228/200/30 221/195/30 227/201/30 
f 221/195/30 335/331/30 220/196/30 
f 220/196/30 335/331/30 212/231/30 
f 220/196/30 212/231/30 219/197/30 
f 212/231/30 335/331/30 211/232/30 
f 211/232/30 335/331/30 214/238/30 
f 211/232/30 214/238/30 210/233/30 
f 214/238/30 335/331/30 118/118/30 
f 118/118/30 335/331/30 233/227/30 
f 118/118/30 233/227/30 114/114/30 
f 233/227/30 335/331/30 232/228/30 
f 232/228/30 335/331/30 217/219/30 
f 232/228/30 217/219/30 231/229/30 
f 217/219/30 335/331/30 216/220/30 
f 216/220/30 335/331/30 237/235/30 
f 216/220/30 237/235/30 215/221/30 
f 237/235/30 335/331/30 236/236/30 
f 236/236/30 335/331/30 225/211/30 
f 236/236/30 225/211/30 235/237/30 
f 225/211/30 335/331/30 224/212/30 
f 224/212/30 335/331/30 127/127/30 
f 224/212/30 127/127/30 223/213/30 
f 127/127/30 335/331/30 121/121/30 
f 121/121/30 335/331/30 241/207/30 
f 121/121/30 241/207/30 112/112/30 
f 241/207/30 335/331/30 240/208/30 
f 240/208/30 335/331/30 179/179/30 
f 240/208/30 179/179/30 239/209/30 
f 179/179/30 335/331/30 180/180/30 
f 180/180/30 335/331/30 196/215/30 
f 180/180/30 196/215/30 176/176/30 
f 196/215/30 335/331/30 195/216/30 
f 195/216/30 335/331/30 200/223/30 
f 195/216/30 200/223/30 194/217/30 
f 200/223/30 335/331/30 199/224/30 
f 199/224/30 335/331/30 49/49/30 
f 199/224/30 49/49/30 198/225/30 
f 49/49/30 335/331/30 35/35/30 
f 35/35/30 335/331/30 75/75/30 
f 35/35/30 75/75/30 26/26/30 
f 75/75/30 335/331/30 76/76/30 
f 76/76/30 335/331/30 171/171/30 
f 76/76/30 171/171/30 116/116/30 
f 171/171/30 335/331/30 150/150/30 
f 150/150/30 335/331/30 151/151/30 
f 334/330/30 44/44/30 336/338/30 
f 44/44/30 334/330/30 45/45/30 
f 336/338/30 44/44/30 43/43/30 
f 336/338/30 43/43/30 205/339/30 
f 205/339/30 43/43/30 204/332/30 
f 336/338/30 205/339/30 202/335/30 
f 336/338/30 202/335/30 209/340/30 
f 209/340/30 202/335/30 208/334/30 
f 336/338/30 209/340/30 206/337/30 
f 336/338/30 206/337/30 230/198/30 
f 230/198/30 206/337/30 229/199/30 
f 336/338/30 230/198/30 227/201/30 
f 336/338/30 227/201/30 222/194/30 
f 222/194/30 227/201/30 221/195/30 
f 336/338/30 222/194/30 219/197/30 
f 336/338/30 219/197/30 213/230/30 
f 213/230/30 219/197/30 212/231/30 
f 336/338/30 213/230/30 210/233/30 
f 336/338/30 210/233/30 115/115/30 
f 115/115/30 210/233/30 214/238/30 
f 336/338/30 115/115/30 114/114/30 
f 336/338/30 114/114/30 234/226/30 
f 234/226/30 114/114/30 233/227/30 
f 336/338/30 234/226/30 231/229/30 
f 336/338/30 231/229/30 218/218/30 
f 218/218/30 231/229/30 217/219/30 
f 336/338/30 218/218/30 215/221/30 
f 336/338/30 215/221/30 238/234/30 
f 238/234/30 215/221/30 237/235/30 
f 336/338/30 238/234/30 235/237/30 
f 336/338/30 235/237/30 226/210/30 
f 226/210/30 235/237/30 225/211/30 
f 336/338/30 226/210/30 223/213/30 
f 336/338/30 223/213/30 113/113/30 
f 113/113/30 223/213/30 127/127/30 
f 336/338/30 113/113/30 112/112/30 
f 336/338/30 112/112/30 242/206/30 
f 242/206/30 112/112/30 241/207/30 
f 336/338/30 242/206/30 239/209/30 
f 336/338/30 239/209/30 177/177/30 
f 177/177/30 239/209/30 179/179/30 
f 336/338/30 177/177/30 176/176/30 
f 336/338/30 176/176/30 197/214/30 
f 197/214/30 176/176/30 196/215/30 
f 336/338/30 197/214/30 194/217/30 
f 336/338/30 194/217/30 201/222/30 
f 201/222/30 194/217/30 200/223/30 
f 336/338/30 201/222/30 198/225/30 
f 336/338/30 198/225/30 27/27/30 
f 27/27/30 198/225/30 49/49/30 
f 336/338/30 27/27/30 26/26/30 
f 336/338/30 26/26/30 117/117/30 
f 117/117/30 26/26/30 75/75/30 
f 336/338/30 117/117/30 116/116/30 
f 336/338/30 116/116/30 167/167/30 
f 167/167/30 116/116/30 171/171/30 
f 336/338/30 167/167/30 151/151/30 
f 336/338/30 151/151/30 335/331/30 
f 26/340/29 35/334/29 49/336/29 27/337/29 
f 116/339/29 76/332/29 75/333/29 117/335/29 
f 191/191/22 185/185/21 3/3/3 188/188/26 
f 188/188/26 3/3/3 2/2/2 67/67/17 
f 193/193/19 192/192/25 187/187/27 186/186/20 
f 337/341/26 338/342/3 339/343/2 340/344/17 
f 341/345/9 342/346/1 343/347/4 344/348/14 
f 345/349/21 346/350/28 343/347/4 338/342/3 
f 340/344/17 339/343/2 347/351/11 348/352/10 
f 349/353/13 350/354/12 233/227/23 232/228/18 
f 231/229/15 234/226/16 351/355/8 352/356/7 
f 353/357/25 354/358/19 355/359/22 356/360/24 
f 357/361/20 358/362/27 346/350/28 345/349/21 
f 344/348/14 337/341/26 340/344/17 341/345/9 
f 354/358/19 353/357/25 358/362/27 357/361/20 
f 356/360/24 355/359/22 337/341/26 344/348/14 
f 341/345/9 340/344/17 348/352/10 359/363/6 
f 352/356/7 349/353/13 232/228/18 231/229/15 
f 359/363/6 360/364/5 342/346/1 341/345/9 
f 348/352/10 347/351/11 350/354/12 349/353/13 
f 359/363/6 348/352/10 349/353/13 352/356/7 
f 339/343/2 342/346/1 360/364/5 347/351/11 
f 347/351/11 360/364/5 351/355/8 350/354/12 
f 350/354/12 351/355/8 234/226/16 233/227/23 
f 355/359/22 345/349/21 338/342/3 337/341/26 
f 354/358/19 357/361/20 345/349/21 355/359/22 
f 338/342/3 343/347/4 342/346/1 339/343/2 
f 352/356/7 351/355/8 360/364/5 359/363/6 
f 344/348/14 343/347/4 346/350/28 356/360/24 
f 356/360/24 346/350/28 358/362/27 353/357/25 
f 361/365/1 362/366/9 363/367/6 364/368/5 
f 364/368/5 363/367/6 365/369/7 366/370/8 
f 367/371/13 365/369/7 363/367/6 368/372/10 
f 369/373/27 370/374/25 371/375/24 372/376/28 
f 372/376/28 371/375/24 373/377/14 374/378/4 
f 375/379/22 371/375/24 370/374/25 376/380/19 
f 375/379/22 377/381/21 378/382/3 379/383/26 
f 380/384/1 381/385/2 378/382/3 374/378/4 
f 374/378/4 378/382/3 377/381/21 372/376/28 
f 382/386/17 383/387/2 384/388/11 368/372/10 
f 374/378/4 373/377/14 385/389/9 380/384/1 
f 376/380/19 386/390/20 377/381/21 375/379/22 
f 387/391/17 385/389/9 373/377/14 379/383/26 
f 372/376/28 377/381/21 386/390/20 369/373/27 
f 242/206/16 241/207/23 388/392/12 366/370/8 
f 389/393/5 390/394/6 391/395/7 392/396/8 
f 392/396/8 391/395/7 235/237/15 238/234/16 
f 236/236/18 235/237/15 391/395/7 393/397/13 
f 240/208/18 239/209/15 365/369/7 367/371/13 
f 368/372/10 384/388/11 388/392/12 367/371/13 
f 367/371/13 388/392/12 241/207/23 240/208/18 
f 366/370/8 365/369/7 239/209/15 242/206/16 
f 368/372/10 363/367/6 362/366/9 382/386/17 
f 376/380/19 370/374/25 369/373/27 386/390/20 
f 379/383/26 373/377/14 371/375/24 375/379/22 
f 379/383/26 378/382/3 381/385/2 387/391/17 
f 380/384/1 385/389/9 390/394/6 389/393/5 
f 366/370/8 388/392/12 384/388/11 364/368/5 
f 393/397/13 391/395/7 390/394/6 394/398/10 
f 395/399/28 396/400/21 397/401/20 398/402/27 
f 364/368/5 384/388/11 383/387/2 361/365/1 
f 399/403/4 400/404/3 396/400/21 395/399/28 
f 394/398/10 390/394/6 385/389/9 387/391/17 
f 401/405/19 402/406/25 283/279/27 282/278/20 
f 402/406/25 401/405/19 403/407/22 404/408/24 
f 393/397/13 405/409/12 237/235/23 236/236/18 
f 392/396/8 405/409/12 406/410/11 389/393/5 
f 407/411/9 408/412/1 409/413/4 410/414/14 
f 410/414/14 411/415/26 412/416/17 407/411/9 
f 404/408/24 403/407/22 413/417/26 414/418/14 
f 253/249/9 250/246/1 415/419/4 414/418/14 
f 414/418/14 415/419/4 280/276/28 404/408/24 
f 404/408/24 280/276/28 283/279/27 402/406/25 
f 416/420/19 417/421/25 418/422/27 419/423/20 
f 420/424/3 409/413/4 408/412/1 421/425/2 
f 422/426/24 423/427/28 418/422/27 417/421/25 
f 414/418/14 413/417/26 251/247/17 253/249/9 
f 417/421/25 416/420/19 424/428/22 422/426/24 
f 410/414/14 409/413/4 423/427/28 422/426/24 
f 394/398/10 406/410/11 405/409/12 393/397/13 
f 238/234/16 237/235/23 405/409/12 392/396/8 
f 411/415/26 420/424/3 421/425/2 412/416/17 
f 419/423/20 418/422/27 423/427/28 425/429/21 
f 422/426/24 424/428/22 411/415/26 410/414/14 
f 407/411/9 412/416/17 426/430/10 427/431/6 
f 427/431/6 426/430/10 428/432/13 429/433/7 
f 416/420/19 419/423/20 425/429/21 424/428/22 
f 429/433/7 428/432/13 224/212/18 223/213/15 
f 387/391/17 381/385/2 406/410/11 394/398/10 
f 389/393/5 406/410/11 381/385/2 380/384/1 
f 424/428/22 425/429/21 420/424/3 411/415/26 
f 427/431/6 430/434/5 408/412/1 407/411/9 
f 412/416/17 421/425/2 431/435/11 426/430/10 
f 426/430/10 431/435/11 432/436/12 428/432/13 
f 223/213/15 226/210/16 433/437/8 429/433/7 
f 425/429/21 423/427/28 409/413/4 420/424/3 
f 429/433/7 433/437/8 430/434/5 427/431/6 
f 428/432/13 432/436/12 225/211/23 224/212/18 
f 421/425/2 408/412/1 430/434/5 431/435/11 
f 250/246/1 249/245/2 434/438/3 415/419/4 
f 432/436/12 433/437/8 226/210/16 225/211/23 
f 398/402/27 435/439/25 436/440/24 395/399/28 
f 395/399/28 436/440/24 437/441/14 399/403/4 
f 382/386/17 362/366/9 437/441/14 438/442/26 
f 438/442/26 437/441/14 436/440/24 439/443/22 
f 439/443/22 436/440/24 435/439/25 440/444/19 
f 438/442/26 400/404/3 383/387/2 382/386/17 
f 399/403/4 437/441/14 362/366/9 361/365/1 
f 361/365/1 383/387/2 400/404/3 399/403/4 
f 440/444/19 435/439/25 398/402/27 397/401/20 
f 440/444/19 397/401/20 396/400/21 439/443/22 
f 439/443/22 396/400/21 400/404/3 438/442/26 
f 403/407/22 281/277/21 434/438/3 413/417/26 
f 431/435/11 430/434/5 433/437/8 432/436/12 
f 401/405/19 282/278/20 281/277/21 403/407/22 
f 413/417/26 434/438/3 249/245/2 251/247/17 
f 415/419/4 434/438/3 281/277/21 280/276/28 
f 441/445/10 442/446/11 443/447/12 444/448/13 
f 445/449/2 446/450/1 447/451/5 442/446/11 
f 442/446/11 447/451/5 448/452/8 443/447/12 
f 444/448/13 443/447/12 204/332/23 203/333/18 
f 443/447/12 448/452/8 205/339/16 204/332/23 
f 37/37/19 65/65/25 62/62/27 38/38/20 
f 65/65/25 37/37/19 40/40/22 64/64/24 
f 64/64/24 40/40/22 60/60/26 59/59/14 
f 449/453/19 450/454/25 451/455/27 452/456/20 
f 451/455/27 450/454/25 453/457/24 454/458/28 
f 454/458/28 453/457/24 455/459/14 456/460/4 
f 456/460/4 455/459/14 457/461/9 458/462/1 
f 459/463/17 457/461/9 455/459/14 460/464/26 
f 460/464/26 455/459/14 453/457/24 461/465/22 
f 461/465/22 453/457/24 450/454/25 449/453/19 
f 462/466/28 463/467/24 464/468/14 465/469/4 
f 449/453/19 452/456/20 466/470/21 461/465/22 
f 461/465/22 466/470/21 467/471/3 460/464/26 
f 460/464/26 467/471/3 468/472/2 459/463/17 
f 458/462/1 468/472/2 467/471/3 456/460/4 
f 465/469/4 464/468/14 469/473/9 470/474/1 
f 471/475/17 469/473/9 464/468/14 472/476/26 
f 473/477/19 474/478/25 475/479/27 476/480/20 
f 472/476/26 464/468/14 463/467/24 477/481/22 
f 477/481/22 463/467/24 474/478/25 473/477/19 
f 475/479/27 474/478/25 463/467/24 462/466/28 
f 472/476/26 478/482/3 479/483/2 471/475/17 
f 480/484/10 481/485/11 482/486/12 483/487/13 
f 456/460/4 467/471/3 466/470/21 454/458/28 
f 458/462/1 457/461/9 484/488/6 485/489/5 
f 471/475/17 479/483/2 481/485/11 480/484/10 
f 222/194/16 221/195/23 482/486/12 486/490/8 
f 487/491/10 488/492/11 489/493/12 490/494/13 
f 462/466/28 491/495/21 476/480/20 475/479/27 
f 454/458/28 466/470/21 452/456/20 451/455/27 
f 470/474/1 479/483/2 478/482/3 465/469/4 
f 470/474/1 469/473/9 492/496/6 493/497/5 
f 490/494/13 494/498/7 484/488/6 487/491/10 
f 473/477/19 476/480/20 491/495/21 477/481/22 
f 495/499/8 489/493/12 488/492/11 485/489/5 
f 207/336/18 206/337/15 494/498/7 490/494/13 
f 220/196/18 219/197/15 496/500/7 483/487/13 
f 483/487/13 496/500/7 492/496/6 480/484/10 
f 493/497/5 481/485/11 479/483/2 470/474/1 
f 465/469/4 478/482/3 491/495/21 462/466/28 
f 485/489/5 488/492/11 468/472/2 458/462/1 
f 487/491/10 484/488/6 457/461/9 459/463/17 
f 480/484/10 492/496/6 469/473/9 471/475/17 
f 486/490/8 482/486/12 481/485/11 493/497/5 
f 490/494/13 489/493/12 208/334/23 207/336/18 
f 209/340/16 208/334/23 489/493/12 495/499/8 
f 477/481/22 491/495/21 478/482/3 472/476/26 
f 493/497/5 492/496/6 496/500/7 486/490/8 
f 485/489/5 484/488/6 494/498/7 495/499/8 
f 459/463/17 468/472/2 488/492/11 487/491/10 
f 495/499/8 494/498/7 206/337/15 209/340/16 
f 483/487/13 482/486/12 221/195/23 220/196/18 
f 486/490/8 496/500/7 219/197/15 222/194/16 
f 497/501/22 498/502/21 499/503/3 500/504/26 
f 228/200/18 227/201/15 501/505/7 502/506/13 
f 503/507/1 504/508/9 505/509/6 506/510/5 
f 502/506/13 507/511/12 229/199/23 228/200/18 
f 508/512/24 509/513/28 510/514/27 511/515/25 
f 512/516/26 513/517/3 445/449/2 514/518/17 
f 230/198/16 229/199/23 507/511/12 515/519/8 
f 503/507/1 516/520/2 499/503/3 517/521/4 
f 518/522/27 519/523/25 520/524/24 521/525/28 
f 522/526/17 516/520/2 523/527/11 524/528/10 
f 508/512/24 525/529/22 512/516/26 526/530/14 
f 522/526/17 504/508/9 527/531/14 500/504/26 
f 515/519/8 507/511/12 523/527/11 506/510/5 
f 497/501/22 520/524/24 519/523/25 528/532/19 
f 517/521/4 499/503/3 498/502/21 521/525/28 
f 517/521/4 527/531/14 504/508/9 503/507/1 
f 506/510/5 523/527/11 516/520/2 503/507/1 
f 521/525/28 498/502/21 529/533/20 518/522/27 
f 524/528/10 523/527/11 507/511/12 502/506/13 
f 524/528/10 505/509/6 504/508/9 522/526/17 
f 500/504/26 527/531/14 520/524/24 497/501/22 
f 528/532/19 529/533/20 498/502/21 497/501/22 
f 515/519/8 501/505/7 227/201/15 230/198/16 
f 530/534/19 511/515/25 510/514/27 531/535/20 
f 511/515/25 530/534/19 525/529/22 508/512/24 
f 521/525/28 520/524/24 527/531/14 517/521/4 
f 506/510/5 505/509/6 501/505/7 515/519/8 
f 532/536/9 446/450/1 533/537/4 526/530/14 
f 528/532/19 519/523/25 518/522/27 529/533/20 
f 526/530/14 533/537/4 509/513/28 508/512/24 
f 526/530/14 512/516/26 514/518/17 532/536/9 
f 500/504/26 499/503/3 516/520/2 522/526/17 
f 530/534/19 531/535/20 534/538/21 525/529/22 
f 525/529/22 534/538/21 513/517/3 512/516/26 
f 502/506/13 501/505/7 505/509/6 524/528/10 
f 535/539/6 441/445/10 444/448/13 536/540/7 
f 536/540/7 444/448/13 203/333/18 202/335/15 
f 514/518/17 445/449/2 442/446/11 441/445/10 
f 513/517/3 533/537/4 446/450/1 445/449/2 
f 535/539/6 447/451/5 446/450/1 532/536/9 
f 534/538/21 509/513/28 533/537/4 513/517/3 
f 531/535/20 510/514/27 509/513/28 534/538/21 
f 202/335/15 205/339/16 448/452/8 536/540/7 
f 536/540/7 448/452/8 447/451/5 535/539/6 
f 532/536/9 514/518/17 441/445/10 535/539/6 
f 537/331/31 538/338/31 539/541/31 540/542/31 
f 540/331/32 539/338/32 336/543/32 335/544/32 
f 538/330/33 537/542/33 333/545/33 334/546/33 
f 334/330/30 333/329/30 335/331/30 336/338/30 
f 537/329/34 540/331/34 335/547/34 333/548/34 
f 539/329/35 538/331/35 334/547/35 336/548/35 
# 500 polygons - 116 triangles

