# 3ds Max Wavefront OBJ Exporter v0.99 - (c)2007 guruware
# File Created: 12.03.2026 11:57:00

mtllib Flux Ribbed Panel Configurator_OBJ.mtl

#
# object Mesh002
#

v  -832.2410 2826.5107 -879.7988
v  -832.2428 46.9484 -879.7988
v  -832.2428 46.9484 -850.0282
v  -832.2410 2826.5107 -850.0282
v  -832.2410 2826.5107 66.9188
v  -832.2428 46.9484 66.9188
v  -832.2428 46.9484 120.5055
v  -832.2410 2826.5107 120.5055
v  -832.2428 46.9484 153.2603
v  -832.2410 2826.5107 153.2603
v  -832.2410 2826.5107 123.4901
v  -832.2428 46.9484 123.4901
v  -832.2410 2826.5107 156.2449
v  -832.2428 46.9484 156.2449
v  -832.2428 46.9484 236.5825
v  -832.2410 2826.5107 236.5825
v  -832.2428 46.9484 63.9342
v  -832.2410 2826.5107 63.9342
v  -832.2410 2826.5107 -43.2389
v  -832.2428 46.9484 -43.2389
v  -832.2410 2826.5107 -847.0438
v  -832.2428 46.9484 -847.0438
v  -832.2428 46.9484 -793.4572
v  -832.2410 2826.5107 -793.4572
v  -824.5056 2798.4246 184.3312
v  -824.5056 2798.4246 208.4962
v  -824.2823 2792.6860 202.7583
v  -824.2823 2792.6860 190.0691
v  -824.2840 80.7727 190.0691
v  -824.2840 80.7727 202.7583
v  -824.5073 75.0348 208.4962
v  -824.5073 75.0348 184.3312
v  -832.2428 46.9484 -582.1000
v  -832.2410 2826.5107 -582.1000
v  -832.2410 2826.5107 -611.8703
v  -832.2428 46.9484 -611.8703
v  -832.2410 2826.5107 -162.3353
v  -832.2428 46.9484 -162.3353
v  -832.2428 46.9484 -102.7947
v  -832.2410 2826.5107 -102.7947
v  -832.2410 2826.5107 -412.3866
v  -832.2428 46.9484 -412.3866
v  -832.2428 46.9484 -281.3970
v  -832.2410 2826.5107 -281.3970
v  -832.2428 46.9484 -165.3199
v  -832.2410 2826.5107 -165.3199
v  -832.2410 2826.5107 -195.0901
v  -832.2428 46.9484 -195.0901
v  -832.2410 2826.5107 -99.8102
v  -832.2428 46.9484 -99.8102
v  -832.2428 46.9484 -46.2235
v  -832.2410 2826.5107 -46.2235
v  -832.2410 2826.5107 -278.4124
v  -832.2428 46.9484 -278.4124
v  -832.2428 46.9484 -198.0747
v  -832.2410 2826.5107 -198.0747
v  -825.1739 2804.1448 178.6104
v  -825.1757 69.3141 178.6104
v  -826.2876 63.6281 172.9245
v  -826.2859 2809.8311 172.9245
v  -826.2859 2809.8311 219.9029
v  -825.1739 2804.1448 214.2169
v  -832.2410 2826.5107 -757.7178
v  -832.2428 46.9484 -757.7178
v  -832.2428 46.9484 -698.1771
v  -832.2410 2826.5107 -698.1771
v  -832.2410 2826.5107 -468.9576
v  -832.2428 46.9484 -468.9576
v  -832.2428 46.9484 -415.3712
v  -832.2410 2826.5107 -415.3712
v  -832.2410 2826.5107 -579.1155
v  -832.2428 46.9484 -579.1155
v  -832.2428 46.9484 -471.9422
v  -832.2410 2826.5107 -471.9422
v  -824.2823 2801.6396 -137.4645
v  -824.2840 71.8192 -137.4645
v  -824.5089 67.5380 -141.7457
v  -824.5071 2805.9214 -141.7457
v  -824.5089 67.5380 -123.3843
v  -824.2840 71.8192 -127.6655
v  -825.1815 63.2802 -119.1264
v  -825.1797 2810.1785 -119.1264
v  -826.2969 2814.3894 -114.9157
v  -826.2990 59.0695 -114.9157
v  -826.2969 2814.3894 -150.2143
v  -826.2990 59.0695 -150.2143
v  -827.8542 54.9288 -154.3550
v  -827.8525 2818.5303 -154.3550
v  -829.8392 50.8811 -158.4028
v  -829.8372 2822.5779 -158.4028
v  -825.1815 63.2802 -146.0036
v  -825.1797 2810.1785 -146.0036
v  -824.5071 2805.9214 -123.3843
v  -824.2823 2801.6396 -127.6655
v  -832.2428 46.9484 -882.7832
v  -832.2410 2826.5107 -882.7832
v  -832.2410 2826.5107 -954.2321
v  -832.2428 46.9484 -954.2321
v  -832.2410 2826.5107 -695.1926
v  -832.2428 46.9484 -695.1926
v  -832.2428 46.9484 -614.8549
v  -832.2410 2826.5107 -614.8549
v  -832.2428 46.9484 -760.7023
v  -832.2410 2826.5107 -760.7023
v  -832.2410 2826.5107 -790.4727
v  -832.2428 46.9484 -790.4727
v  -832.2428 43.9639 238.0747
v  -832.2410 2829.4951 238.0747
v  -832.2428 43.9639 -955.7242
v  -832.2410 2829.4951 -955.7242
v  -825.1757 69.3141 214.2169
v  -826.2876 63.6281 219.9029
v  -829.8392 50.8811 -702.1097
v  -829.8392 50.8811 -753.7852
v  -827.8542 54.9288 -749.7375
v  -827.8542 54.9288 -706.1575
v  -827.8525 2818.5303 -706.1575
v  -826.2990 59.0695 -710.2980
v  -826.2969 2814.3894 -710.2980
v  -826.2969 2814.3894 -745.5967
v  -827.8525 2818.5303 -749.7375
v  -824.5071 2805.9214 -718.7666
v  -824.5071 2805.9214 -737.1282
v  -825.1797 2810.1785 -741.3860
v  -825.1797 2810.1785 -714.5089
v  -826.2990 59.0695 -745.5967
v  -825.1815 63.2802 -741.3860
v  -829.8372 2822.5779 -753.7852
v  -829.8372 2822.5779 -702.1097
v  -824.5089 67.5380 -737.1282
v  -824.2823 2801.6396 -732.8469
v  -824.2840 71.8192 -732.8469
v  -824.2823 2801.6396 -723.0479
v  -824.2840 71.8192 -723.0479
v  -825.1815 63.2802 -714.5089
v  -824.5089 67.5380 -718.7666
v  -825.2064 2817.6597 -870.9476
v  -825.2064 2817.6597 -858.8794
v  -824.5145 2815.1423 -861.3967
v  -824.5145 2815.1423 -868.4303
v  -824.2840 60.8761 -865.8711
v  -824.2840 60.8761 -863.9559
v  -824.5162 58.3169 -861.3967
v  -824.5162 58.3169 -868.4303
v  -825.2084 55.7995 -858.8794
v  -825.2084 55.7995 -870.9476
v  -826.3491 53.3653 -856.4452
v  -826.3491 53.3653 -873.3818
v  -824.2822 2812.5830 -863.9559
v  -826.3470 2820.0935 -873.3818
v  -827.9200 51.0539 -875.6934
v  -827.9183 2822.4053 -875.6934
v  -829.8955 48.9032 -877.8440
v  -829.8938 2824.5562 -877.8440
v  -824.2822 2812.5830 -865.8711
v  -826.3470 2820.0935 -856.4452
v  -829.8938 2824.5562 -851.9830
v  -827.9183 2822.4053 -854.1339
v  -827.9200 51.0539 -854.1339
v  -824.2840 71.8192 -822.1730
v  -824.2823 2801.6396 -822.1730
v  -824.2823 2801.6396 -818.3280
v  -824.2840 71.8192 -818.3280
v  -824.5071 2805.9214 -814.0465
v  -824.5071 2805.9214 -826.4541
v  -825.1797 2810.1785 -830.7119
v  -825.1797 2810.1785 -809.7889
v  -826.2969 2814.3894 -834.9229
v  -826.2969 2814.3894 -805.5781
v  -826.2990 59.0695 -834.9229
v  -825.1815 63.2802 -830.7119
v  -824.5089 67.5380 -826.4541
v  -824.5145 2815.1423 -772.0708
v  -824.5162 58.3169 -772.0708
v  -824.2840 60.8761 -774.6299
v  -824.2822 2812.5830 -774.6299
v  -829.8955 48.9032 -851.9830
v  -825.1815 63.2802 -809.7889
v  -826.2990 59.0695 -805.5781
v  -825.2084 55.7995 -769.5533
v  -825.2084 55.7995 -781.6216
v  -824.5162 58.3169 -779.1042
v  -827.8525 2818.5303 -801.4376
v  -827.8542 54.9288 -801.4376
v  -827.8542 54.9288 -839.0635
v  -827.8525 2818.5303 -839.0635
v  -824.5089 67.5380 -814.0465
v  -824.2840 60.8761 -776.5450
v  -824.2822 2812.5830 -776.5450
v  -824.5145 2815.1423 -779.1042
v  -829.8372 2822.5779 -797.3898
v  -829.8372 2822.5779 -843.1112
v  -825.2064 2817.6597 -781.6216
v  -826.3491 53.3653 -784.0558
v  -826.3470 2820.0935 -784.0558
v  -826.3470 2820.0935 -767.1190
v  -827.9183 2822.4053 -786.3671
v  -827.9183 2822.4053 -764.8077
v  -829.8938 2824.5562 -788.5178
v  -829.8938 2824.5562 -762.6571
v  -825.2064 2817.6597 -769.5533
v  -829.8955 48.9032 -762.6571
v  -827.9200 51.0539 -764.8077
v  -829.8392 50.8811 -843.1112
v  -826.3491 53.3653 -767.1190
v  -829.8392 50.8811 -797.3898
v  -827.9200 51.0539 -786.3671
v  -829.8955 48.9032 -788.5178
v  -827.8396 57.9938 52.8889
v  -827.8375 2815.4651 52.8889
v  -829.8246 2821.0310 58.4544
v  -829.8264 52.4283 58.4544
v  -827.8396 57.9938 -32.1936
v  -827.8375 2815.4651 -32.1936
v  -826.2859 2809.8311 -26.5594
v  -826.2876 63.6281 -26.5594
v  -829.8246 2821.0310 -37.7591
v  -829.8264 52.4283 -37.7591
v  -824.5073 75.0348 -15.1528
v  -824.5056 2798.4246 -15.1528
v  -824.2823 2792.6860 -9.4147
v  -824.2840 80.7727 -9.4147
v  -826.2876 63.6281 47.2545
v  -825.1757 69.3141 -20.8732
v  -825.1739 2804.1448 -20.8732
v  -825.1757 69.3141 41.5686
v  -826.2859 2809.8311 47.2545
v  -824.5073 75.0348 35.8479
v  -829.8938 2824.5562 125.4448
v  -829.8955 48.9032 125.4448
v  -827.9183 2822.4053 127.5956
v  -827.9200 51.0539 127.5956
v  -826.3470 2820.0935 129.9067
v  -826.3491 53.3653 129.9067
v  -829.8955 48.9032 151.3055
v  -824.2840 71.8192 91.7896
v  -824.2840 71.8192 95.6347
v  -824.5089 67.5380 99.9159
v  -824.5089 67.5380 87.5083
v  -829.8392 50.8811 70.8514
v  -829.8392 50.8811 116.5729
v  -827.8542 54.9288 112.5250
v  -827.8525 2818.5303 112.5250
v  -829.8372 2822.5779 116.5729
v  -829.8392 50.8811 -202.0073
v  -829.8372 2822.5779 -202.0073
v  -825.1797 2810.1785 83.2507
v  -825.1797 2810.1785 104.1736
v  -824.5071 2805.9214 99.9159
v  -824.5071 2805.9214 87.5083
v  -826.2990 59.0695 108.3843
v  -826.2969 2814.3894 108.3843
v  -829.8392 50.8811 -274.4798
v  -827.8542 54.9288 -270.4320
v  -827.8542 54.9288 -206.0552
v  -825.1815 63.2802 83.2507
v  -826.2990 59.0695 79.0398
v  -826.2969 2814.3894 79.0398
v  -824.2823 2801.6396 91.7896
v  -824.2823 2801.6396 95.6347
v  -825.1815 63.2802 104.1736
v  -829.8372 2822.5779 70.8514
v  -826.2990 59.0695 -266.2914
v  -826.2990 59.0695 -210.1959
v  -827.8525 2818.5303 -206.0552
v  -826.2969 2814.3894 -210.1959
v  -827.8542 54.9288 74.8993
v  -827.8525 2818.5303 74.8993
v  -824.2840 71.8192 -253.5417
v  -824.2823 2801.6396 -253.5417
v  -824.2823 2801.6396 -222.9455
v  -824.2840 71.8192 -222.9455
v  -824.5071 2805.9214 -218.6644
v  -824.5071 2805.9214 -257.8229
v  -825.1797 2810.1785 -262.0805
v  -825.1797 2810.1785 -214.4066
v  -826.2969 2814.3894 -266.2914
v  -824.5089 67.5380 -257.8229
v  -825.1815 63.2802 -262.0805
v  -827.9183 2822.4053 -419.4764
v  -827.9200 51.0539 -419.4764
v  -826.3491 53.3653 -421.7879
v  -826.3470 2820.0935 -421.7879
v  -825.1815 63.2802 -214.4066
v  -824.5089 67.5380 -218.6644
v  -827.8525 2818.5303 -270.4320
v  -829.8372 2822.5779 -274.4798
v  -829.8955 48.9032 -193.1355
v  -829.8955 48.9032 -167.2748
v  -829.8246 2821.0310 -477.4221
v  -829.8246 2821.0310 -573.6356
v  -825.1757 69.3141 -494.3079
v  -825.1757 69.3141 -556.7498
v  -824.5073 75.0348 -551.0291
v  -824.5073 75.0348 -500.0286
v  -827.8396 57.9938 -568.0701
v  -827.8375 2815.4651 -568.0701
v  -826.2859 2809.8311 -562.4359
v  -826.2876 63.6281 -562.4359
v  -829.8938 2824.5562 -167.2748
v  -829.8938 2824.5562 -193.1355
v  -827.9183 2822.4053 -190.9846
v  -827.9183 2822.4053 -169.4254
v  -826.3470 2820.0935 -171.7368
v  -826.3470 2820.0935 -188.6735
v  -825.1739 2804.1448 -556.7498
v  -824.5056 2798.4246 -551.0291
v  -824.2823 2792.6860 -545.2911
v  -824.2840 80.7727 -545.2911
v  -829.8264 52.4283 -477.4221
v  -829.8264 52.4283 -573.6356
v  -827.8396 57.9938 -482.9876
v  -824.5162 58.3169 -176.6884
v  -824.5162 58.3169 -183.7217
v  -824.2840 60.8761 -181.1626
v  -824.2840 60.8761 -179.2475
v  -827.9200 51.0539 -169.4254
v  -824.2840 80.7727 -505.7665
v  -824.2823 2792.6860 -505.7665
v  -824.5056 2798.4246 -500.0286
v  -825.2064 2817.6597 -186.2392
v  -825.2084 55.7995 -186.2392
v  -826.3491 53.3653 -188.6735
v  -825.1739 2804.1448 -494.3079
v  -826.2859 2809.8311 -488.6218
v  -826.2876 63.6281 -488.6218
v  -827.8375 2815.4651 -482.9876
v  -825.2084 55.7995 -174.1710
v  -824.5145 2815.1423 -183.7217
v  -826.3491 53.3653 -171.7368
v  -827.9200 51.0539 -190.9846
v  -824.2822 2812.5830 -181.1626
v  -826.2876 63.6281 -395.7068
v  -826.2859 2809.8311 -395.7068
v  -825.1739 2804.1448 -390.0208
v  -825.1757 69.3141 -390.0208
v  -829.8955 48.9032 -609.9156
v  -829.8955 48.9032 -584.0547
v  -826.3470 2820.0935 -605.4536
v  -826.3491 53.3653 -605.4536
v  -827.9200 51.0539 -607.7648
v  -827.9183 2822.4053 -607.7648
v  -826.3491 53.3653 -588.5169
v  -826.3470 2820.0935 -588.5169
v  -827.9183 2822.4053 -586.2054
v  -827.9200 51.0539 -586.2054
v  -829.8938 2824.5562 -609.9156
v  -824.5056 2798.4246 -309.4833
v  -824.5073 75.0348 -309.4833
v  -824.2840 80.7727 -315.2212
v  -824.2823 2792.6860 -315.2212
v  -824.2822 2812.5830 -597.9427
v  -824.2840 60.8761 -597.9427
v  -824.5162 58.3169 -600.5019
v  -824.5145 2815.1423 -600.5019
v  -826.2859 2809.8311 -298.0767
v  -827.8375 2815.4651 -401.3412
v  -827.8375 2815.4651 -292.4424
v  -824.5162 58.3169 -593.4685
v  -824.2840 60.8761 -596.0276
v  -825.2064 2817.6597 -603.0192
v  -825.2084 55.7995 -603.0192
v  -825.1757 69.3141 -303.7627
v  -824.5073 75.0348 -384.3003
v  -829.8246 2821.0310 -406.9066
v  -829.8246 2821.0310 -286.8768
v  -825.2084 55.7995 -590.9511
v  -824.2840 80.7727 -378.5623
v  -824.2823 2792.6860 -378.5623
v  -829.8938 2824.5562 -584.0547
v  -829.8246 2821.0310 -620.3347
v  -829.8264 52.4283 -620.3347
v  -827.8396 57.9938 -625.9002
v  -827.8375 2815.4651 -625.9002
v  -824.2822 2812.5830 -596.0276
v  -825.2064 2817.6597 -590.9511
v  -824.5056 2798.4246 -384.3003
v  -824.5145 2815.1423 -593.4685
v  -825.1739 2804.1448 -303.7627
v  -826.2876 63.6281 -298.0767
v  -826.2876 63.6281 -631.5344
v  -826.2859 2809.8311 -631.5344
v  -827.8396 57.9938 -292.4424
v  -827.8396 57.9938 -401.3412
v  -829.8264 52.4283 -286.8768
v  -829.8264 52.4283 -406.9066
v  -827.8525 2818.5303 -110.7749
v  -827.8542 54.9288 -110.7749
v  -829.8372 2822.5779 -106.7273
v  -829.8392 50.8811 -106.7273
v  -824.2840 71.8192 -74.9393
v  -824.2823 2801.6396 -74.9393
v  -824.2823 2801.6396 -71.0943
v  -824.2840 71.8192 -71.0943
v  -824.5071 2805.9214 -79.2207
v  -824.5071 2805.9214 -66.8129
v  -825.1797 2810.1785 -62.5554
v  -825.1797 2810.1785 -83.4783
v  -826.2969 2814.3894 -87.6892
v  -826.2969 2814.3894 -58.3445
v  -824.5089 67.5380 -66.8129
v  -824.5089 67.5380 -79.2207
v  -825.1815 63.2802 -62.5554
v  -825.1815 63.2802 -83.4783
v  -826.2990 59.0695 -58.3445
v  -826.2990 59.0695 -87.6892
v  -829.8955 48.9032 -467.0029
v  -829.8938 2824.5562 -467.0029
v  -827.9183 2822.4053 -464.8524
v  -827.9200 51.0539 -464.8524
v  -826.3470 2820.0935 -462.5409
v  -826.3491 53.3653 -462.5409
v  -829.8955 48.9032 -417.3259
v  -829.8938 2824.5562 -417.3259
v  -824.2840 60.8761 -455.0301
v  -824.2822 2812.5830 -455.0301
v  -824.2822 2812.5830 -429.2987
v  -824.2840 60.8761 -429.2987
v  -824.2823 2792.6860 -648.6791
v  -824.2823 2792.6860 -661.3683
v  -824.5056 2798.4246 -667.1062
v  -824.5056 2798.4246 -642.9412
v  -825.1739 2804.1448 -637.2205
v  -825.1739 2804.1448 -672.8268
v  -826.2859 2809.8311 -678.5129
v  -826.2876 63.6281 -678.5129
v  -825.1757 69.3141 -672.8268
v  -825.1757 69.3141 -637.2205
v  -824.5073 75.0348 -642.9412
v  -827.8375 2815.4651 -684.1472
v  -827.8396 57.9938 -684.1472
v  -825.2084 55.7995 -460.1066
v  -825.2064 2817.6597 -460.1066
v  -824.5145 2815.1423 -457.5892
v  -824.5162 58.3169 -457.5892
v  -825.2084 55.7995 -424.2221
v  -824.5162 58.3169 -426.7396
v  -825.2064 2817.6597 -424.2221
v  -824.5145 2815.1423 -426.7396
v  -824.5073 75.0348 -667.1062
v  -829.8246 2821.0310 -689.7126
v  -824.2840 80.7727 -661.3683
v  -824.2840 80.7727 -648.6791
v  -829.8264 52.4283 -689.7126
v  -824.5162 58.3169 134.8585
v  -824.5162 58.3169 141.8918
v  -825.2084 55.7995 144.4092
v  -825.2084 55.7995 132.3410
v  -824.2822 2812.5830 139.3327
v  -824.2822 2812.5830 137.4177
v  -824.5145 2815.1423 134.8585
v  -824.5145 2815.1423 141.8918
v  -825.2064 2817.6597 132.3410
v  -824.2840 60.8761 137.4177
v  -826.3470 2820.0935 146.8434
v  -827.9183 2822.4053 149.1548
v  -829.8938 2824.5562 151.3055
v  -825.2064 2817.6597 144.4092
v  -826.3491 53.3653 146.8434
v  -824.2840 60.8761 139.3327
v  -824.2840 80.7727 30.1100
v  -824.2822 2812.5830 -179.2475
v  -824.5145 2815.1423 -176.6884
v  -827.9200 51.0539 149.1548
v  -829.8392 50.8811 -50.1561
v  -829.8372 2822.5779 -50.1561
v  -827.8525 2818.5303 -54.2039
v  -827.8542 54.9288 -54.2039
v  -825.2064 2817.6597 -174.1710
v  -829.8372 2822.5779 -95.8775
v  -829.8392 50.8811 -95.8775
v  -827.8525 2818.5303 -91.8297
v  -827.8542 54.9288 -91.8297
v  -824.2823 2792.6860 30.1100
v  -824.5056 2798.4246 35.8479
v  -825.1739 2804.1448 41.5686
v  -824.2840 80.7727 -920.4077
v  -824.2840 80.7727 -916.6075
v  -824.5073 75.0348 -910.8695
v  -824.5073 75.0348 -926.1458
v  -825.1739 2804.1448 -931.8662
v  -825.1739 2804.1448 -905.1488
v  -824.5056 2798.4246 -910.8695
v  -824.5056 2798.4246 -926.1458
v  -826.2859 2809.8311 -937.5524
v  -826.2859 2809.8311 -899.4628
v  -824.2823 2792.6860 -916.6075
v  -824.2823 2792.6860 -920.4077
v  -829.8264 52.4283 -888.2631
v  -829.8246 2821.0310 -888.2631
v  -827.8396 57.9938 -893.8285
v  -827.8375 2815.4651 -893.8285
v  -829.8246 2821.0310 -948.7521
v  -829.8264 52.4283 -948.7521
v  -827.8396 57.9938 -943.1866
v  -827.8375 2815.4651 -943.1866
v  -826.2876 63.6281 -937.5524
v  -825.1757 69.3141 -905.1488
v  -825.1757 69.3141 -931.8662
v  -826.2876 63.6281 -899.4628
v  -829.8246 2821.0310 161.7247
v  -829.8264 52.4283 161.7247
v  -829.8246 2821.0310 231.1027
v  -829.8264 52.4283 231.1027
v  -827.8375 2815.4651 167.2903
v  -827.8396 57.9938 167.2903
v  -827.8375 2815.4651 225.5371
v  -827.8396 57.9938 225.5371
v  -836.2204 2829.9614 -955.7242
v  -836.2222 43.9639 -955.7242
v  -836.2222 43.9639 238.0747
v  -836.2204 2829.9614 238.0747
v  -832.2410 2829.9614 238.0747
v  -832.2410 2829.9614 -955.7242
# 514 vertices

vn -1.0000 0.0000 -0.0000
vn 0.9976 0.0485 -0.0485
vn 0.9976 0.0485 0.0485
vn 0.9998 0.0146 0.0146
vn 0.9998 0.0146 -0.0146
vn 0.9998 -0.0146 -0.0146
vn 0.9998 -0.0146 0.0146
vn 0.9976 -0.0485 0.0485
vn 0.9976 -0.0485 -0.0485
vn 0.9924 0.0871 -0.0871
vn 0.9924 -0.0871 -0.0871
vn 0.9841 -0.1254 -0.1254
vn 0.9841 0.1254 -0.1254
vn 0.9841 0.1254 0.1254
vn 0.9924 0.0871 0.0871
vn 0.9996 0.0197 -0.0197
vn 0.9996 -0.0197 -0.0197
vn 0.9957 -0.0654 -0.0654
vn 0.9957 0.0654 -0.0654
vn 0.9957 -0.0654 0.0654
vn 0.9996 -0.0197 0.0197
vn 0.9862 -0.1172 0.1172
vn 0.9862 0.1172 0.1172
vn 0.9712 0.1683 0.1684
vn 0.9712 -0.1683 0.1683
vn 0.9712 0.1683 -0.1684
vn 0.9712 -0.1683 -0.1683
vn 0.9511 -0.2184 -0.2184
vn 0.9511 0.2184 -0.2184
vn 0.9258 -0.2673 -0.2673
vn 0.9258 0.2673 -0.2673
vn 0.9179 -0.2805 -0.2805
vn 0.9179 0.2805 -0.2805
vn 0.9862 -0.1172 -0.1172
vn 0.9862 0.1172 -0.1172
vn 0.9957 0.0654 0.0654
vn 0.9996 0.0197 0.0197
vn 1.0000 -0.0000 -0.0000
vn 0.9924 -0.0871 0.0871
vn 0.9841 -0.1254 0.1254
vn 0.9258 -0.2673 0.2673
vn 0.9511 -0.2184 0.2184
vn 0.9511 0.2184 0.2184
vn 0.9258 0.2673 0.2673
vn 0.9179 0.2805 0.2805
vn 0.9179 -0.2805 0.2805
vn 0.9593 0.1997 -0.1996
vn 0.9593 0.1997 0.1996
vn 0.9873 0.1122 0.1122
vn 0.9873 0.1122 -0.1122
vn 0.9988 -0.0339 -0.0339
vn 0.9988 -0.0339 0.0339
vn 0.9873 -0.1123 0.1123
vn 0.9873 -0.1123 -0.1123
vn 0.9593 -0.1996 0.1996
vn 0.9593 -0.1996 -0.1996
vn 0.9161 -0.2835 0.2835
vn 0.9161 -0.2835 -0.2835
vn 0.9988 0.0339 0.0339
vn 0.9161 0.2835 -0.2835
vn 0.8585 -0.3626 -0.3626
vn 0.8585 0.3626 -0.3626
vn 0.7876 -0.4357 -0.4357
vn 0.7876 0.4357 -0.4357
vn 0.9988 0.0339 -0.0339
vn 0.9161 0.2835 0.2836
vn 0.7623 -0.4577 -0.4577
vn 0.7623 0.4577 -0.4577
vn 0.7623 0.4577 0.4577
vn 0.7876 0.4357 0.4357
vn 0.8585 0.3626 0.3626
vn 0.8585 -0.3626 0.3626
vn 0.9988 -0.0339 0.0340
vn 0.9988 0.0339 0.0340
vn 0.7876 -0.4357 0.4357
vn 0.7623 -0.4577 0.4577
vn 0.9161 0.2835 -0.2836
vn 0.9161 0.2835 0.2835
vn 0.9730 -0.1633 0.1633
vn 0.9730 0.1633 0.1633
vn 0.9589 0.2007 0.2007
vn 0.9589 -0.2007 0.2007
vn 0.9730 -0.1633 -0.1633
vn 0.9730 0.1633 -0.1633
vn 0.9547 0.2105 0.2105
vn 0.9547 -0.2105 0.2105
vn 0.9547 -0.2105 -0.2105
vn 0.9547 0.2105 -0.2105
vn 0.9589 0.2007 -0.2007
vn 0.9589 -0.2007 -0.2007
vn 0.9988 -0.0339 -0.0340
vn 0.9988 0.0339 -0.0340
vn 0.0000 0.0000 1.0000
vn 0.0000 1.0000 -0.0000
vn 0.0000 -0.0000 -1.0000
vn -0.0000 -1.0000 0.0000
# 96 vertex normals

vt 0.9364 0.0012 0.0000
vt 0.9364 0.9989 0.0000
vt 0.9115 0.9989 0.0000
vt 0.9115 0.0012 0.0000
vt 0.1434 0.0012 0.0000
vt 0.1434 0.9989 0.0000
vt 0.0985 0.9989 0.0000
vt 0.0985 0.0012 0.0000
vt 0.0710 0.9989 0.0000
vt 0.0710 0.0012 0.0000
vt 0.0960 0.0012 0.0000
vt 0.0960 0.9989 0.0000
vt 0.0685 0.0012 0.0000
vt 0.0685 0.9989 0.0000
vt 0.0012 0.9989 0.0000
vt 0.0012 0.0012 0.0000
vt 0.1459 0.9989 0.0000
vt 0.1459 0.0012 0.0000
vt 0.2356 0.0012 0.0000
vt 0.2356 0.9989 0.0000
vt 0.9090 0.0012 0.0000
vt 0.9090 0.9989 0.0000
vt 0.8641 0.9989 0.0000
vt 0.8641 0.0012 0.0000
vt 0.9550 0.0113 0.0000
vt 0.9752 0.0113 0.0000
vt 0.9704 0.0134 0.0000
vt 0.9598 0.0134 0.0000
vt 0.9598 0.9868 0.0000
vt 0.9704 0.9868 0.0000
vt 0.9752 0.9888 0.0000
vt 0.9550 0.9888 0.0000
vt 0.6870 0.9989 0.0000
vt 0.6870 0.0012 0.0000
vt 0.7120 0.0012 0.0000
vt 0.7120 0.9989 0.0000
vt 0.3354 0.0012 0.0000
vt 0.3354 0.9989 0.0000
vt 0.2855 0.9989 0.0000
vt 0.2855 0.0012 0.0000
vt 0.5449 0.0012 0.0000
vt 0.5449 0.9989 0.0000
vt 0.4351 0.9989 0.0000
vt 0.4351 0.0012 0.0000
vt 0.3379 0.9989 0.0000
vt 0.3379 0.0012 0.0000
vt 0.3628 0.0012 0.0000
vt 0.3628 0.9989 0.0000
vt 0.2830 0.0012 0.0000
vt 0.2830 0.9989 0.0000
vt 0.2381 0.9989 0.0000
vt 0.2381 0.0012 0.0000
vt 0.4326 0.0012 0.0000
vt 0.4326 0.9989 0.0000
vt 0.3653 0.9989 0.0000
vt 0.3653 0.0012 0.0000
vt 0.9502 0.0093 0.0000
vt 0.9502 0.9909 0.0000
vt 0.9454 0.9929 0.0000
vt 0.9454 0.0072 0.0000
vt 0.9848 0.0072 0.0000
vt 0.9800 0.0093 0.0000
vt 0.8341 0.0012 0.0000
vt 0.8341 0.9989 0.0000
vt 0.7843 0.9989 0.0000
vt 0.7843 0.0012 0.0000
vt 0.5923 0.0012 0.0000
vt 0.5923 0.9989 0.0000
vt 0.5474 0.9989 0.0000
vt 0.5474 0.0012 0.0000
vt 0.6845 0.0012 0.0000
vt 0.6845 0.9989 0.0000
vt 0.5948 0.9989 0.0000
vt 0.5948 0.0012 0.0000
vt 0.6854 0.0102 0.0000
vt 0.6854 0.9900 0.0000
vt 0.6818 0.9915 0.0000
vt 0.6818 0.0086 0.0000
vt 0.6972 0.9915 0.0000
vt 0.6936 0.9900 0.0000
vt 0.7008 0.9931 0.0000
vt 0.7008 0.0071 0.0000
vt 0.7043 0.0056 0.0000
vt 0.7043 0.9946 0.0000
vt 0.6747 0.0056 0.0000
vt 0.6747 0.9946 0.0000
vt 0.6713 0.9961 0.0000
vt 0.6713 0.0041 0.0000
vt 0.6679 0.9975 0.0000
vt 0.6679 0.0027 0.0000
vt 0.6646 0.9989 0.0000
vt 0.6646 0.0012 0.0000
vt 0.6783 0.9931 0.0000
vt 0.6783 0.0071 0.0000
vt 0.6972 0.0086 0.0000
vt 0.6936 0.0102 0.0000
vt 0.9389 0.9989 0.0000
vt 0.9389 0.0012 0.0000
vt 0.9988 0.0012 0.0000
vt 0.9988 0.9989 0.0000
vt 0.7818 0.0012 0.0000
vt 0.7818 0.9989 0.0000
vt 0.7145 0.9989 0.0000
vt 0.7145 0.0012 0.0000
vt 0.8366 0.9989 0.0000
vt 0.8366 0.0012 0.0000
vt 0.8616 0.0012 0.0000
vt 0.8616 0.9989 0.0000
vt 1.0000 1.0000 0.0000
vt 0.9987 0.9989 0.0000
vt 1.0000 0.0002 0.0000
vt 0.0000 1.0000 0.0000
vt 0.9315 0.9989 0.0000
vt 0.9290 0.9989 0.0000
vt 0.9315 0.0012 0.0000
vt 0.9040 0.9989 0.0000
vt 0.9015 0.9989 0.0000
vt 0.9040 0.0012 0.0000
vt 0.8566 0.9989 0.0000
vt 0.8541 0.9989 0.0000
vt 0.8566 0.0012 0.0000
vt 0.7644 0.9989 0.0000
vt 0.7619 0.9989 0.0000
vt 0.7644 0.0012 0.0000
vt 0.7170 0.9989 0.0000
vt 0.7170 0.0012 0.0000
vt 0.6621 0.9989 0.0000
vt 0.6372 0.9989 0.0000
vt 0.6347 0.9989 0.0000
vt 0.6372 0.0012 0.0000
vt 0.5674 0.9989 0.0000
vt 0.5649 0.9989 0.0000
vt 0.5674 0.0012 0.0000
vt 0.4551 0.9989 0.0000
vt 0.4526 0.9989 0.0000
vt 0.4551 0.0012 0.0000
vt 0.4077 0.9989 0.0000
vt 0.4052 0.9989 0.0000
vt 0.4077 0.0012 0.0000
vt 0.3155 0.9989 0.0000
vt 0.3130 0.9989 0.0000
vt 0.3155 0.0012 0.0000
vt 0.2880 0.9989 0.0000
vt 0.2880 0.0012 0.0000
vt 0.2182 0.9989 0.0000
vt 0.2157 0.9989 0.0000
vt 0.2182 0.0012 0.0000
vt 0.1659 0.9989 0.0000
vt 0.1634 0.9989 0.0000
vt 0.1659 0.0012 0.0000
vt 0.1384 0.9989 0.0000
vt 0.1359 0.9989 0.0000
vt 0.1384 0.0012 0.0000
vt 0.0910 0.9989 0.0000
vt 0.0885 0.9989 0.0000
vt 0.0910 0.0012 0.0000
vt 0.0636 0.9989 0.0000
vt 0.0611 0.9989 0.0000
vt 0.0636 0.0012 0.0000
vt 0.9987 0.0012 0.0000
vt 0.0000 0.0002 0.0000
vt 0.9290 0.0012 0.0000
vt 0.9015 0.0012 0.0000
vt 0.8541 0.0012 0.0000
vt 0.7619 0.0012 0.0000
vt 0.6621 0.0012 0.0000
vt 0.6347 0.0012 0.0000
vt 0.5649 0.0012 0.0000
vt 0.4526 0.0012 0.0000
vt 0.4052 0.0012 0.0000
vt 0.3130 0.0012 0.0000
vt 0.2157 0.0012 0.0000
vt 0.1634 0.0012 0.0000
vt 0.1359 0.0012 0.0000
vt 0.0885 0.0012 0.0000
vt 0.0611 0.0012 0.0000
vt 0.9800 0.9909 0.0000
vt 0.9848 0.9929 0.0000
vt 0.2124 0.9975 0.0000
vt 0.1692 0.9975 0.0000
vt 0.1725 0.9961 0.0000
vt 0.2091 0.9961 0.0000
vt 0.2091 0.0041 0.0000
vt 0.2056 0.9946 0.0000
vt 0.2056 0.0056 0.0000
vt 0.1760 0.0056 0.0000
vt 0.1725 0.0041 0.0000
vt 0.1985 0.0086 0.0000
vt 0.1831 0.0086 0.0000
vt 0.1795 0.0071 0.0000
vt 0.2021 0.0071 0.0000
vt 0.1760 0.9946 0.0000
vt 0.1795 0.9931 0.0000
vt 0.1692 0.0027 0.0000
vt 0.2124 0.0027 0.0000
vt 0.1831 0.9915 0.0000
vt 0.1867 0.0102 0.0000
vt 0.1867 0.9900 0.0000
vt 0.1949 0.0102 0.0000
vt 0.1949 0.9900 0.0000
vt 0.2021 0.9931 0.0000
vt 0.1985 0.9915 0.0000
vt 0.0710 0.0044 0.0000
vt 0.0811 0.0044 0.0000
vt 0.0790 0.0053 0.0000
vt 0.0731 0.0053 0.0000
vt 0.0753 0.9939 0.0000
vt 0.0769 0.9939 0.0000
vt 0.0790 0.9948 0.0000
vt 0.0731 0.9948 0.0000
vt 0.0811 0.9958 0.0000
vt 0.0710 0.9958 0.0000
vt 0.0832 0.9966 0.0000
vt 0.0690 0.9966 0.0000
vt 0.0769 0.0062 0.0000
vt 0.0690 0.0035 0.0000
vt 0.0670 0.9975 0.0000
vt 0.0670 0.0027 0.0000
vt 0.0652 0.9982 0.0000
vt 0.0652 0.0019 0.0000
vt 0.0753 0.0062 0.0000
vt 0.0832 0.0035 0.0000
vt 0.0869 0.0019 0.0000
vt 0.0851 0.0027 0.0000
vt 0.0851 0.9975 0.0000
vt 0.1119 0.9900 0.0000
vt 0.1119 0.0102 0.0000
vt 0.1151 0.0102 0.0000
vt 0.1151 0.9900 0.0000
vt 0.1187 0.0086 0.0000
vt 0.1083 0.0086 0.0000
vt 0.1047 0.0071 0.0000
vt 0.1222 0.0071 0.0000
vt 0.1012 0.0056 0.0000
vt 0.1258 0.0056 0.0000
vt 0.1012 0.9946 0.0000
vt 0.1047 0.9931 0.0000
vt 0.1083 0.9915 0.0000
vt 0.1538 0.0053 0.0000
vt 0.1538 0.9948 0.0000
vt 0.1517 0.9939 0.0000
vt 0.1517 0.0062 0.0000
vt 0.0869 0.9982 0.0000
vt 0.1222 0.9931 0.0000
vt 0.1258 0.9946 0.0000
vt 0.1559 0.9958 0.0000
vt 0.1458 0.9958 0.0000
vt 0.1479 0.9948 0.0000
vt 0.1292 0.0041 0.0000
vt 0.1292 0.9961 0.0000
vt 0.0977 0.9961 0.0000
vt 0.0977 0.0041 0.0000
vt 0.1187 0.9915 0.0000
vt 0.1501 0.9939 0.0000
vt 0.1501 0.0062 0.0000
vt 0.1479 0.0053 0.0000
vt 0.1326 0.0027 0.0000
vt 0.0943 0.0027 0.0000
vt 0.1458 0.0044 0.0000
vt 0.1438 0.9966 0.0000
vt 0.1438 0.0035 0.0000
vt 0.1580 0.0035 0.0000
vt 0.1419 0.0027 0.0000
vt 0.1599 0.0027 0.0000
vt 0.1401 0.0019 0.0000
vt 0.1617 0.0019 0.0000
vt 0.1559 0.0044 0.0000
vt 0.1617 0.9982 0.0000
vt 0.1599 0.9975 0.0000
vt 0.0943 0.9975 0.0000
vt 0.1580 0.9966 0.0000
vt 0.1326 0.9975 0.0000
vt 0.1419 0.9975 0.0000
vt 0.1401 0.9982 0.0000
vt 0.8449 0.9950 0.0000
vt 0.8449 0.0052 0.0000
vt 0.8495 0.0032 0.0000
vt 0.8495 0.9970 0.0000
vt 0.7736 0.9950 0.0000
vt 0.7736 0.0052 0.0000
vt 0.7783 0.0072 0.0000
vt 0.7783 0.9929 0.0000
vt 0.7689 0.0032 0.0000
vt 0.7689 0.9970 0.0000
vt 0.7879 0.9888 0.0000
vt 0.7879 0.0113 0.0000
vt 0.7927 0.0134 0.0000
vt 0.7927 0.9868 0.0000
vt 0.8402 0.9929 0.0000
vt 0.7831 0.9909 0.0000
vt 0.7831 0.0093 0.0000
vt 0.8354 0.9909 0.0000
vt 0.8402 0.0072 0.0000
vt 0.8306 0.9888 0.0000
vt 0.9057 0.0019 0.0000
vt 0.9057 0.9982 0.0000
vt 0.9075 0.0027 0.0000
vt 0.9075 0.9975 0.0000
vt 0.9094 0.0035 0.0000
vt 0.9094 0.9966 0.0000
vt 0.9273 0.9982 0.0000
vt 0.8775 0.9900 0.0000
vt 0.8807 0.9900 0.0000
vt 0.8843 0.9915 0.0000
vt 0.8739 0.9915 0.0000
vt 0.8599 0.9975 0.0000
vt 0.8982 0.9975 0.0000
vt 0.8948 0.9961 0.0000
vt 0.8948 0.0041 0.0000
vt 0.8982 0.0027 0.0000
vt 0.6314 0.9975 0.0000
vt 0.6314 0.0027 0.0000
vt 0.8703 0.0071 0.0000
vt 0.8878 0.0071 0.0000
vt 0.8843 0.0086 0.0000
vt 0.8739 0.0086 0.0000
vt 0.8914 0.9946 0.0000
vt 0.8914 0.0056 0.0000
vt 0.5707 0.9975 0.0000
vt 0.5740 0.9961 0.0000
vt 0.6280 0.9961 0.0000
vt 0.8703 0.9931 0.0000
vt 0.8668 0.9946 0.0000
vt 0.8668 0.0056 0.0000
vt 0.8775 0.0102 0.0000
vt 0.8807 0.0102 0.0000
vt 0.8878 0.9931 0.0000
vt 0.8599 0.0027 0.0000
vt 0.5775 0.9946 0.0000
vt 0.6245 0.9946 0.0000
vt 0.6280 0.0041 0.0000
vt 0.6245 0.0056 0.0000
vt 0.8633 0.9961 0.0000
vt 0.8633 0.0041 0.0000
vt 0.5882 0.9900 0.0000
vt 0.5882 0.0102 0.0000
vt 0.6138 0.0102 0.0000
vt 0.6138 0.9900 0.0000
vt 0.6174 0.0086 0.0000
vt 0.5846 0.0086 0.0000
vt 0.5810 0.0071 0.0000
vt 0.6210 0.0071 0.0000
vt 0.5775 0.0056 0.0000
vt 0.5846 0.9915 0.0000
vt 0.5810 0.9931 0.0000
vt 0.4492 0.0027 0.0000
vt 0.4492 0.9975 0.0000
vt 0.4473 0.9966 0.0000
vt 0.4473 0.0035 0.0000
vt 0.6210 0.9931 0.0000
vt 0.6174 0.9915 0.0000
vt 0.5740 0.0041 0.0000
vt 0.5707 0.0027 0.0000
vt 0.6388 0.9982 0.0000
vt 0.6605 0.9982 0.0000
vt 0.4007 0.0032 0.0000
vt 0.3201 0.0032 0.0000
vt 0.3865 0.9909 0.0000
vt 0.3342 0.9909 0.0000
vt 0.3390 0.9888 0.0000
vt 0.3817 0.9888 0.0000
vt 0.3247 0.9950 0.0000
vt 0.3247 0.0052 0.0000
vt 0.3294 0.0072 0.0000
vt 0.3294 0.9929 0.0000
vt 0.6605 0.0019 0.0000
vt 0.6388 0.0019 0.0000
vt 0.6406 0.0027 0.0000
vt 0.6587 0.0027 0.0000
vt 0.6567 0.0035 0.0000
vt 0.6425 0.0035 0.0000
vt 0.3342 0.0093 0.0000
vt 0.3390 0.0113 0.0000
vt 0.3438 0.0134 0.0000
vt 0.3438 0.9868 0.0000
vt 0.4007 0.9970 0.0000
vt 0.3201 0.9970 0.0000
vt 0.3960 0.9950 0.0000
vt 0.6526 0.9948 0.0000
vt 0.6467 0.9948 0.0000
vt 0.6488 0.9939 0.0000
vt 0.6504 0.9939 0.0000
vt 0.6587 0.9975 0.0000
vt 0.3769 0.9868 0.0000
vt 0.3769 0.0134 0.0000
vt 0.3817 0.0113 0.0000
vt 0.6446 0.0044 0.0000
vt 0.6446 0.9958 0.0000
vt 0.6425 0.9966 0.0000
vt 0.3865 0.0093 0.0000
vt 0.3913 0.0072 0.0000
vt 0.3913 0.9929 0.0000
vt 0.3960 0.0052 0.0000
vt 0.6547 0.9958 0.0000
vt 0.6467 0.0053 0.0000
vt 0.6567 0.9966 0.0000
vt 0.6406 0.9975 0.0000
vt 0.6488 0.0062 0.0000
vt 0.4691 0.9929 0.0000
vt 0.4691 0.0072 0.0000
vt 0.4739 0.0093 0.0000
vt 0.4739 0.9909 0.0000
vt 0.2897 0.9982 0.0000
vt 0.3113 0.9982 0.0000
vt 0.2934 0.0035 0.0000
vt 0.2934 0.9966 0.0000
vt 0.2915 0.9975 0.0000
vt 0.2915 0.0027 0.0000
vt 0.3076 0.9966 0.0000
vt 0.3076 0.0035 0.0000
vt 0.3095 0.0027 0.0000
vt 0.3095 0.9975 0.0000
vt 0.2897 0.0019 0.0000
vt 0.5413 0.0113 0.0000
vt 0.5413 0.9888 0.0000
vt 0.5365 0.9868 0.0000
vt 0.5365 0.0134 0.0000
vt 0.2997 0.0062 0.0000
vt 0.2997 0.9939 0.0000
vt 0.2976 0.9948 0.0000
vt 0.2976 0.0053 0.0000
vt 0.5509 0.0072 0.0000
vt 0.4644 0.0052 0.0000
vt 0.5556 0.0052 0.0000
vt 0.3034 0.9948 0.0000
vt 0.3013 0.9939 0.0000
vt 0.2954 0.0044 0.0000
vt 0.2954 0.9958 0.0000
vt 0.5461 0.9909 0.0000
vt 0.4787 0.9888 0.0000
vt 0.4597 0.0032 0.0000
vt 0.5603 0.0032 0.0000
vt 0.3056 0.9958 0.0000
vt 0.4835 0.9868 0.0000
vt 0.4835 0.0134 0.0000
vt 0.3113 0.0019 0.0000
vt 0.2809 0.0032 0.0000
vt 0.2809 0.9970 0.0000
vt 0.2763 0.9950 0.0000
vt 0.2763 0.0052 0.0000
vt 0.3013 0.0062 0.0000
vt 0.3056 0.0044 0.0000
vt 0.4787 0.0113 0.0000
vt 0.3034 0.0053 0.0000
vt 0.5461 0.0093 0.0000
vt 0.5509 0.9929 0.0000
vt 0.2716 0.9929 0.0000
vt 0.2716 0.0072 0.0000
vt 0.5556 0.9950 0.0000
vt 0.4644 0.9950 0.0000
vt 0.5603 0.9970 0.0000
vt 0.4597 0.9970 0.0000
vt 0.7078 0.0041 0.0000
vt 0.7078 0.9961 0.0000
vt 0.7112 0.0027 0.0000
vt 0.7112 0.9975 0.0000
vt 0.7378 0.9900 0.0000
vt 0.7378 0.0102 0.0000
vt 0.7410 0.0102 0.0000
vt 0.7410 0.9900 0.0000
vt 0.7342 0.0086 0.0000
vt 0.7446 0.0086 0.0000
vt 0.7482 0.0071 0.0000
vt 0.7306 0.0071 0.0000
vt 0.7271 0.0056 0.0000
vt 0.7517 0.0056 0.0000
vt 0.7446 0.9915 0.0000
vt 0.7342 0.9915 0.0000
vt 0.7482 0.9931 0.0000
vt 0.7306 0.9931 0.0000
vt 0.7517 0.9946 0.0000
vt 0.7271 0.9946 0.0000
vt 0.4094 0.9982 0.0000
vt 0.4094 0.0019 0.0000
vt 0.4112 0.0027 0.0000
vt 0.4112 0.9975 0.0000
vt 0.4131 0.0035 0.0000
vt 0.4131 0.9966 0.0000
vt 0.4510 0.9982 0.0000
vt 0.4510 0.0019 0.0000
vt 0.4194 0.9939 0.0000
vt 0.4194 0.0062 0.0000
vt 0.4410 0.0062 0.0000
vt 0.4410 0.9939 0.0000
vt 0.2572 0.0134 0.0000
vt 0.2466 0.0134 0.0000
vt 0.2418 0.0113 0.0000
vt 0.2620 0.0113 0.0000
vt 0.2668 0.0093 0.0000
vt 0.2370 0.0093 0.0000
vt 0.2322 0.0072 0.0000
vt 0.2322 0.9929 0.0000
vt 0.2370 0.9909 0.0000
vt 0.2668 0.9909 0.0000
vt 0.2620 0.9888 0.0000
vt 0.2275 0.0052 0.0000
vt 0.2275 0.9950 0.0000
vt 0.4152 0.9958 0.0000
vt 0.4152 0.0044 0.0000
vt 0.4173 0.0053 0.0000
vt 0.4173 0.9948 0.0000
vt 0.4452 0.9958 0.0000
vt 0.4431 0.9948 0.0000
vt 0.4452 0.0044 0.0000
vt 0.4431 0.0053 0.0000
vt 0.2418 0.9888 0.0000
vt 0.2228 0.0032 0.0000
vt 0.2466 0.9868 0.0000
vt 0.2572 0.9868 0.0000
vt 0.2228 0.9970 0.0000
vt 0.9135 0.9948 0.0000
vt 0.9194 0.9948 0.0000
vt 0.9215 0.9958 0.0000
vt 0.9114 0.9958 0.0000
vt 0.9173 0.0062 0.0000
vt 0.9157 0.0062 0.0000
vt 0.9135 0.0053 0.0000
vt 0.9194 0.0053 0.0000
vt 0.9114 0.0044 0.0000
vt 0.9157 0.9939 0.0000
vt 0.9236 0.0035 0.0000
vt 0.9255 0.0027 0.0000
vt 0.9273 0.0019 0.0000
vt 0.9215 0.0044 0.0000
vt 0.9236 0.9966 0.0000
vt 0.9173 0.9939 0.0000
vt 0.8258 0.9868 0.0000
vt 0.6504 0.0062 0.0000
vt 0.6526 0.0053 0.0000
vt 0.9255 0.9975 0.0000
vt 0.7586 0.9975 0.0000
vt 0.7586 0.0027 0.0000
vt 0.7552 0.0041 0.0000
vt 0.7552 0.9961 0.0000
vt 0.6547 0.0044 0.0000
vt 0.7203 0.0027 0.0000
vt 0.7203 0.9975 0.0000
vt 0.7237 0.0041 0.0000
vt 0.7237 0.9961 0.0000
vt 0.8258 0.0134 0.0000
vt 0.8306 0.0113 0.0000
vt 0.8354 0.0093 0.0000
vt 0.0296 0.9868 0.0000
vt 0.0328 0.9868 0.0000
vt 0.0376 0.9888 0.0000
vt 0.0248 0.9888 0.0000
vt 0.0200 0.0093 0.0000
vt 0.0424 0.0093 0.0000
vt 0.0376 0.0113 0.0000
vt 0.0248 0.0113 0.0000
vt 0.0152 0.0072 0.0000
vt 0.0471 0.0072 0.0000
vt 0.0328 0.0134 0.0000
vt 0.0296 0.0134 0.0000
vt 0.0565 0.9970 0.0000
vt 0.0565 0.0032 0.0000
vt 0.0518 0.9950 0.0000
vt 0.0518 0.0052 0.0000
vt 0.0058 0.0032 0.0000
vt 0.0058 0.9970 0.0000
vt 0.0105 0.9950 0.0000
vt 0.0105 0.0052 0.0000
vt 0.0152 0.9929 0.0000
vt 0.0424 0.9909 0.0000
vt 0.0200 0.9909 0.0000
vt 0.0471 0.9929 0.0000
vt 0.9360 0.0032 0.0000
vt 0.9360 0.9970 0.0000
vt 0.9942 0.0032 0.0000
vt 0.9942 0.9970 0.0000
vt 0.9407 0.0052 0.0000
vt 0.9407 0.9950 0.0000
vt 0.9895 0.0052 0.0000
vt 0.9895 0.9950 0.0000
vt 1.0000 -0.0000 0.0000
vt 0.0000 -0.0000 0.0000
vt 0.6667 1.0000 0.0000
vt 0.6667 -0.0000 0.0000
vt 1.0000 0.0000 0.0000
vt 1.0000 0.3333 0.0000
vt 0.0000 0.3333 0.0000
vt -0.0000 -0.0000 0.0000
vt 0.3333 -0.0000 0.0000
vt 0.3333 1.0000 0.0000
vt 0.0000 0.0000 0.0000
# 585 texture coords

o Mesh002
g Mesh002
usemtl wire_115132022
s off
f 1/1/1 2/2/1 3/3/1 4/4/1 
f 5/5/1 6/6/1 7/7/1 8/8/1 
f 9/9/1 10/10/1 11/11/1 12/12/1 
f 13/13/1 14/14/1 15/15/1 16/16/1 
f 17/17/1 18/18/1 19/19/1 20/20/1 
f 21/21/1 22/22/1 23/23/1 24/24/1 
f 25/25/2 26/26/3 27/27/4 28/28/5 
f 29/29/6 30/30/7 31/31/8 32/32/9 
f 33/33/1 34/34/1 35/35/1 36/36/1 
f 37/37/1 38/38/1 39/39/1 40/40/1 
f 41/41/1 42/42/1 43/43/1 44/44/1 
f 45/45/1 46/46/1 47/47/1 48/48/1 
f 49/49/1 50/50/1 51/51/1 52/52/1 
f 53/53/1 54/54/1 55/55/1 56/56/1 
f 57/57/10 58/58/11 59/59/12 60/60/13 
f 60/60/13 61/61/14 62/62/15 57/57/10 
f 57/57/10 62/62/15 26/26/3 25/25/2 
f 25/25/2 32/32/9 58/58/11 57/57/10 
f 63/63/1 64/64/1 65/65/1 66/66/1 
f 67/67/1 68/68/1 69/69/1 70/70/1 
f 71/71/1 72/72/1 73/73/1 74/74/1 
f 75/75/16 76/76/17 77/77/18 78/78/19 
f 79/79/20 77/77/18 76/76/17 80/80/21 
f 81/81/22 82/82/23 83/83/24 84/84/25 
f 85/85/26 86/86/27 87/87/28 88/88/29 
f 88/88/29 87/87/28 89/89/30 90/90/31 
f 90/90/31 89/89/30 38/91/32 37/92/33 
f 78/78/19 77/77/18 91/93/34 92/94/35 
f 78/78/19 93/95/36 94/96/37 75/75/16 
f 81/81/22 91/93/34 77/77/18 79/79/20 
f 84/84/25 86/86/27 91/93/34 81/81/22 
f 79/79/20 93/95/36 82/82/23 81/81/22 
f 85/85/26 83/83/24 82/82/23 92/94/35 
f 92/94/35 91/93/34 86/86/27 85/85/26 
f 92/94/35 82/82/23 93/95/36 78/78/19 
f 76/76/17 75/75/16 94/96/37 80/80/21 
f 80/80/21 94/96/37 93/95/36 79/79/20 
f 95/97/1 96/98/1 97/99/1 98/100/1 
f 99/101/1 100/102/1 101/103/1 102/104/1 
f 103/105/1 104/106/1 105/107/1 106/108/1 
f 107/109/38 15/110/38 108/111/38 
f 15/110/38 107/109/38 109/112/38 
f 15/110/38 109/112/38 14/113/38 
f 14/113/38 109/112/38 9/114/38 
f 14/113/38 9/114/38 13/115/38 
f 9/114/38 109/112/38 12/116/38 
f 12/116/38 109/112/38 7/117/38 
f 12/116/38 7/117/38 11/118/38 
f 7/117/38 109/112/38 6/119/38 
f 6/119/38 109/112/38 17/120/38 
f 6/119/38 17/120/38 5/121/38 
f 17/120/38 109/112/38 20/122/38 
f 20/122/38 109/112/38 51/123/38 
f 20/122/38 51/123/38 19/124/38 
f 51/123/38 109/112/38 50/125/38 
f 50/125/38 109/112/38 39/103/38 
f 50/125/38 39/103/38 49/126/38 
f 39/103/38 109/112/38 38/91/38 
f 38/91/38 109/112/38 45/127/38 
f 38/91/38 45/127/38 37/92/38 
f 45/127/38 109/112/38 48/128/38 
f 48/128/38 109/112/38 55/129/38 
f 48/128/38 55/129/38 47/130/38 
f 55/129/38 109/112/38 54/131/38 
f 54/131/38 109/112/38 43/132/38 
f 54/131/38 43/132/38 53/133/38 
f 43/132/38 109/112/38 42/134/38 
f 42/134/38 109/112/38 69/135/38 
f 42/134/38 69/135/38 41/136/38 
f 69/135/38 109/112/38 68/137/38 
f 68/137/38 109/112/38 73/138/38 
f 68/137/38 73/138/38 67/139/38 
f 73/138/38 109/112/38 72/140/38 
f 72/140/38 109/112/38 33/141/38 
f 72/140/38 33/141/38 71/142/38 
f 33/141/38 109/112/38 36/143/38 
f 36/143/38 109/112/38 101/39/38 
f 36/143/38 101/39/38 35/144/38 
f 101/39/38 109/112/38 100/145/38 
f 100/145/38 109/112/38 65/146/38 
f 100/145/38 65/146/38 99/147/38 
f 65/146/38 109/112/38 64/148/38 
f 64/148/38 109/112/38 103/149/38 
f 64/148/38 103/149/38 63/150/38 
f 103/149/38 109/112/38 106/151/38 
f 106/151/38 109/112/38 23/152/38 
f 106/151/38 23/152/38 105/153/38 
f 23/152/38 109/112/38 22/154/38 
f 22/154/38 109/112/38 3/155/38 
f 22/154/38 3/155/38 21/156/38 
f 3/155/38 109/112/38 2/157/38 
f 2/157/38 109/112/38 95/158/38 
f 2/157/38 95/158/38 1/159/38 
f 95/158/38 109/112/38 98/15/38 
f 98/15/38 109/112/38 97/16/38 
f 108/111/38 16/160/38 110/161/38 
f 16/160/38 108/111/38 15/110/38 
f 110/161/38 16/160/38 13/115/38 
f 110/161/38 13/115/38 10/162/38 
f 10/162/38 13/115/38 9/114/38 
f 110/161/38 10/162/38 11/118/38 
f 110/161/38 11/118/38 8/163/38 
f 8/163/38 11/118/38 7/117/38 
f 110/161/38 8/163/38 5/121/38 
f 110/161/38 5/121/38 18/164/38 
f 18/164/38 5/121/38 17/120/38 
f 110/161/38 18/164/38 19/124/38 
f 110/161/38 19/124/38 52/165/38 
f 52/165/38 19/124/38 51/123/38 
f 110/161/38 52/165/38 49/126/38 
f 110/161/38 49/126/38 40/104/38 
f 40/104/38 49/126/38 39/103/38 
f 110/161/38 40/104/38 37/92/38 
f 110/161/38 37/92/38 46/166/38 
f 46/166/38 37/92/38 45/127/38 
f 110/161/38 46/166/38 47/130/38 
f 110/161/38 47/130/38 56/167/38 
f 56/167/38 47/130/38 55/129/38 
f 110/161/38 56/167/38 53/133/38 
f 110/161/38 53/133/38 44/168/38 
f 44/168/38 53/133/38 43/132/38 
f 110/161/38 44/168/38 41/136/38 
f 110/161/38 41/136/38 70/169/38 
f 70/169/38 41/136/38 69/135/38 
f 110/161/38 70/169/38 67/139/38 
f 110/161/38 67/139/38 74/170/38 
f 74/170/38 67/139/38 73/138/38 
f 110/161/38 74/170/38 71/142/38 
f 110/161/38 71/142/38 34/171/38 
f 34/171/38 71/142/38 33/141/38 
f 110/161/38 34/171/38 35/144/38 
f 110/161/38 35/144/38 102/40/38 
f 102/40/38 35/144/38 101/39/38 
f 110/161/38 102/40/38 99/147/38 
f 110/161/38 99/147/38 66/172/38 
f 66/172/38 99/147/38 65/146/38 
f 110/161/38 66/172/38 63/150/38 
f 110/161/38 63/150/38 104/173/38 
f 104/173/38 63/150/38 103/149/38 
f 110/161/38 104/173/38 105/153/38 
f 110/161/38 105/153/38 24/174/38 
f 24/174/38 105/153/38 23/152/38 
f 110/161/38 24/174/38 21/156/38 
f 110/161/38 21/156/38 4/175/38 
f 4/175/38 21/156/38 3/155/38 
f 110/161/38 4/175/38 1/159/38 
f 110/161/38 1/159/38 96/176/38 
f 96/176/38 1/159/38 95/158/38 
f 110/161/38 96/176/38 97/16/38 
f 110/161/38 97/16/38 109/112/38 
f 58/58/11 111/177/39 112/178/40 59/59/12 
f 32/32/9 31/31/8 111/177/39 58/58/11 
f 113/179/41 114/180/30 115/181/28 116/182/42 
f 117/183/43 116/182/42 118/184/25 119/185/24 
f 119/185/24 120/186/26 121/187/29 117/183/43 
f 122/188/36 123/189/19 124/190/35 125/191/23 
f 126/192/27 120/186/26 124/190/35 127/193/34 
f 117/183/43 121/187/29 128/194/31 129/195/44 
f 114/180/30 128/194/31 121/187/29 115/181/28 
f 130/196/18 123/189/19 131/197/16 132/198/17 
f 132/198/17 131/197/16 133/199/37 134/200/21 
f 133/199/37 131/197/16 123/189/19 122/188/36 
f 125/191/23 124/190/35 120/186/26 119/185/24 
f 129/195/44 128/194/31 63/150/33 66/172/45 
f 119/185/24 118/184/25 135/201/22 125/191/23 
f 129/195/44 113/179/41 116/182/42 117/183/43 
f 116/182/42 115/181/28 126/192/27 118/184/25 
f 64/148/32 63/150/33 128/194/31 114/180/30 
f 66/172/45 65/146/46 113/179/41 129/195/44 
f 118/184/25 126/192/27 127/193/34 135/201/22 
f 127/193/34 124/190/35 123/189/19 130/196/18 
f 125/191/23 135/201/22 136/202/20 122/188/36 
f 135/201/22 127/193/34 130/196/18 136/202/20 
f 115/181/28 121/187/29 120/186/26 126/192/27 
f 65/146/46 64/148/32 114/180/30 113/179/41 
f 136/202/20 130/196/18 132/198/17 134/200/21 
f 122/188/36 136/202/20 134/200/21 133/199/37 
f 137/203/47 138/204/48 139/205/49 140/206/50 
f 141/207/51 142/208/52 143/209/53 144/210/54 
f 144/210/54 143/209/53 145/211/55 146/212/56 
f 146/212/56 145/211/55 147/213/57 148/214/58 
f 142/208/52 149/215/59 139/205/49 143/209/53 
f 143/209/53 139/205/49 138/204/48 145/211/55 
f 150/216/60 148/214/58 151/217/61 152/218/62 
f 152/218/62 151/217/61 153/219/63 154/220/64 
f 140/206/50 139/205/49 149/215/59 155/221/65 
f 145/211/55 138/204/48 156/222/66 147/213/57 
f 154/220/64 153/219/63 2/157/67 1/159/68 
f 1/159/68 4/175/69 157/223/70 154/220/64 
f 154/220/64 157/223/70 158/224/71 152/218/62 
f 152/218/62 158/224/71 156/222/66 150/216/60 
f 148/214/58 147/213/57 159/225/72 151/217/61 
f 160/226/17 161/227/16 162/228/37 163/229/21 
f 164/230/36 165/231/19 166/232/35 167/233/23 
f 167/233/23 166/232/35 168/234/26 169/235/24 
f 170/236/27 168/234/26 166/232/35 171/237/34 
f 141/207/51 155/221/65 149/215/59 142/208/52 
f 155/221/65 141/207/51 144/210/54 140/206/50 
f 140/206/50 144/210/54 146/212/56 137/203/47 
f 137/203/47 146/212/56 148/214/58 150/216/60 
f 150/216/60 156/222/66 138/204/48 137/203/47 
f 171/237/34 166/232/35 165/231/19 172/238/18 
f 162/228/37 161/227/16 165/231/19 164/230/36 
f 173/239/49 174/240/53 175/241/73 176/242/74 
f 159/225/72 158/224/71 157/223/70 177/243/75 
f 178/244/22 167/233/23 169/235/24 179/245/25 
f 147/213/57 156/222/66 158/224/71 159/225/72 
f 179/245/25 170/236/27 171/237/34 178/244/22 
f 180/246/55 181/247/56 182/248/54 174/240/53 
f 179/245/25 169/235/24 183/249/43 184/250/42 
f 184/250/42 185/251/28 170/236/27 179/245/25 
f 169/235/24 168/234/26 186/252/29 183/249/43 
f 151/217/61 159/225/72 177/243/75 153/219/63 
f 153/219/63 177/243/75 3/155/76 2/157/67 
f 178/244/22 171/237/34 172/238/18 187/253/20 
f 163/229/21 162/228/37 164/230/36 187/253/20 
f 174/240/53 182/248/54 188/254/51 175/241/73 
f 189/255/65 188/254/51 182/248/54 190/256/50 
f 172/238/18 165/231/19 161/227/16 160/226/17 
f 191/257/44 192/258/31 21/156/33 24/174/45 
f 193/259/47 181/247/56 194/260/58 195/261/77 
f 196/262/78 195/261/77 197/263/62 198/264/71 
f 198/264/71 197/263/62 199/265/64 200/266/70 
f 185/251/28 186/252/29 168/234/26 170/236/27 
f 173/239/49 190/256/50 193/259/47 201/267/48 
f 200/266/70 199/265/64 105/153/68 104/173/69 
f 200/266/70 202/268/75 203/269/72 198/264/71 
f 204/270/30 192/258/31 186/252/29 185/251/28 
f 104/173/69 103/149/76 202/268/75 200/266/70 
f 190/256/50 182/248/54 181/247/56 193/259/47 
f 176/242/74 189/255/65 190/256/50 173/239/49 
f 198/264/71 203/269/72 205/271/57 196/262/78 
f 187/253/20 172/238/18 160/226/17 163/229/21 
f 201/267/48 193/259/47 195/261/77 196/262/78 
f 187/253/20 164/230/36 167/233/23 178/244/22 
f 184/250/42 183/249/43 191/257/44 206/272/41 
f 206/272/41 191/257/44 24/174/45 23/152/46 
f 206/272/41 204/270/30 185/251/28 184/250/42 
f 183/249/43 186/252/29 192/258/31 191/257/44 
f 23/152/46 22/154/32 204/270/30 206/272/41 
f 177/243/75 157/223/70 4/175/69 3/155/76 
f 176/242/74 175/241/73 188/254/51 189/255/65 
f 196/262/78 205/271/57 180/246/55 201/267/48 
f 22/154/32 21/156/33 192/258/31 204/270/30 
f 201/267/48 180/246/55 174/240/53 173/239/49 
f 205/271/57 194/260/58 181/247/56 180/246/55 
f 197/263/62 207/273/61 208/274/63 199/265/64 
f 103/149/76 106/151/67 208/274/63 202/268/75 
f 203/269/72 207/273/61 194/260/58 205/271/57 
f 199/265/64 208/274/63 106/151/67 105/153/68 
f 202/268/75 208/274/63 207/273/61 203/269/72 
f 195/261/77 194/260/58 207/273/61 197/263/62 
f 29/29/6 28/28/5 27/27/4 30/30/7 
f 28/28/5 29/29/6 32/32/9 25/25/2 
f 209/275/79 210/276/80 211/277/81 212/278/82 
f 213/279/83 214/280/84 215/281/13 216/282/12 
f 212/278/82 211/277/81 18/164/85 17/120/86 
f 20/122/87 19/124/88 217/283/89 218/284/90 
f 219/285/9 220/286/2 221/287/5 222/288/6 
f 216/282/12 223/289/40 209/275/79 213/279/83 
f 213/279/83 209/275/79 212/278/82 218/284/90 
f 224/290/11 225/291/10 220/286/2 219/285/9 
f 19/124/88 18/164/85 211/277/81 217/283/89 
f 218/284/90 217/283/89 214/280/84 213/279/83 
f 216/282/12 215/281/13 225/291/10 224/290/11 
f 217/283/89 211/277/81 210/276/80 214/280/84 
f 224/290/11 226/292/39 223/289/40 216/282/12 
f 214/280/84 210/276/80 227/293/14 215/281/13 
f 223/289/40 227/293/14 210/276/80 209/275/79 
f 218/284/90 212/278/82 17/120/86 20/122/87 
f 219/285/9 228/294/8 226/292/39 224/290/11 
f 12/116/67 11/118/68 229/295/64 230/296/63 
f 230/296/63 229/295/64 231/297/62 232/298/61 
f 232/298/61 231/297/62 233/299/77 234/300/58 
f 230/296/63 235/301/75 9/114/76 12/116/67 
f 236/302/17 237/303/21 238/304/20 239/305/18 
f 240/306/30 241/307/41 7/117/46 6/119/32 
f 242/308/42 243/309/43 244/310/44 241/307/41 
f 56/167/45 55/129/46 245/311/41 246/312/44 
f 247/313/35 248/314/23 249/315/36 250/316/19 
f 251/317/25 252/318/24 243/309/43 242/308/42 
f 245/311/41 253/319/30 254/320/28 255/321/42 
f 247/313/35 256/322/34 257/323/27 258/324/26 
f 250/316/19 239/305/18 256/322/34 247/313/35 
f 236/302/17 259/325/16 260/326/37 237/303/21 
f 261/327/22 248/314/23 252/318/24 251/317/25 
f 5/121/33 8/163/45 244/310/44 262/328/31 
f 259/325/16 236/302/17 239/305/18 250/316/19 
f 255/321/42 254/320/28 263/329/27 264/330/25 
f 239/305/18 238/304/20 261/327/22 256/322/34 
f 265/331/43 255/321/42 264/330/25 266/332/24 
f 237/303/21 260/326/37 249/315/36 238/304/20 
f 258/324/26 257/323/27 267/333/28 268/334/29 
f 268/334/29 243/309/43 252/318/24 258/324/26 
f 267/333/28 242/308/42 241/307/41 240/306/30 
f 268/334/29 267/333/28 240/306/30 262/328/31 
f 241/307/41 244/310/44 8/163/45 7/117/46 
f 262/328/31 244/310/44 243/309/43 268/334/29 
f 258/324/26 252/318/24 248/314/23 247/313/35 
f 238/304/20 249/315/36 248/314/23 261/327/22 
f 250/316/19 249/315/36 260/326/37 259/325/16 
f 257/323/27 251/317/25 242/308/42 267/333/28 
f 262/328/31 240/306/30 6/119/32 5/121/33 
f 256/322/34 261/327/22 251/317/25 257/323/27 
f 246/312/44 245/311/41 255/321/42 265/331/43 
f 269/335/17 270/336/16 271/337/37 272/338/21 
f 273/339/36 274/340/19 275/341/35 276/342/23 
f 276/342/23 275/341/35 277/343/26 266/332/24 
f 278/344/18 274/340/19 270/336/16 269/335/17 
f 279/345/34 275/341/35 274/340/19 278/344/18 
f 280/346/71 281/347/72 282/348/57 283/349/78 
f 264/330/25 263/329/27 279/345/34 284/350/22 
f 276/342/23 284/350/22 285/351/20 273/339/36 
f 263/329/27 277/343/26 275/341/35 279/345/34 
f 266/332/24 277/343/26 286/352/29 265/331/43 
f 246/312/44 287/353/31 53/133/33 56/167/45 
f 271/337/37 270/336/16 274/340/19 273/339/36 
f 54/131/32 53/133/33 287/353/31 253/319/30 
f 253/319/30 287/353/31 286/352/29 254/320/28 
f 284/350/22 279/345/34 278/344/18 285/351/20 
f 285/351/20 278/344/18 269/335/17 272/338/21 
f 265/331/43 286/352/29 287/353/31 246/312/44 
f 254/320/28 286/352/29 277/343/26 263/329/27 
f 55/129/46 54/131/32 253/319/30 245/311/41 
f 273/339/36 285/351/20 272/338/21 271/337/37 
f 266/332/24 264/330/25 284/350/22 276/342/23 
f 45/127/76 48/128/67 288/354/63 289/355/75 
f 290/356/81 291/357/89 71/142/88 74/170/85 
f 292/358/39 293/359/11 294/360/9 295/361/8 
f 296/362/83 297/363/84 298/364/13 299/365/12 
f 47/130/68 46/166/69 300/366/70 301/367/64 
f 302/368/62 303/369/71 304/370/78 305/371/77 
f 293/359/11 306/372/10 307/373/2 294/360/9 
f 294/360/9 307/373/2 308/374/5 309/375/6 
f 310/376/82 311/377/90 296/362/83 312/378/79 
f 313/379/53 314/380/54 315/381/91 316/382/73 
f 317/383/72 303/369/71 300/366/70 289/355/75 
f 318/384/7 319/385/4 320/386/3 295/361/8 
f 321/387/47 322/388/56 323/389/58 305/371/77 
f 324/390/15 306/372/10 298/364/13 325/391/14 
f 299/365/12 298/364/13 306/372/10 293/359/11 
f 295/361/8 294/360/9 309/375/6 318/384/7 
f 295/361/8 320/386/3 324/390/15 292/358/39 
f 292/358/39 324/390/15 325/391/14 326/392/40 
f 325/391/14 298/364/13 297/363/84 327/393/80 
f 312/378/79 327/393/80 290/356/81 310/376/82 
f 72/140/87 71/142/88 291/357/89 311/377/90 
f 301/367/64 300/366/70 303/369/71 302/368/62 
f 289/355/75 300/366/70 46/166/69 45/127/76 
f 310/376/82 290/356/81 74/170/85 73/138/86 
f 328/394/55 322/388/56 314/380/54 313/379/53 
f 73/138/86 72/140/87 311/377/90 310/376/82 
f 326/392/40 299/365/12 293/359/11 292/358/39 
f 312/378/79 296/362/83 299/365/12 326/392/40 
f 329/395/50 314/380/54 322/388/56 321/387/47 
f 330/396/57 304/370/78 303/369/71 317/383/72 
f 311/377/90 291/357/89 297/363/84 296/362/83 
f 289/355/75 288/354/63 331/397/61 317/383/72 
f 327/393/80 297/363/84 291/357/89 290/356/81 
f 326/392/40 325/391/14 327/393/80 312/378/79 
f 332/398/92 315/381/91 314/380/54 329/395/50 
f 320/386/3 307/373/2 306/372/10 324/390/15 
f 333/399/12 334/400/13 335/401/10 336/402/11 
f 33/141/76 36/143/67 337/403/63 338/404/75 
f 339/405/60 340/406/58 341/407/61 342/408/62 
f 343/409/57 344/410/78 345/411/71 346/412/72 
f 347/413/64 337/403/63 36/143/67 35/144/68 
f 348/414/3 349/415/8 350/416/7 351/417/4 
f 352/418/92 353/419/91 354/420/54 355/421/50 
f 317/383/72 331/397/61 323/389/58 330/396/57 
f 356/422/14 334/400/13 357/423/84 358/424/80 
f 301/367/64 288/354/63 48/128/67 47/130/68 
f 359/425/53 354/420/54 353/419/91 360/426/73 
f 361/427/47 362/428/56 340/406/58 339/405/60 
f 342/408/62 345/411/71 344/410/78 339/405/60 
f 363/429/39 336/402/11 364/430/9 349/415/8 
f 358/424/80 357/423/84 365/431/89 366/432/81 
f 366/432/81 365/431/89 41/136/88 44/168/85 
f 343/409/57 340/406/58 362/428/56 367/433/55 
f 368/434/6 369/435/5 351/417/4 350/416/7 
f 338/404/75 337/403/63 341/407/61 346/412/72 
f 338/404/75 370/436/70 34/171/69 33/141/76 
f 371/437/81 372/438/82 373/439/79 374/440/80 
f 375/441/74 360/426/73 353/419/91 352/418/92 
f 339/405/60 344/410/78 376/442/48 361/427/47 
f 351/417/4 369/435/5 377/443/2 348/414/3 
f 355/421/50 354/420/54 362/428/56 361/427/47 
f 355/421/50 378/444/49 375/441/74 352/418/92 
f 347/413/64 370/436/70 345/411/71 342/408/62 
f 346/412/72 341/407/61 340/406/58 343/409/57 
f 348/414/3 377/443/2 335/401/10 379/445/15 
f 342/408/62 341/407/61 337/403/63 347/413/64 
f 367/433/55 376/442/48 344/410/78 343/409/57 
f 302/368/62 331/397/61 288/354/63 301/367/64 
f 379/445/15 335/401/10 334/400/13 356/422/14 
f 336/402/11 335/401/10 377/443/2 364/430/9 
f 364/430/9 377/443/2 369/435/5 368/434/6 
f 349/415/8 364/430/9 368/434/6 350/416/7 
f 356/422/14 380/446/40 363/429/39 379/445/15 
f 380/446/40 333/399/12 336/402/11 363/429/39 
f 361/427/47 376/442/48 378/444/49 355/421/50 
f 379/445/15 363/429/39 349/415/8 348/414/3 
f 305/371/77 323/389/58 331/397/61 302/368/62 
f 374/440/80 373/439/79 381/447/40 382/448/14 
f 367/433/55 362/428/56 354/420/54 359/425/53 
f 359/425/53 378/444/49 376/442/48 367/433/55 
f 360/426/73 375/441/74 378/444/49 359/425/53 
f 346/412/72 345/411/71 370/436/70 338/404/75 
f 35/144/68 34/171/69 370/436/70 347/413/64 
f 383/449/79 384/450/83 333/399/12 380/446/40 
f 385/451/82 386/452/90 384/450/83 383/449/79 
f 44/168/85 43/132/86 385/451/82 366/432/81 
f 88/88/29 387/453/43 83/83/24 85/85/26 
f 309/375/6 308/374/5 319/385/4 318/384/7 
f 319/385/4 308/374/5 307/373/2 320/386/3 
f 388/454/42 87/87/28 86/86/27 84/84/25 
f 90/90/31 389/455/44 387/453/43 88/88/29 
f 386/452/90 365/431/89 357/423/84 384/450/83 
f 39/103/46 38/91/32 89/89/30 390/456/41 
f 388/454/42 387/453/43 389/455/44 390/456/41 
f 42/134/87 41/136/88 365/431/89 386/452/90 
f 43/132/86 42/134/87 386/452/90 385/451/82 
f 37/92/33 40/104/45 389/455/44 90/90/31 
f 384/450/83 357/423/84 334/400/13 333/399/12 
f 366/432/81 385/451/82 383/449/79 358/424/80 
f 358/424/80 383/449/79 380/446/40 356/422/14 
f 84/84/25 83/83/24 387/453/43 388/454/42 
f 390/456/41 89/89/30 87/87/28 388/454/42 
f 390/456/41 389/455/44 40/104/45 39/103/46 
f 391/457/17 392/458/16 393/459/37 394/460/21 
f 393/459/37 392/458/16 395/461/19 396/462/36 
f 397/463/23 398/464/35 399/465/26 400/466/24 
f 391/457/17 394/460/21 401/467/20 402/468/18 
f 402/468/18 401/467/20 403/469/22 404/470/34 
f 404/470/34 398/464/35 395/461/19 402/468/18 
f 404/470/34 403/469/22 405/471/25 406/472/27 
f 396/462/36 395/461/19 398/464/35 397/463/23 
f 406/472/27 399/465/26 398/464/35 404/470/34 
f 402/468/18 395/461/19 392/458/16 391/457/17 
f 407/473/63 408/474/64 409/475/62 410/476/61 
f 410/476/61 409/475/62 411/477/60 412/478/58 
f 69/135/76 68/137/67 407/473/63 413/479/75 
f 413/479/75 407/473/63 410/476/61 281/347/72 
f 281/347/72 410/476/61 412/478/58 282/348/57 
f 70/169/69 69/135/76 413/479/75 414/480/70 
f 414/480/70 413/479/75 281/347/72 280/346/71 
f 415/481/91 416/482/92 417/483/74 418/484/73 
f 419/485/4 420/486/5 421/487/2 422/488/3 
f 423/489/15 424/490/10 425/491/13 382/448/14 
f 381/447/40 426/492/12 427/493/11 428/494/39 
f 423/489/15 428/494/39 429/495/8 422/488/3 
f 382/448/14 425/491/13 430/496/84 374/440/80 
f 431/497/83 430/496/84 425/491/13 426/492/12 
f 432/498/56 433/499/47 434/500/50 435/501/54 
f 436/502/55 432/498/56 435/501/54 437/503/53 
f 426/492/12 425/491/13 424/490/10 427/493/11 
f 283/349/78 282/348/57 436/502/55 438/504/48 
f 438/504/48 436/502/55 437/503/53 439/505/49 
f 428/494/39 427/493/11 440/506/9 429/495/8 
f 371/437/81 441/507/89 99/147/88 102/40/85 
f 412/478/58 411/477/60 433/499/47 432/498/56 
f 439/505/49 437/503/53 418/484/73 417/483/74 
f 280/346/71 409/475/62 408/474/64 414/480/70 
f 442/508/6 420/486/5 419/485/4 443/509/7 
f 427/493/11 424/490/10 421/487/2 440/506/9 
f 437/503/53 435/501/54 415/481/91 418/484/73 
f 440/506/9 421/487/2 420/486/5 442/508/6 
f 382/448/14 381/447/40 428/494/39 423/489/15 
f 439/505/49 434/500/50 433/499/47 438/504/48 
f 422/488/3 429/495/8 443/509/7 419/485/4 
f 374/440/80 430/496/84 441/507/89 371/437/81 
f 100/145/87 99/147/88 441/507/89 444/510/90 
f 372/438/82 444/510/90 431/497/83 373/439/79 
f 444/510/90 441/507/89 430/496/84 431/497/83 
f 373/439/79 431/497/83 426/492/12 381/447/40 
f 417/483/74 416/482/92 434/500/50 439/505/49 
f 438/504/48 433/499/47 411/477/60 283/349/78 
f 102/40/85 101/39/86 372/438/82 371/437/81 
f 422/488/3 421/487/2 424/490/10 423/489/15 
f 435/501/54 434/500/50 416/482/92 415/481/91 
f 283/349/78 411/477/60 409/475/62 280/346/71 
f 414/480/70 408/474/64 67/139/68 70/169/69 
f 68/137/67 67/139/68 408/474/64 407/473/63 
f 429/495/8 440/506/9 442/508/6 443/509/7 
f 101/39/86 100/145/87 444/510/90 372/438/82 
f 282/348/57 412/478/58 432/498/56 436/502/55 
f 445/511/54 446/512/53 447/513/55 448/514/56 
f 449/515/74 450/516/92 451/517/50 452/518/49 
f 448/514/56 453/519/47 451/517/50 445/511/54 
f 445/511/54 451/517/50 450/516/92 454/520/91 
f 455/521/78 233/299/77 231/297/62 456/522/71 
f 456/522/71 231/297/62 229/295/64 457/523/70 
f 452/518/49 451/517/50 453/519/47 458/524/48 
f 448/514/56 447/513/55 459/525/57 234/300/58 
f 457/523/70 229/295/64 11/118/68 10/162/69 
f 454/520/91 460/526/73 446/512/53 445/511/54 
f 234/300/58 233/299/77 453/519/47 448/514/56 
f 222/288/6 461/527/7 228/294/8 219/285/9 
f 449/515/74 460/526/73 454/520/91 450/516/92 
f 458/524/48 453/519/47 233/299/77 455/521/78 
f 455/521/78 459/525/57 447/513/55 458/524/48 
f 458/524/48 447/513/55 446/512/53 452/518/49 
f 452/518/49 446/512/53 460/526/73 449/515/74 
f 316/382/73 462/528/74 463/529/49 313/379/53 
f 456/522/71 464/530/72 459/525/57 455/521/78 
f 52/165/45 51/123/46 465/531/41 466/532/44 
f 330/396/57 323/389/58 322/388/56 328/394/55 
f 232/298/61 464/530/72 235/301/75 230/296/63 
f 467/533/43 468/534/42 405/471/25 400/466/24 
f 321/387/47 469/535/48 463/529/49 329/395/50 
f 466/532/44 470/536/31 49/126/33 52/165/45 
f 396/462/36 401/467/20 394/460/21 393/459/37 
f 50/125/32 49/126/33 470/536/31 471/537/30 
f 10/162/69 9/114/76 235/301/75 457/523/70 
f 471/537/30 470/536/31 472/538/29 473/539/28 
f 474/540/4 461/527/7 222/288/6 221/287/5 
f 457/523/70 235/301/75 464/530/72 456/522/71 
f 397/463/23 403/469/22 401/467/20 396/462/36 
f 462/528/74 316/382/73 315/381/91 332/398/92 
f 234/300/58 459/525/57 464/530/72 232/298/61 
f 313/379/53 463/529/49 469/535/48 328/394/55 
f 305/371/77 304/370/78 469/535/48 321/387/47 
f 328/394/55 469/535/48 304/370/78 330/396/57 
f 329/395/50 463/529/49 462/528/74 332/398/92 
f 466/532/44 465/531/41 468/534/42 467/533/43 
f 228/294/8 475/541/3 476/542/15 226/292/39 
f 461/527/7 474/540/4 475/541/3 228/294/8 
f 226/292/39 476/542/15 227/293/14 223/289/40 
f 215/281/13 227/293/14 476/542/15 225/291/10 
f 225/291/10 476/542/15 475/541/3 220/286/2 
f 220/286/2 475/541/3 474/540/4 221/287/5 
f 400/466/24 405/471/25 403/469/22 397/463/23 
f 467/533/43 472/538/29 470/536/31 466/532/44 
f 473/539/28 472/538/29 399/465/26 406/472/27 
f 406/472/27 405/471/25 468/534/42 473/539/28 
f 473/539/28 468/534/42 465/531/41 471/537/30 
f 471/537/30 465/531/41 51/123/46 50/125/32 
f 400/466/24 399/465/26 472/538/29 467/533/43 
f 477/543/6 478/544/7 479/545/8 480/546/9 
f 481/547/10 482/548/15 483/549/3 484/550/2 
f 485/551/13 486/552/14 482/548/15 481/547/10 
f 484/550/2 483/549/3 487/553/4 488/554/5 
f 96/176/85 95/158/86 489/555/82 490/556/81 
f 490/556/81 489/555/82 491/557/79 492/558/80 
f 98/15/87 97/16/88 493/559/89 494/560/90 
f 495/561/83 496/562/84 485/551/13 497/563/12 
f 480/546/9 479/545/8 498/564/39 499/565/11 
f 483/549/3 479/545/8 478/544/7 487/553/4 
f 497/563/12 500/566/40 491/557/79 495/561/83 
f 495/561/83 491/557/79 489/555/82 494/560/90 
f 494/560/90 493/559/89 496/562/84 495/561/83 
f 496/562/84 492/558/80 486/552/14 485/551/13 
f 486/552/14 500/566/40 498/564/39 482/548/15 
f 499/565/11 481/547/10 484/550/2 480/546/9 
f 494/560/90 489/555/82 95/158/86 98/15/87 
f 482/548/15 498/564/39 479/545/8 483/549/3 
f 497/563/12 485/551/13 481/547/10 499/565/11 
f 499/565/11 498/564/39 500/566/40 497/563/12 
f 480/546/9 484/550/2 488/554/5 477/543/6 
f 97/16/88 96/176/85 490/556/81 493/559/89 
f 493/559/89 490/556/81 492/558/80 496/562/84 
f 492/558/80 491/557/79 500/566/40 486/552/14 
f 487/553/4 478/544/7 477/543/6 488/554/5 
f 501/567/89 502/568/90 14/113/87 13/115/88 
f 31/31/8 26/26/3 62/62/15 111/177/39 
f 13/115/88 16/160/85 503/569/81 501/567/89 
f 502/568/90 504/570/82 15/110/86 14/113/87 
f 505/571/84 506/572/83 502/568/90 501/567/89 
f 112/178/40 61/61/14 507/573/80 508/574/79 
f 506/572/83 508/574/79 504/570/82 502/568/90 
f 508/574/79 507/573/80 503/569/81 504/570/82 
f 504/570/82 503/569/81 16/160/85 15/110/86 
f 505/571/84 507/573/80 61/61/14 60/60/13 
f 501/567/89 503/569/81 507/573/80 505/571/84 
f 60/60/13 59/59/12 506/572/83 505/571/84 
f 59/59/12 112/178/40 508/574/79 506/572/83 
f 30/30/7 27/27/4 26/26/3 31/31/8 
f 111/177/39 62/62/15 61/61/14 112/178/40 
f 509/575/1 510/109/1 511/112/1 512/576/1 
f 512/575/93 511/109/93 107/577/93 513/578/93 
f 509/576/94 512/579/94 513/580/94 514/581/94 
f 109/112/38 514/576/38 513/575/38 107/109/38 
f 510/112/95 509/582/95 514/583/95 109/584/95 
f 511/585/96 510/579/96 109/580/96 107/581/96 
# 474 polygons - 110 triangles

