# 3ds Max Wavefront OBJ Exporter v0.99 - (c)2007 guruware
# File Created: 12.03.2026 11:56:11

mtllib Ribbed 45mm Panel Configurator_OBJ.mtl

#
# object 45
#

v  -610.6406 25.8939 238.8906
v  -610.6401 2847.5381 238.8911
v  -610.6402 2847.5381 -970.3849
v  -610.6407 25.8941 -970.3854
v  -602.5784 2847.5381 -970.3849
v  -602.5789 25.8941 -970.3854
v  -602.5783 2847.5381 238.8911
v  -602.5788 25.8939 238.8906
v  -594.7456 47.2361 -805.4419
v  -594.7451 2826.1963 -805.4414
v  -594.5165 2822.3447 -801.5901
v  -594.5170 51.0873 -801.5906
v  -594.5165 2822.3447 -848.9534
v  -594.5170 51.0873 -848.9539
v  -594.5170 51.0873 -849.9617
v  -594.5165 2822.3447 -849.9612
v  -594.7451 2826.1963 -845.1021
v  -594.7456 47.2361 -845.1025
v  -598.1420 2837.4805 -785.4471
v  -598.1420 2837.4805 -816.7253
v  -600.1514 2841.0635 -820.3087
v  -600.1514 2841.0635 -781.8638
v  -602.5784 2844.5151 -823.7601
v  -602.5784 2844.5151 -778.4124
v  -596.5647 39.6417 -813.0361
v  -596.5643 2833.7905 -813.0356
v  -595.4293 2830.0205 -809.2656
v  -595.4297 43.4119 -809.2661
v  -602.5789 28.9173 -778.4128
v  -600.1519 32.3688 -781.8643
v  -594.7456 47.2361 -796.7316
v  -595.4297 43.4119 -792.9075
v  -595.4293 2830.0205 -841.2780
v  -595.4297 43.4119 -841.2784
v  -596.5643 2833.7905 -837.5078
v  -596.5647 39.6417 -837.5083
v  -596.5643 2833.7905 -861.4067
v  -595.4293 2830.0205 -857.6366
v  -594.7451 2826.1963 -853.8125
v  -594.7456 47.2361 -853.8130
v  -596.5647 39.6417 -789.1373
v  -596.5643 2833.7905 -789.1368
v  -595.4293 2830.0205 -567.4105
v  -595.4293 2830.0205 -551.0518
v  -594.7451 2826.1963 -554.8760
v  -594.7451 2826.1963 -563.5862
v  -594.5165 2822.3447 -558.7272
v  -594.5165 2822.3447 -559.7350
v  -594.7451 2826.1958 -264.6497
v  -594.7451 2826.1958 -273.3600
v  -595.4293 2830.0200 -277.1842
v  -595.4293 2830.0200 -260.8256
v  -596.5647 39.6417 -571.1810
v  -596.5642 2833.7905 -571.1805
v  -595.4297 43.4119 -567.4109
v  -594.7455 47.2360 -563.5867
v  -600.1519 32.3688 -578.4539
v  -600.1519 32.3688 -540.0092
v  -602.5788 28.9172 -536.5576
v  -602.5788 28.9172 -581.9055
v  -594.5170 51.0873 -559.7354
v  -594.5165 2822.3447 -268.5010
v  -594.5165 2822.3447 -269.5087
v  -602.5784 2844.5151 -581.9050
v  -600.1514 2841.0635 -578.4534
v  -600.1514 2841.0635 -540.0087
v  -602.5784 2844.5151 -536.5571
v  -598.1420 2837.4805 -574.8702
v  -598.1425 35.9520 -574.8707
v  -595.4297 43.4119 -551.0522
v  -596.5647 39.6417 -547.2821
v  -598.1424 35.9520 -543.5924
v  -596.5642 2833.7905 -547.2817
v  -598.1420 2837.4805 -543.5919
v  -596.5642 2833.7905 -280.9543
v  -596.5642 2833.7905 -257.0554
v  -596.5647 39.6416 -257.0558
v  -595.4297 43.4118 -260.8260
v  -594.7455 47.2360 -264.6502
v  -594.5170 51.0872 -268.5014
v  -594.5170 51.0872 -269.5092
v  -600.1519 32.3689 -965.4222
v  -600.1514 2841.0635 -965.4218
v  -598.1420 2837.4805 -961.8385
v  -598.1425 35.9521 -961.8390
v  -598.1425 35.9521 -930.5608
v  -600.1519 32.3689 -926.9774
v  -596.5647 39.6418 -958.1493
v  -596.5647 39.6417 -934.2504
v  -602.5789 28.9173 -968.8738
v  -602.5784 2844.5151 -968.8733
v  -596.5643 2833.7905 -958.1488
v  -602.5789 28.9173 -923.5259
v  -600.1518 32.3687 50.3696
v  -600.1514 2841.0630 50.3701
v  -598.1420 2837.4800 53.9533
v  -598.1424 35.9519 53.9528
v  -602.5788 28.9171 46.9181
v  -602.5783 2844.5146 46.9185
v  -596.5642 2833.7905 57.6430
v  -596.5646 39.6416 57.6425
v  -595.4293 2830.0205 -647.7939
v  -595.4293 2830.0205 -664.1525
v  -596.5643 2833.7905 -667.9227
v  -596.5643 2833.7905 -644.0237
v  -596.5647 39.6417 -644.0242
v  -595.4297 43.4119 -647.7943
v  -598.1420 2837.4805 -640.3340
v  -598.1420 2837.4805 -671.6122
v  -600.1514 2841.0635 -675.1956
v  -600.1514 2841.0635 -636.7507
v  -598.1425 35.9520 -640.3345
v  -596.5647 39.6417 -667.9231
v  -598.1425 35.9520 -671.6127
v  -594.7456 47.2361 -660.3287
v  -594.7456 47.2361 -651.6185
v  -595.4297 43.4119 -664.1530
v  -600.1519 32.3688 -636.7512
v  -600.1519 32.3688 -675.1960
v  -602.5788 28.9173 -633.2997
v  -602.5788 28.9173 -678.6475
v  -594.5170 51.0873 -656.4775
v  -594.5170 51.0873 -655.4697
v  -594.5165 2822.3447 -800.5824
v  -594.7451 2826.1963 -796.7311
v  -594.7451 2826.1963 -651.6180
v  -594.7451 2826.1963 -660.3283
v  -595.4293 2830.0205 -792.9070
v  -594.5170 51.0873 -800.5829
v  -594.5165 2822.3447 -655.4693
v  -594.5165 2822.3447 -656.4771
v  -602.5784 2844.5151 -678.6470
v  -602.5784 2844.5151 -633.2992
v  -598.1420 2837.4800 -156.6236
v  -598.1420 2837.4800 -187.9019
v  -600.1514 2841.0630 -191.4851
v  -600.1514 2841.0630 -153.0404
v  -602.5784 2844.5146 -194.9367
v  -602.5784 2844.5146 -149.5888
v  -602.5788 28.9172 -149.5893
v  -600.1519 32.3687 -153.0409
v  -598.1424 35.9519 -156.6241
v  -600.1519 32.3688 -820.3092
v  -598.1425 35.9520 -816.7258
v  -598.1425 35.9520 -785.4476
v  -596.5647 39.6417 -619.5520
v  -596.5642 2833.7905 -619.5516
v  -595.4293 2830.0205 -615.7815
v  -595.4297 43.4119 -615.7819
v  -594.7455 47.2360 -611.9577
v  -594.7451 2826.1963 -611.9573
v  -594.5165 2822.3447 -608.1060
v  -594.5170 51.0873 -608.1064
v  -600.1519 32.3688 -588.3802
v  -600.1514 2841.0635 -588.3797
v  -602.5784 2844.5151 -584.9282
v  -602.5788 28.9172 -584.9286
v  -596.5647 39.6417 -595.6531
v  -596.5642 2833.7905 -595.6527
v  -598.1420 2837.4805 -591.9630
v  -598.1425 35.9520 -591.9634
v  -602.5789 28.9173 -823.7606
v  -602.5784 2844.5151 -630.2760
v  -600.1514 2841.0635 -626.8245
v  -595.4297 43.4119 -599.4233
v  -598.1420 2837.4805 -623.2412
v  -596.5647 39.6416 -160.3138
v  -596.5642 2833.7905 -160.3133
v  -596.5647 39.6416 -184.2127
v  -598.1424 35.9520 -187.9024
v  -595.4293 2830.0205 -954.3787
v  -595.4297 43.4119 -954.3792
v  -594.7451 2826.1963 -950.5546
v  -594.7456 47.2361 -950.5551
v  -594.7456 47.2361 -941.8447
v  -595.4297 43.4119 -938.0205
v  -594.5165 2822.3447 -946.7032
v  -594.5170 51.0874 -946.7037
v  -596.5643 2833.7905 -934.2499
v  -598.1420 2837.4805 -930.5603
v  -600.1514 2841.0635 -926.9769
v  -595.4293 2830.0205 -938.0200
v  -602.5784 2844.5151 -923.5254
v  -594.5165 2822.3447 -945.6956
v  -594.7451 2826.1963 -941.8442
v  -594.5170 51.0874 -945.6960
v  -596.5642 2833.7905 -208.6843
v  -596.5642 2833.7905 -232.5833
v  -598.1420 2837.4800 -236.2729
v  -598.1420 2837.4800 -204.9946
v  -602.5784 2844.5146 -197.9599
v  -602.5788 28.9172 -197.9603
v  -600.1519 32.3687 -201.4119
v  -600.1514 2841.0630 -201.4114
v  -595.4297 43.4118 -228.8135
v  -595.4297 43.4118 -212.4550
v  -596.5647 39.6416 -208.6848
v  -596.5647 39.6416 -232.5837
v  -600.1514 2841.0630 -239.8562
v  -602.5784 2844.5146 -243.3077
v  -595.4293 2830.0200 -212.4545
v  -594.7455 47.2360 -216.2791
v  -594.7451 2826.1958 -216.2787
v  -594.5170 51.0872 -221.1381
v  -594.5170 51.0872 -220.1304
v  -594.7455 47.2360 -224.9894
v  -594.5165 2822.3447 -220.1299
v  -595.4293 2830.0200 -228.8131
v  -594.7451 2826.1958 -224.9889
v  -594.5165 2822.3447 -221.1377
v  -594.5165 2822.3447 -123.3878
v  -594.5170 51.0872 -123.3883
v  -594.5170 51.0872 -124.3961
v  -594.5165 2822.3447 -124.3956
v  -595.4293 2830.0200 -115.7124
v  -595.4293 2830.0200 -132.0710
v  -596.5642 2833.7905 -135.8412
v  -596.5642 2833.7905 -111.9422
v  -594.7451 2826.1958 -128.2469
v  -594.7451 2826.1958 -119.5366
v  -595.4297 43.4118 -115.7129
v  -594.7455 47.2360 -119.5370
v  -596.5647 39.6416 -111.9427
v  -594.7455 47.2360 -128.2473
v  -598.1424 35.9519 -139.5313
v  -598.1420 2837.4800 -139.5309
v  -596.5647 39.6416 -135.8416
v  -595.4297 43.4118 -132.0715
v  -598.1420 2837.4800 -108.2526
v  -600.1514 2841.0630 -143.1141
v  -600.1514 2841.0630 -104.6693
v  -602.5784 2844.5146 -146.5656
v  -602.5784 2844.5146 -101.2178
v  -600.1519 32.3687 -104.6698
v  -598.1424 35.9519 -108.2530
v  -600.1519 32.3687 -143.1145
v  -602.5788 28.9172 -101.2183
v  -602.5788 28.9172 -146.5661
v  -602.5788 28.9171 140.6369
v  -602.5783 2844.5146 140.6374
v  -602.5783 2844.5146 95.2896
v  -602.5788 28.9171 95.2891
v  -602.5789 28.9173 -875.1549
v  -602.5784 2844.5151 -875.1544
v  -602.5784 2844.5151 -920.5023
v  -602.5789 28.9173 -920.5028
v  -602.5788 28.9172 -439.8156
v  -602.5784 2844.5146 -439.8151
v  -602.5784 2844.5146 -485.1629
v  -602.5788 28.9172 -485.1634
v  -602.5789 28.9173 -826.7838
v  -602.5784 2844.5151 -826.7833
v  -602.5784 2844.5151 -872.1312
v  -602.5789 28.9173 -872.1317
v  -602.5788 28.9171 -4.4762
v  -602.5783 2844.5146 -4.4757
v  -602.5783 2844.5146 -49.8236
v  -602.5788 28.9172 -49.8240
v  -602.5788 28.9172 -294.7024
v  -602.5784 2844.5146 -294.7019
v  -602.5784 2844.5146 -340.0498
v  -602.5788 28.9172 -340.0503
v  -602.5788 28.9172 -391.4445
v  -602.5784 2844.5146 -391.4440
v  -602.5784 2844.5146 -436.7919
v  -602.5788 28.9172 -436.7924
v  -602.5788 28.9172 -488.1866
v  -602.5784 2844.5146 -488.1861
v  -602.5784 2844.5151 -533.5339
v  -602.5788 28.9172 -533.5344
v  -602.5788 28.9172 -246.3314
v  -602.5784 2844.5146 -246.3309
v  -602.5784 2844.5146 -291.6787
v  -602.5788 28.9172 -291.6792
v  -602.5788 28.9171 43.8949
v  -602.5783 2844.5146 43.8953
v  -602.5783 2844.5146 -1.4525
v  -602.5788 28.9171 -1.4530
v  -602.5788 28.9172 -343.0734
v  -602.5784 2844.5146 -343.0729
v  -602.5784 2844.5146 -388.4208
v  -602.5788 28.9172 -388.4213
v  -602.5788 28.9173 -681.6707
v  -602.5784 2844.5151 -681.6702
v  -602.5784 2844.5151 -727.0181
v  -602.5788 28.9173 -727.0186
v  -602.5788 28.9172 -52.8472
v  -602.5783 2844.5146 -52.8467
v  -602.5784 2844.5146 -98.1946
v  -602.5788 28.9172 -98.1951
v  -602.5788 28.9171 189.0080
v  -602.5783 2844.5146 189.0085
v  -602.5783 2844.5146 143.6606
v  -602.5788 28.9171 143.6601
v  -602.5788 28.9172 -194.9371
v  -602.5788 28.9172 -243.3082
v  -602.5788 28.9173 -730.0417
v  -602.5784 2844.5151 -730.0413
v  -602.5784 2844.5151 -775.3892
v  -602.5789 28.9173 -775.3896
v  -602.5783 2844.5146 192.0316
v  -602.5788 28.9171 192.0312
v  -602.5788 28.9171 237.3790
v  -602.5783 2844.5146 237.3795
v  -602.5788 28.9171 92.2659
v  -602.5783 2844.5146 92.2664
v  -602.5788 28.9173 -630.2765
v  -600.1519 32.3688 -626.8250
v  -594.7456 47.2361 -699.9896
v  -594.7451 2826.1963 -699.9891
v  -595.4293 2830.0205 -696.1649
v  -595.4297 43.4119 -696.1653
v  -598.1425 35.9520 -623.2417
v  -594.5165 2822.3447 -703.8404
v  -594.5170 51.0873 -703.8408
v  -594.5170 51.0873 -704.8485
v  -594.5165 2822.3447 -704.8481
v  -596.5643 2833.7905 -692.3948
v  -596.5647 39.6417 -692.3952
v  -595.4293 2830.0205 -712.5236
v  -594.7451 2826.1963 -708.6993
v  -596.5643 2833.7905 -716.2937
v  -594.7456 47.2361 -708.6998
v  -595.4297 43.4119 -712.5240
v  -596.5647 39.6417 -716.2941
v  -600.1514 2841.0635 -917.0508
v  -600.1519 32.3689 -917.0513
v  -600.1514 2841.0635 -878.6060
v  -598.1420 2837.4805 -882.1892
v  -598.1420 2837.4805 -913.4674
v  -598.1425 35.9521 -913.4679
v  -598.1425 35.9521 -882.1897
v  -600.1519 32.3688 -878.6064
v  -596.5647 39.6417 -909.7783
v  -596.5647 39.6417 -885.8794
v  -596.5643 2833.7905 -909.7778
v  -596.5643 2833.7905 -885.8789
v  -595.4293 2830.0205 -906.0077
v  -595.4297 43.4119 -906.0082
v  -594.7451 2826.1963 -902.1835
v  -594.7451 2826.1963 -893.4731
v  -594.5165 2822.3447 -897.3245
v  -594.5165 2822.3447 -898.3322
v  -594.5170 51.0874 -898.3326
v  -594.5170 51.0874 -897.3250
v  -594.7456 47.2361 -893.4736
v  -594.7456 47.2361 -902.1840
v  -595.4297 43.4119 -889.6495
v  -594.7455 47.2360 -418.4736
v  -594.7455 47.2360 -409.7633
v  -595.4297 43.4118 -405.9391
v  -595.4297 43.4118 -422.2977
v  -596.5642 2833.7905 -402.1685
v  -596.5647 39.6417 -402.1689
v  -595.4293 2830.0200 -405.9387
v  -596.5647 39.6417 -426.0679
v  -594.7451 2826.1958 -409.7629
v  -594.5170 51.0873 -413.6146
v  -594.5165 2822.3447 -413.6141
v  -594.5170 51.0873 -414.6223
v  -594.5165 2822.3447 -414.6219
v  -594.7451 2826.1958 -418.4731
v  -595.4293 2830.0200 -422.2973
v  -596.5642 2833.7905 -426.0674
v  -595.4293 2830.0205 -889.6490
v  -594.5170 51.0873 -607.0987
v  -594.7455 47.2360 -603.2474
v  -595.4293 2830.0205 -599.4229
v  -594.7451 2826.1963 -603.2470
v  -594.5165 2822.3447 -607.0983
v  -598.1420 2837.4800 -398.4788
v  -598.1420 2837.4800 -429.7571
v  -600.1514 2841.0630 -433.3403
v  -600.1514 2841.0630 -394.8955
v  -598.1424 35.9520 -204.9951
v  -600.1519 32.3688 -433.3408
v  -600.1519 32.3688 -394.8960
v  -598.1424 35.9520 -398.4793
v  -598.1424 35.9520 -429.7576
v  -598.1424 35.9520 -236.2734
v  -600.1519 32.3687 -239.8566
v  -594.5165 2822.3447 -171.7589
v  -594.5170 51.0872 -171.7593
v  -594.5170 51.0872 -172.7671
v  -594.5165 2822.3447 -172.7666
v  -595.4297 43.4117 206.5258
v  -595.4293 2830.0200 206.5263
v  -594.7451 2826.1958 210.3504
v  -594.7455 47.2359 210.3500
v  -595.4293 2830.0200 222.8849
v  -595.4297 43.4117 222.8844
v  -594.7455 47.2359 219.0602
v  -594.7451 2826.1958 219.0607
v  -594.5170 51.0872 215.2090
v  -594.5165 2822.3447 215.2094
v  -594.5165 2822.3447 214.2017
v  -594.5170 51.0872 214.2012
v  -596.5646 39.6416 226.6546
v  -596.5646 39.6416 202.7556
v  -596.5642 2833.7905 202.7561
v  -596.5642 2833.7905 226.6550
v  -594.7456 47.2361 -748.3606
v  -594.7451 2826.1963 -748.3602
v  -595.4293 2830.0205 -744.5359
v  -595.4297 43.4119 -744.5364
v  -596.5643 2833.7905 -740.7658
v  -596.5647 39.6417 -740.7662
v  -596.5643 2833.7905 -764.6647
v  -595.4293 2830.0205 -760.8946
v  -596.5642 2833.7905 -184.2122
v  -594.7451 2826.1963 -757.0704
v  -594.5165 2822.3447 -752.2114
v  -594.5165 2822.3447 -753.2191
v  -595.4293 2830.0200 -180.4420
v  -595.4297 43.4118 -180.4425
v  -594.7451 2826.1958 -176.6179
v  -594.7455 47.2360 -176.6183
v  -594.5170 51.0873 -752.2119
v  -594.5170 51.0873 -753.2195
v  -594.7455 47.2360 -554.8764
v  -595.4297 43.4118 -164.0839
v  -594.5170 51.0873 -558.7277
v  -596.5647 39.6417 -764.6652
v  -595.4297 43.4119 -760.8950
v  -594.7456 47.2361 -757.0708
v  -598.1420 2837.4805 -737.0761
v  -598.1425 35.9520 -737.0766
v  -600.1519 32.3688 -733.4933
v  -600.1514 2841.0635 -733.4928
v  -600.1519 32.3688 -771.9381
v  -600.1514 2841.0635 -771.9376
v  -598.1420 2837.4805 -768.3544
v  -598.1425 35.9520 -768.3549
v  -600.1519 32.3688 -685.1223
v  -600.1514 2841.0635 -685.1218
v  -600.1519 32.3688 -384.9698
v  -600.1514 2841.0630 -384.9693
v  -598.1420 2837.4800 -381.3860
v  -598.1424 35.9520 -381.3865
v  -598.1424 35.9520 -350.1083
v  -600.1519 32.3688 -346.5250
v  -594.5165 2822.3447 -316.8721
v  -594.5170 51.0873 -316.8725
v  -594.5170 51.0873 -317.8802
v  -594.5165 2822.3447 -317.8798
v  -594.7451 2826.1958 -321.7310
v  -594.7451 2826.1958 -313.0208
v  -598.1425 35.9520 -719.9838
v  -598.1420 2837.4805 -719.9833
v  -598.1425 35.9520 -688.7055
v  -598.1420 2837.4805 -688.7050
v  -600.1514 2841.0630 -346.5245
v  -598.1420 2837.4800 -350.1078
v  -596.5647 39.6417 -353.7979
v  -596.5642 2833.7905 -353.7975
v  -596.5642 2833.7905 -377.6964
v  -596.5647 39.6417 -377.6968
v  -600.1514 2841.0635 -723.5666
v  -600.1519 32.3688 -723.5671
v  -600.1518 32.3687 -94.7435
v  -600.1514 2841.0630 -94.7430
v  -598.1420 2837.4800 -91.1599
v  -598.1424 35.9519 -91.1603
v  -598.1420 2837.4800 -59.8815
v  -598.1424 35.9519 -59.8820
v  -596.5647 39.6416 -63.5717
v  -596.5642 2833.7905 -63.5712
v  -596.5642 2833.7905 -87.4702
v  -596.5647 39.6416 -87.4706
v  -600.1518 32.3687 -56.2988
v  -600.1514 2841.0630 -56.2983
v  -595.4297 43.4118 -277.1846
v  -594.7455 47.2360 -273.3604
v  -598.1420 2837.4800 -253.3657
v  -598.1420 2837.4800 -284.6439
v  -600.1514 2841.0630 -288.2272
v  -600.1514 2841.0630 -249.7825
v  -600.1519 32.3688 -288.2277
v  -600.1519 32.3687 -249.7829
v  -596.5647 39.6416 -280.9548
v  -598.1424 35.9520 -253.3661
v  -598.1424 35.9520 -284.6444
v  -594.7451 2826.1958 -167.9076
v  -594.5165 2822.3447 -365.2431
v  -594.5170 51.0873 -365.2435
v  -594.5170 51.0873 -366.2512
v  -594.5165 2822.3447 -366.2508
v  -595.4293 2830.0200 -164.0835
v  -594.7455 47.2360 -167.9081
v  -594.7451 2826.1958 -361.3918
v  -594.7451 2826.1958 -370.1021
v  -595.4293 2830.0200 -373.9263
v  -595.4293 2830.0200 -357.5676
v  -595.4297 43.4118 -357.5681
v  -594.7455 47.2360 -361.3923
v  -594.7455 47.2360 -370.1025
v  -595.4297 43.4118 -373.9267
v  -596.5647 39.6417 -522.8099
v  -596.5647 39.6417 -498.9111
v  -598.1424 35.9520 -495.2214
v  -598.1424 35.9520 -526.4996
v  -600.1519 32.3688 -491.6381
v  -600.1519 32.3688 -530.0829
v  -594.7455 47.2360 -515.2156
v  -594.7451 2826.1958 -515.2152
v  -594.5165 2822.3447 -511.3640
v  -594.5170 51.0873 -511.3644
v  -600.1514 2841.0630 -491.6376
v  -600.1514 2841.0635 -530.0824
v  -598.1420 2837.4805 -526.4991
v  -594.7451 2826.1958 -506.5049
v  -594.7455 47.2360 -506.5054
v  -594.5170 51.0873 -510.3566
v  -594.5165 2822.3447 -510.3562
v  -596.5642 2833.7905 -498.9106
v  -596.5642 2833.7905 -522.8095
v  -598.1420 2837.4800 -495.2209
v  -595.4297 43.4119 -502.6812
v  -595.4297 43.4119 -519.0398
v  -595.4293 2830.0200 -519.0394
v  -595.4293 2830.0200 -502.6807
v  -600.1519 32.3688 -868.6802
v  -600.1519 32.3688 -830.2354
v  -596.5647 39.6417 -861.4072
v  -598.1425 35.9521 -833.8186
v  -598.1425 35.9521 -865.0969
v  -595.4297 43.4119 -857.6371
v  -598.1420 2837.4805 -833.8181
v  -598.1420 2837.4805 -865.0964
v  -600.1514 2841.0635 -868.6797
v  -600.1514 2841.0635 -830.2349
v  -595.4293 2830.0200 -454.3097
v  -595.4297 43.4118 -454.3101
v  -594.7455 47.2360 -458.1343
v  -594.7451 2826.1958 -458.1339
v  -600.1514 2841.0630 -443.2665
v  -600.1514 2841.0630 -481.7114
v  -594.7455 47.2360 -466.8446
v  -595.4297 43.4119 -470.6688
v  -594.7451 2826.1958 -466.8442
v  -594.5165 2822.3447 -462.9929
v  -594.5170 51.0873 -462.9933
v  -596.5647 39.6417 -474.4389
v  -596.5647 39.6417 -450.5400
v  -598.1424 35.9520 -446.8503
v  -598.1424 35.9520 -478.1286
v  -594.5165 2822.3447 -461.9852
v  -595.4293 2830.0200 -470.6683
v  -600.1519 32.3688 -443.2670
v  -598.1420 2837.4800 -446.8499
v  -594.5170 51.0873 -461.9856
v  -600.1519 32.3688 -481.7119
v  -596.5642 2833.7905 -450.5396
v  -596.5642 2833.7905 -474.4385
v  -598.1420 2837.4800 -478.1281
v  -595.4293 2830.0200 -309.1966
v  -595.4293 2830.0200 -325.5552
v  -596.5642 2833.7905 -329.3254
v  -596.5642 2833.7905 -305.4265
v  -600.1519 32.3688 -336.5988
v  -600.1514 2841.0630 -336.5983
v  -598.1420 2837.4800 -333.0150
v  -598.1424 35.9520 -333.0154
v  -596.5647 39.6416 -329.3258
v  -594.7455 47.2360 -313.0212
v  -594.7455 47.2360 -321.7314
v  -600.1514 2841.0630 -298.1534
v  -600.1519 32.3688 -298.1539
v  -598.1424 35.9520 -301.7372
v  -598.1420 2837.4800 -301.7367
v  -595.4297 43.4118 -309.1970
v  -595.4297 43.4118 -325.5557
v  -596.5647 39.6416 -305.4269
v  -594.5165 2822.3447 21.7253
v  -594.5170 51.0872 21.7248
v  -594.5170 51.0872 20.7171
v  -594.5165 2822.3447 20.7175
v  -594.7451 2826.1958 16.8663
v  -594.7451 2826.1958 25.5765
v  -595.4293 2830.0200 13.0421
v  -595.4293 2830.0200 29.4007
v  -596.5642 2833.7905 33.1709
v  -596.5647 39.6416 33.1704
v  -595.4297 43.4118 29.4002
v  -594.7455 47.2359 25.5761
v  -594.7455 47.2359 16.8658
v  -596.5642 2833.7905 9.2719
v  -595.4297 43.4118 13.0417
v  -594.7455 47.2360 -31.5052
v  -594.7451 2826.1958 -31.5048
v  -594.5165 2822.3447 -27.6535
v  -594.5170 51.0872 -27.6540
v  -598.1420 2837.4800 -11.5105
v  -598.1420 2837.4800 -42.7888
v  -600.1514 2841.0630 -46.3720
v  -600.1514 2841.0630 -7.9273
v  -600.1518 32.3687 -46.3725
v  -598.1424 35.9519 -42.7892
v  -596.5642 2833.7905 -15.2002
v  -596.5647 39.6416 -15.2006
v  -595.4297 43.4118 -18.9708
v  -595.4293 2830.0200 -18.9703
v  -595.4297 43.4118 -35.3294
v  -595.4293 2830.0200 -35.3289
v  -594.7451 2826.1958 -22.7945
v  -594.7455 47.2360 -22.7950
v  -594.5170 51.0872 -26.6462
v  -594.5165 2822.3447 -26.6458
v  -596.5642 2833.7905 -39.0991
v  -596.5647 39.6416 -39.0996
v  -600.1518 32.3687 -7.9277
v  -598.1424 35.9519 -11.5109
v  -600.1519 32.3687 -191.4856
v  -595.4293 2830.0200 -67.3414
v  -595.4297 43.4118 -67.3419
v  -594.7455 47.2360 -71.1660
v  -594.7451 2826.1958 -71.1656
v  -594.5170 51.0872 -75.0173
v  -594.5165 2822.3447 -75.0168
v  -594.5170 51.0872 -76.0250
v  -594.5165 2822.3447 -76.0245
v  -595.4293 2830.0200 -83.7000
v  -595.4297 43.4118 -83.7004
v  -594.7451 2826.1958 -79.8758
v  -594.7455 47.2360 -79.8763
v  -594.5165 2822.3447 166.8384
v  -594.5170 51.0872 166.8379
v  -594.5170 51.0872 165.8302
v  -594.5165 2822.3447 165.8307
v  -594.7451 2826.1958 161.9794
v  -594.7451 2826.1958 170.6896
v  -595.4293 2830.0200 158.1552
v  -595.4293 2830.0200 174.5138
v  -596.5642 2833.7905 154.3850
v  -596.5642 2833.7905 178.2840
v  -596.5646 39.6416 178.2835
v  -595.4297 43.4118 174.5134
v  -598.1420 2837.4800 181.9737
v  -598.1424 35.9519 181.9732
v  -600.1514 2841.0630 147.1122
v  -600.1518 32.3687 147.1117
v  -594.7455 47.2359 170.6892
v  -595.4297 43.4118 158.1548
v  -596.5646 39.6416 154.3846
v  -598.1420 2837.4800 150.6954
v  -600.1514 2841.0630 185.5569
v  -594.7455 47.2359 161.9789
v  -600.1518 32.3687 185.5564
v  -598.1424 35.9519 150.6949
v  -598.1424 35.9519 5.5818
v  -598.1424 35.9519 36.8601
v  -600.1518 32.3687 40.4433
v  -600.1518 32.3687 1.9986
v  -598.1420 2837.4800 36.8606
v  -598.1420 2837.4800 5.5822
v  -600.1514 2841.0630 1.9990
v  -600.1514 2841.0630 40.4438
v  -596.5647 39.6416 9.2715
v  -600.1518 32.3687 88.8143
v  -600.1514 2841.0630 88.8148
v  -598.1424 35.9519 85.2311
v  -594.7455 47.2359 65.2369
v  -594.7451 2826.1958 65.2373
v  -594.5165 2822.3447 69.0886
v  -594.5170 51.0872 69.0881
v  -595.4297 43.4118 61.4127
v  -595.4293 2830.0200 61.4131
v  -598.1420 2837.4800 85.2316
v  -596.5642 2833.7905 81.5419
v  -596.5646 39.6416 81.5415
v  -600.1518 32.3687 137.1854
v  -600.1514 2841.0630 137.1859
v  -598.1424 35.9519 102.3239
v  -598.1424 35.9519 133.6022
v  -600.1518 32.3687 98.7407
v  -594.5170 51.0872 117.4592
v  -594.5170 51.0872 118.4669
v  -594.7455 47.2359 122.3181
v  -594.7455 47.2359 113.6079
v  -595.4297 43.4118 109.7837
v  -595.4293 2830.0200 109.7842
v  -594.7451 2826.1958 113.6084
v  -596.5642 2833.7905 129.9130
v  -596.5642 2833.7905 106.0140
v  -598.1420 2837.4800 102.3243
v  -598.1420 2837.4800 133.6026
v  -596.5646 39.6416 106.0135
v  -600.1514 2841.0630 98.7411
v  -594.7451 2826.1958 122.3186
v  -595.4293 2830.0200 126.1428
v  -595.4297 43.4118 126.1423
v  -596.5646 39.6416 129.9125
v  -594.5165 2822.3447 118.4673
v  -594.5165 2822.3447 117.4596
v  -594.5165 2822.3447 70.0963
v  -594.7451 2826.1958 73.9476
v  -595.4293 2830.0200 77.7717
v  -595.4297 43.4118 77.7713
v  -594.7455 47.2359 73.9471
v  -594.5170 51.0872 70.0959
v  -598.1424 35.9519 199.0659
v  -598.1419 2837.4800 199.0664
v  -600.1518 32.3687 195.4827
v  -600.1518 32.3687 233.9275
v  -598.1424 35.9519 230.3443
v  -600.1514 2841.0630 195.4832
v  -600.1514 2841.0630 233.9279
v  -598.1419 2837.4800 230.3447
# 708 vertices

vn 0.0000 0.0000 1.0000
vn 1.0000 0.0000 -0.0000
vn 0.0000 0.0000 -1.0000
vn 0.0000 -1.0000 -0.0000
vn 0.0000 1.0000 -0.0000
vn -1.0000 0.0000 -0.0000
vn 0.0591 0.0591 -0.9965
vn 0.0591 -0.0591 -0.9965
vn 0.0198 -0.0198 -0.9996
vn 0.0198 0.0198 -0.9996
vn -0.0198 -0.0198 -0.9996
vn -0.0198 0.0198 -0.9996
vn -0.0591 -0.0591 -0.9965
vn -0.0591 0.0591 -0.9965
vn -0.2325 -0.2325 -0.9444
vn 0.2325 -0.2325 -0.9444
vn 0.2876 -0.2876 -0.9135
vn -0.2876 -0.2876 -0.9135
vn 0.3148 -0.3148 -0.8954
vn -0.3148 -0.3148 -0.8954
vn 0.1758 0.1758 -0.9686
vn 0.1758 -0.1758 -0.9686
vn 0.1179 -0.1179 -0.9860
vn 0.1179 0.1179 -0.9860
vn -0.3148 0.3148 -0.8954
vn -0.2876 0.2876 -0.9135
vn -0.1179 0.1179 -0.9860
vn -0.1179 -0.1179 -0.9860
vn -0.1758 -0.1758 -0.9686
vn -0.1758 0.1758 -0.9686
vn 0.2876 0.2876 -0.9135
vn 0.3148 0.3148 -0.8954
vn 0.2325 0.2325 -0.9444
vn -0.2325 0.2325 -0.9444
# 34 vertex normals

vt 1.0000 0.0000 0.0000
vt 1.0000 1.0000 0.0000
vt 0.0000 1.0000 0.0000
vt -0.0000 0.0000 0.0000
vt 0.5000 1.0000 0.0000
vt 0.5000 0.0000 0.0000
vt 0.0000 0.0000 0.0000
vt 1.0000 0.5000 0.0000
vt 0.0000 0.5000 0.0000
vt 0.8636 0.0076 0.0000
vt 0.8636 0.9924 0.0000
vt 0.8604 0.9911 0.0000
vt 0.8604 0.0089 0.0000
vt 0.8996 0.9911 0.0000
vt 0.8996 0.0089 0.0000
vt 0.9004 0.0089 0.0000
vt 0.9004 0.9911 0.0000
vt 0.8964 0.9924 0.0000
vt 0.8964 0.0076 0.0000
vt 0.8471 0.9964 0.0000
vt 0.8729 0.9964 0.0000
vt 0.8759 0.9977 0.0000
vt 0.8441 0.9977 0.0000
vt 0.8787 0.9989 0.0000
vt 0.8412 0.9989 0.0000
vt 0.8699 0.0049 0.0000
vt 0.8699 0.9951 0.0000
vt 0.8668 0.9938 0.0000
vt 0.8668 0.0062 0.0000
vt 0.8413 0.0011 0.0000
vt 0.8441 0.0023 0.0000
vt 0.8564 0.0076 0.0000
vt 0.8532 0.0062 0.0000
vt 0.8932 0.9938 0.0000
vt 0.8932 0.0062 0.0000
vt 0.8901 0.9951 0.0000
vt 0.8901 0.0049 0.0000
vt 0.9099 0.9951 0.0000
vt 0.9068 0.9938 0.0000
vt 0.9036 0.9924 0.0000
vt 0.9036 0.0076 0.0000
vt 0.8501 0.0049 0.0000
vt 0.8501 0.9951 0.0000
vt 0.6668 0.9938 0.0000
vt 0.6532 0.9938 0.0000
vt 0.6564 0.9924 0.0000
vt 0.6636 0.9924 0.0000
vt 0.6596 0.9911 0.0000
vt 0.6604 0.9911 0.0000
vt 0.4164 0.9924 0.0000
vt 0.4236 0.9924 0.0000
vt 0.4268 0.9938 0.0000
vt 0.4132 0.9938 0.0000
vt 0.6699 0.0049 0.0000
vt 0.6699 0.9951 0.0000
vt 0.6668 0.0062 0.0000
vt 0.6636 0.0076 0.0000
vt 0.6759 0.0023 0.0000
vt 0.6441 0.0023 0.0000
vt 0.6413 0.0011 0.0000
vt 0.6788 0.0011 0.0000
vt 0.6604 0.0089 0.0000
vt 0.4196 0.9911 0.0000
vt 0.4204 0.9911 0.0000
vt 0.6787 0.9989 0.0000
vt 0.6759 0.9977 0.0000
vt 0.6441 0.9977 0.0000
vt 0.6412 0.9989 0.0000
vt 0.6729 0.9964 0.0000
vt 0.6729 0.0036 0.0000
vt 0.6532 0.0062 0.0000
vt 0.6501 0.0049 0.0000
vt 0.6471 0.0036 0.0000
vt 0.6501 0.9951 0.0000
vt 0.6471 0.9964 0.0000
vt 0.4299 0.9951 0.0000
vt 0.4101 0.9951 0.0000
vt 0.4101 0.0049 0.0000
vt 0.4132 0.0062 0.0000
vt 0.4164 0.0076 0.0000
vt 0.4196 0.0089 0.0000
vt 0.4204 0.0089 0.0000
vt 0.9959 0.0023 0.0000
vt 0.9959 0.9977 0.0000
vt 0.9929 0.9964 0.0000
vt 0.9929 0.0036 0.0000
vt 0.9671 0.0036 0.0000
vt 0.9641 0.0023 0.0000
vt 0.9899 0.0049 0.0000
vt 0.9701 0.0049 0.0000
vt 0.9988 0.0011 0.0000
vt 0.9987 0.9989 0.0000
vt 0.9899 0.9951 0.0000
vt 0.9613 0.0011 0.0000
vt 0.1559 0.0023 0.0000
vt 0.1559 0.9977 0.0000
vt 0.1529 0.9964 0.0000
vt 0.1529 0.0036 0.0000
vt 0.1588 0.0011 0.0000
vt 0.1587 0.9989 0.0000
vt 0.1499 0.9951 0.0000
vt 0.1499 0.0049 0.0000
vt 0.7332 0.9938 0.0000
vt 0.7468 0.9938 0.0000
vt 0.7499 0.9951 0.0000
vt 0.7301 0.9951 0.0000
vt 0.7301 0.0049 0.0000
vt 0.7332 0.0062 0.0000
vt 0.7271 0.9964 0.0000
vt 0.7529 0.9964 0.0000
vt 0.7559 0.9977 0.0000
vt 0.7241 0.9977 0.0000
vt 0.7271 0.0036 0.0000
vt 0.7499 0.0049 0.0000
vt 0.7529 0.0036 0.0000
vt 0.7436 0.0076 0.0000
vt 0.7364 0.0076 0.0000
vt 0.7468 0.0062 0.0000
vt 0.7241 0.0023 0.0000
vt 0.7559 0.0023 0.0000
vt 0.7213 0.0011 0.0000
vt 0.7588 0.0011 0.0000
vt 0.7404 0.0089 0.0000
vt 0.7396 0.0089 0.0000
vt 0.8596 0.9911 0.0000
vt 0.8564 0.9924 0.0000
vt 0.7364 0.9924 0.0000
vt 0.7436 0.9924 0.0000
vt 0.8532 0.9938 0.0000
vt 0.8596 0.0089 0.0000
vt 0.7396 0.9911 0.0000
vt 0.7404 0.9911 0.0000
vt 0.7587 0.9989 0.0000
vt 0.7212 0.9989 0.0000
vt 0.3271 0.9964 0.0000
vt 0.3529 0.9964 0.0000
vt 0.3559 0.9977 0.0000
vt 0.3241 0.9977 0.0000
vt 0.3587 0.9989 0.0000
vt 0.3212 0.9989 0.0000
vt 0.3213 0.0011 0.0000
vt 0.3241 0.0023 0.0000
vt 0.3271 0.0036 0.0000
vt 0.8759 0.0023 0.0000
vt 0.8729 0.0036 0.0000
vt 0.8471 0.0036 0.0000
vt 0.7099 0.0049 0.0000
vt 0.7099 0.9951 0.0000
vt 0.7068 0.9938 0.0000
vt 0.7068 0.0062 0.0000
vt 0.7036 0.0076 0.0000
vt 0.7036 0.9924 0.0000
vt 0.7004 0.9911 0.0000
vt 0.7004 0.0089 0.0000
vt 0.6841 0.0023 0.0000
vt 0.6841 0.9977 0.0000
vt 0.6812 0.9989 0.0000
vt 0.6813 0.0011 0.0000
vt 0.6901 0.0049 0.0000
vt 0.6901 0.9951 0.0000
vt 0.6871 0.9964 0.0000
vt 0.6871 0.0036 0.0000
vt 0.8788 0.0011 0.0000
vt 0.7187 0.9989 0.0000
vt 0.7159 0.9977 0.0000
vt 0.6932 0.0062 0.0000
vt 0.7129 0.9964 0.0000
vt 0.3301 0.0049 0.0000
vt 0.3301 0.9951 0.0000
vt 0.3499 0.0049 0.0000
vt 0.3529 0.0036 0.0000
vt 0.9868 0.9938 0.0000
vt 0.9868 0.0062 0.0000
vt 0.9836 0.9924 0.0000
vt 0.9836 0.0076 0.0000
vt 0.9764 0.0076 0.0000
vt 0.9732 0.0062 0.0000
vt 0.9804 0.9911 0.0000
vt 0.9804 0.0089 0.0000
vt 0.9701 0.9951 0.0000
vt 0.9671 0.9964 0.0000
vt 0.9641 0.9977 0.0000
vt 0.9732 0.9938 0.0000
vt 0.9612 0.9989 0.0000
vt 0.9796 0.9911 0.0000
vt 0.9764 0.9924 0.0000
vt 0.9796 0.0089 0.0000
vt 0.3701 0.9951 0.0000
vt 0.3899 0.9951 0.0000
vt 0.3929 0.9964 0.0000
vt 0.3671 0.9964 0.0000
vt 0.3612 0.9989 0.0000
vt 0.3613 0.0011 0.0000
vt 0.3641 0.0023 0.0000
vt 0.3641 0.9977 0.0000
vt 0.3868 0.0062 0.0000
vt 0.3732 0.0062 0.0000
vt 0.3701 0.0049 0.0000
vt 0.3899 0.0049 0.0000
vt 0.3959 0.9977 0.0000
vt 0.3987 0.9989 0.0000
vt 0.3732 0.9938 0.0000
vt 0.3764 0.0076 0.0000
vt 0.3764 0.9924 0.0000
vt 0.3804 0.0089 0.0000
vt 0.3796 0.0089 0.0000
vt 0.3836 0.0076 0.0000
vt 0.3796 0.9911 0.0000
vt 0.3868 0.9938 0.0000
vt 0.3836 0.9924 0.0000
vt 0.3804 0.9911 0.0000
vt 0.2996 0.9911 0.0000
vt 0.2996 0.0089 0.0000
vt 0.3004 0.0089 0.0000
vt 0.3004 0.9911 0.0000
vt 0.2932 0.9938 0.0000
vt 0.3068 0.9938 0.0000
vt 0.3099 0.9951 0.0000
vt 0.2901 0.9951 0.0000
vt 0.3036 0.9924 0.0000
vt 0.2964 0.9924 0.0000
vt 0.2932 0.0062 0.0000
vt 0.2964 0.0076 0.0000
vt 0.2901 0.0049 0.0000
vt 0.3036 0.0076 0.0000
vt 0.3129 0.0036 0.0000
vt 0.3129 0.9964 0.0000
vt 0.3099 0.0049 0.0000
vt 0.3068 0.0062 0.0000
vt 0.2871 0.9964 0.0000
vt 0.3159 0.9977 0.0000
vt 0.2841 0.9977 0.0000
vt 0.3187 0.9989 0.0000
vt 0.2812 0.9989 0.0000
vt 0.2841 0.0023 0.0000
vt 0.2871 0.0036 0.0000
vt 0.3159 0.0023 0.0000
vt 0.2813 0.0011 0.0000
vt 0.3188 0.0011 0.0000
vt 0.9187 0.0011 0.0000
vt 0.9188 0.9989 0.0000
vt 0.8813 0.9989 0.0000
vt 0.8812 0.0011 0.0000
vt 0.3587 0.0011 0.0000
vt 0.3588 0.9989 0.0000
vt 0.3213 0.9989 0.0000
vt 0.3212 0.0011 0.0000
vt 0.1587 0.0011 0.0000
vt 0.1588 0.9989 0.0000
vt 0.1213 0.9989 0.0000
vt 0.1212 0.0011 0.0000
vt 0.0787 0.0011 0.0000
vt 0.0788 0.9989 0.0000
vt 0.0413 0.9989 0.0000
vt 0.0412 0.0011 0.0000
vt 0.4387 0.0011 0.0000
vt 0.4388 0.9989 0.0000
vt 0.4013 0.9989 0.0000
vt 0.4012 0.0011 0.0000
vt 0.1187 0.0011 0.0000
vt 0.1188 0.9989 0.0000
vt 0.0813 0.9989 0.0000
vt 0.0812 0.0011 0.0000
vt 0.7987 0.0011 0.0000
vt 0.7988 0.9989 0.0000
vt 0.7613 0.9989 0.0000
vt 0.7612 0.0011 0.0000
vt 0.7187 0.0011 0.0000
vt 0.7188 0.9989 0.0000
vt 0.6813 0.9989 0.0000
vt 0.6812 0.0011 0.0000
vt 0.5587 0.0011 0.0000
vt 0.5588 0.9989 0.0000
vt 0.5213 0.9989 0.0000
vt 0.5212 0.0011 0.0000
vt 0.4787 0.0011 0.0000
vt 0.4788 0.9989 0.0000
vt 0.4413 0.9989 0.0000
vt 0.4412 0.0011 0.0000
vt 0.3987 0.0011 0.0000
vt 0.3988 0.9989 0.0000
vt 0.3613 0.9989 0.0000
vt 0.3612 0.0011 0.0000
vt 0.0387 0.0011 0.0000
vt 0.0388 0.9989 0.0000
vt 0.0013 0.9989 0.0000
vt 0.0012 0.0011 0.0000
vt 0.5987 0.0011 0.0000
vt 0.5988 0.9989 0.0000
vt 0.5613 0.9989 0.0000
vt 0.5612 0.0011 0.0000
vt 0.8387 0.0011 0.0000
vt 0.8388 0.9989 0.0000
vt 0.8013 0.9989 0.0000
vt 0.8012 0.0011 0.0000
vt 0.5187 0.0011 0.0000
vt 0.5188 0.9989 0.0000
vt 0.4813 0.9989 0.0000
vt 0.4812 0.0011 0.0000
vt 0.2387 0.0011 0.0000
vt 0.2388 0.9989 0.0000
vt 0.2013 0.9989 0.0000
vt 0.2012 0.0011 0.0000
vt 0.7587 0.0011 0.0000
vt 0.7588 0.9989 0.0000
vt 0.7213 0.9989 0.0000
vt 0.7212 0.0011 0.0000
vt 0.9587 0.0011 0.0000
vt 0.9588 0.9989 0.0000
vt 0.9213 0.9989 0.0000
vt 0.9212 0.0011 0.0000
vt 0.6787 0.0011 0.0000
vt 0.6788 0.9989 0.0000
vt 0.6413 0.9989 0.0000
vt 0.6412 0.0011 0.0000
vt 0.6387 0.0011 0.0000
vt 0.6388 0.9989 0.0000
vt 0.6013 0.9989 0.0000
vt 0.6012 0.0011 0.0000
vt 0.2787 0.0011 0.0000
vt 0.2788 0.9989 0.0000
vt 0.2413 0.9989 0.0000
vt 0.2412 0.0011 0.0000
vt 0.1987 0.0011 0.0000
vt 0.1988 0.9989 0.0000
vt 0.1613 0.9989 0.0000
vt 0.1612 0.0011 0.0000
vt 0.9613 0.9989 0.0000
vt 0.9612 0.0011 0.0000
vt 0.9987 0.0011 0.0000
vt 0.9988 0.9989 0.0000
vt 0.8787 0.0011 0.0000
vt 0.8788 0.9989 0.0000
vt 0.8413 0.9989 0.0000
vt 0.8412 0.0011 0.0000
vt 0.3187 0.0011 0.0000
vt 0.3188 0.9989 0.0000
vt 0.2813 0.9989 0.0000
vt 0.2812 0.0011 0.0000
vt 0.0013 0.0011 0.0000
vt 0.0388 0.0011 0.0000
vt 0.0413 0.0011 0.0000
vt 0.0387 0.9989 0.0000
vt 0.0788 0.0011 0.0000
vt 0.0813 0.0011 0.0000
vt 0.0787 0.9989 0.0000
vt 0.1188 0.0011 0.0000
vt 0.1213 0.0011 0.0000
vt 0.1187 0.9989 0.0000
vt 0.1613 0.0011 0.0000
vt 0.1988 0.0011 0.0000
vt 0.2013 0.0011 0.0000
vt 0.1987 0.9989 0.0000
vt 0.2388 0.0011 0.0000
vt 0.2413 0.0011 0.0000
vt 0.2387 0.9989 0.0000
vt 0.2788 0.0011 0.0000
vt 0.2787 0.9989 0.0000
vt 0.3588 0.0011 0.0000
vt 0.3988 0.0011 0.0000
vt 0.4013 0.0011 0.0000
vt 0.4388 0.0011 0.0000
vt 0.4413 0.0011 0.0000
vt 0.4387 0.9989 0.0000
vt 0.4788 0.0011 0.0000
vt 0.4813 0.0011 0.0000
vt 0.4787 0.9989 0.0000
vt 0.5188 0.0011 0.0000
vt 0.5213 0.0011 0.0000
vt 0.5187 0.9989 0.0000
vt 0.5588 0.0011 0.0000
vt 0.5613 0.0011 0.0000
vt 0.5587 0.9989 0.0000
vt 0.5988 0.0011 0.0000
vt 0.6013 0.0011 0.0000
vt 0.5987 0.9989 0.0000
vt 0.6388 0.0011 0.0000
vt 0.6387 0.9989 0.0000
vt 0.7188 0.0011 0.0000
vt 0.7613 0.0011 0.0000
vt 0.7988 0.0011 0.0000
vt 0.8013 0.0011 0.0000
vt 0.7987 0.9989 0.0000
vt 0.8388 0.0011 0.0000
vt 0.8387 0.9989 0.0000
vt 0.8813 0.0011 0.0000
vt 0.9188 0.0011 0.0000
vt 0.9213 0.0011 0.0000
vt 0.9187 0.9989 0.0000
vt 0.9588 0.0011 0.0000
vt 0.9587 0.9989 0.0000
vt 0.0012 0.9989 0.0000
vt 0.0412 0.9989 0.0000
vt 0.0812 0.9989 0.0000
vt 0.1212 0.9989 0.0000
vt 0.1612 0.9989 0.0000
vt 0.2012 0.9989 0.0000
vt 0.2412 0.9989 0.0000
vt 0.4012 0.9989 0.0000
vt 0.4412 0.9989 0.0000
vt 0.4812 0.9989 0.0000
vt 0.5212 0.9989 0.0000
vt 0.5612 0.9989 0.0000
vt 0.6012 0.9989 0.0000
vt 0.7612 0.9989 0.0000
vt 0.8012 0.9989 0.0000
vt 0.8812 0.9989 0.0000
vt 0.9212 0.9989 0.0000
vt 0.7159 0.0023 0.0000
vt 0.7764 0.0076 0.0000
vt 0.7764 0.9924 0.0000
vt 0.7732 0.9938 0.0000
vt 0.7732 0.0062 0.0000
vt 0.7129 0.0036 0.0000
vt 0.7796 0.9911 0.0000
vt 0.7796 0.0089 0.0000
vt 0.7804 0.0089 0.0000
vt 0.7804 0.9911 0.0000
vt 0.7701 0.9951 0.0000
vt 0.7701 0.0049 0.0000
vt 0.7868 0.9938 0.0000
vt 0.7836 0.9924 0.0000
vt 0.7899 0.9951 0.0000
vt 0.7836 0.0076 0.0000
vt 0.7868 0.0062 0.0000
vt 0.7899 0.0049 0.0000
vt 0.9559 0.9977 0.0000
vt 0.9559 0.0023 0.0000
vt 0.9241 0.9977 0.0000
vt 0.9271 0.9964 0.0000
vt 0.9529 0.9964 0.0000
vt 0.9529 0.0036 0.0000
vt 0.9271 0.0036 0.0000
vt 0.9241 0.0023 0.0000
vt 0.9499 0.0049 0.0000
vt 0.9301 0.0049 0.0000
vt 0.9499 0.9951 0.0000
vt 0.9301 0.9951 0.0000
vt 0.9468 0.9938 0.0000
vt 0.9468 0.0062 0.0000
vt 0.9436 0.9924 0.0000
vt 0.9364 0.9924 0.0000
vt 0.9396 0.9911 0.0000
vt 0.9404 0.9911 0.0000
vt 0.9404 0.0089 0.0000
vt 0.9396 0.0089 0.0000
vt 0.9364 0.0076 0.0000
vt 0.9436 0.0076 0.0000
vt 0.9332 0.0062 0.0000
vt 0.5436 0.0076 0.0000
vt 0.5364 0.0076 0.0000
vt 0.5332 0.0062 0.0000
vt 0.5468 0.0062 0.0000
vt 0.5301 0.9951 0.0000
vt 0.5301 0.0049 0.0000
vt 0.5332 0.9938 0.0000
vt 0.5499 0.0049 0.0000
vt 0.5364 0.9924 0.0000
vt 0.5396 0.0089 0.0000
vt 0.5396 0.9911 0.0000
vt 0.5404 0.0089 0.0000
vt 0.5404 0.9911 0.0000
vt 0.5436 0.9924 0.0000
vt 0.5468 0.9938 0.0000
vt 0.5499 0.9951 0.0000
vt 0.9332 0.9938 0.0000
vt 0.6996 0.0089 0.0000
vt 0.6964 0.0076 0.0000
vt 0.6932 0.9938 0.0000
vt 0.6964 0.9924 0.0000
vt 0.6996 0.9911 0.0000
vt 0.5271 0.9964 0.0000
vt 0.5529 0.9964 0.0000
vt 0.5559 0.9977 0.0000
vt 0.5241 0.9977 0.0000
vt 0.3671 0.0036 0.0000
vt 0.5559 0.0023 0.0000
vt 0.5241 0.0023 0.0000
vt 0.5271 0.0036 0.0000
vt 0.5529 0.0036 0.0000
vt 0.3929 0.0036 0.0000
vt 0.3959 0.0023 0.0000
vt 0.3396 0.9911 0.0000
vt 0.3396 0.0089 0.0000
vt 0.3404 0.0089 0.0000
vt 0.3404 0.9911 0.0000
vt 0.0268 0.0062 0.0000
vt 0.0268 0.9938 0.0000
vt 0.0236 0.9924 0.0000
vt 0.0236 0.0076 0.0000
vt 0.0132 0.9938 0.0000
vt 0.0132 0.0062 0.0000
vt 0.0164 0.0076 0.0000
vt 0.0164 0.9924 0.0000
vt 0.0196 0.0089 0.0000
vt 0.0196 0.9911 0.0000
vt 0.0204 0.9911 0.0000
vt 0.0204 0.0089 0.0000
vt 0.0101 0.0049 0.0000
vt 0.0299 0.0049 0.0000
vt 0.0299 0.9951 0.0000
vt 0.0101 0.9951 0.0000
vt 0.8164 0.0076 0.0000
vt 0.8164 0.9924 0.0000
vt 0.8132 0.9938 0.0000
vt 0.8132 0.0062 0.0000
vt 0.8101 0.9951 0.0000
vt 0.8101 0.0049 0.0000
vt 0.8299 0.9951 0.0000
vt 0.8268 0.9938 0.0000
vt 0.3499 0.9951 0.0000
vt 0.8236 0.9924 0.0000
vt 0.8196 0.9911 0.0000
vt 0.8204 0.9911 0.0000
vt 0.3468 0.9938 0.0000
vt 0.3468 0.0062 0.0000
vt 0.3436 0.9924 0.0000
vt 0.3436 0.0076 0.0000
vt 0.8196 0.0089 0.0000
vt 0.8204 0.0089 0.0000
vt 0.6564 0.0076 0.0000
vt 0.3332 0.0062 0.0000
vt 0.6596 0.0089 0.0000
vt 0.8299 0.0049 0.0000
vt 0.8268 0.0062 0.0000
vt 0.8236 0.0076 0.0000
vt 0.8071 0.9964 0.0000
vt 0.8071 0.0036 0.0000
vt 0.8041 0.0023 0.0000
vt 0.8041 0.9977 0.0000
vt 0.8359 0.0023 0.0000
vt 0.8359 0.9977 0.0000
vt 0.8329 0.9964 0.0000
vt 0.8329 0.0036 0.0000
vt 0.7641 0.0023 0.0000
vt 0.7641 0.9977 0.0000
vt 0.5159 0.0023 0.0000
vt 0.5159 0.9977 0.0000
vt 0.5129 0.9964 0.0000
vt 0.5129 0.0036 0.0000
vt 0.4871 0.0036 0.0000
vt 0.4841 0.0023 0.0000
vt 0.4596 0.9911 0.0000
vt 0.4596 0.0089 0.0000
vt 0.4604 0.0089 0.0000
vt 0.4604 0.9911 0.0000
vt 0.4636 0.9924 0.0000
vt 0.4564 0.9924 0.0000
vt 0.7929 0.0036 0.0000
vt 0.7929 0.9964 0.0000
vt 0.7671 0.0036 0.0000
vt 0.7671 0.9964 0.0000
vt 0.4841 0.9977 0.0000
vt 0.4871 0.9964 0.0000
vt 0.4901 0.0049 0.0000
vt 0.4901 0.9951 0.0000
vt 0.5099 0.9951 0.0000
vt 0.5099 0.0049 0.0000
vt 0.7959 0.9977 0.0000
vt 0.7959 0.0023 0.0000
vt 0.2759 0.0023 0.0000
vt 0.2759 0.9977 0.0000
vt 0.2729 0.9964 0.0000
vt 0.2729 0.0036 0.0000
vt 0.2471 0.9964 0.0000
vt 0.2471 0.0036 0.0000
vt 0.2501 0.0049 0.0000
vt 0.2501 0.9951 0.0000
vt 0.2699 0.9951 0.0000
vt 0.2699 0.0049 0.0000
vt 0.2441 0.0023 0.0000
vt 0.2441 0.9977 0.0000
vt 0.4268 0.0062 0.0000
vt 0.4236 0.0076 0.0000
vt 0.4071 0.9964 0.0000
vt 0.4329 0.9964 0.0000
vt 0.4359 0.9977 0.0000
vt 0.4041 0.9977 0.0000
vt 0.4359 0.0023 0.0000
vt 0.4041 0.0023 0.0000
vt 0.4299 0.0049 0.0000
vt 0.4071 0.0036 0.0000
vt 0.4329 0.0036 0.0000
vt 0.3364 0.9924 0.0000
vt 0.4996 0.9911 0.0000
vt 0.4996 0.0089 0.0000
vt 0.5004 0.0089 0.0000
vt 0.5004 0.9911 0.0000
vt 0.3332 0.9938 0.0000
vt 0.3364 0.0076 0.0000
vt 0.4964 0.9924 0.0000
vt 0.5036 0.9924 0.0000
vt 0.5068 0.9938 0.0000
vt 0.4932 0.9938 0.0000
vt 0.4932 0.0062 0.0000
vt 0.4964 0.0076 0.0000
vt 0.5036 0.0076 0.0000
vt 0.5068 0.0062 0.0000
vt 0.6299 0.0049 0.0000
vt 0.6101 0.0049 0.0000
vt 0.6071 0.0036 0.0000
vt 0.6329 0.0036 0.0000
vt 0.6041 0.0023 0.0000
vt 0.6359 0.0023 0.0000
vt 0.6236 0.0076 0.0000
vt 0.6236 0.9924 0.0000
vt 0.6204 0.9911 0.0000
vt 0.6204 0.0089 0.0000
vt 0.6041 0.9977 0.0000
vt 0.6359 0.9977 0.0000
vt 0.6329 0.9964 0.0000
vt 0.6164 0.9924 0.0000
vt 0.6164 0.0076 0.0000
vt 0.6196 0.0089 0.0000
vt 0.6196 0.9911 0.0000
vt 0.6101 0.9951 0.0000
vt 0.6299 0.9951 0.0000
vt 0.6071 0.9964 0.0000
vt 0.6132 0.0062 0.0000
vt 0.6268 0.0062 0.0000
vt 0.6268 0.9938 0.0000
vt 0.6132 0.9938 0.0000
vt 0.9159 0.0023 0.0000
vt 0.8841 0.0023 0.0000
vt 0.9099 0.0049 0.0000
vt 0.8871 0.0036 0.0000
vt 0.9129 0.0036 0.0000
vt 0.9068 0.0062 0.0000
vt 0.8871 0.9964 0.0000
vt 0.9129 0.9964 0.0000
vt 0.9159 0.9977 0.0000
vt 0.8841 0.9977 0.0000
vt 0.5732 0.9938 0.0000
vt 0.5732 0.0062 0.0000
vt 0.5764 0.0076 0.0000
vt 0.5764 0.9924 0.0000
vt 0.5641 0.9977 0.0000
vt 0.5959 0.9977 0.0000
vt 0.5836 0.0076 0.0000
vt 0.5868 0.0062 0.0000
vt 0.5836 0.9924 0.0000
vt 0.5804 0.9911 0.0000
vt 0.5804 0.0089 0.0000
vt 0.5899 0.0049 0.0000
vt 0.5701 0.0049 0.0000
vt 0.5671 0.0036 0.0000
vt 0.5929 0.0036 0.0000
vt 0.5796 0.9911 0.0000
vt 0.5868 0.9938 0.0000
vt 0.5641 0.0023 0.0000
vt 0.5671 0.9964 0.0000
vt 0.5796 0.0089 0.0000
vt 0.5959 0.0023 0.0000
vt 0.5701 0.9951 0.0000
vt 0.5899 0.9951 0.0000
vt 0.5929 0.9964 0.0000
vt 0.4532 0.9938 0.0000
vt 0.4668 0.9938 0.0000
vt 0.4699 0.9951 0.0000
vt 0.4501 0.9951 0.0000
vt 0.4759 0.0023 0.0000
vt 0.4759 0.9977 0.0000
vt 0.4729 0.9964 0.0000
vt 0.4729 0.0036 0.0000
vt 0.4699 0.0049 0.0000
vt 0.4564 0.0076 0.0000
vt 0.4636 0.0076 0.0000
vt 0.4441 0.9977 0.0000
vt 0.4441 0.0023 0.0000
vt 0.4471 0.0036 0.0000
vt 0.4471 0.9964 0.0000
vt 0.4532 0.0062 0.0000
vt 0.4668 0.0062 0.0000
vt 0.4501 0.0049 0.0000
vt 0.1796 0.9911 0.0000
vt 0.1796 0.0089 0.0000
vt 0.1804 0.0089 0.0000
vt 0.1804 0.9911 0.0000
vt 0.1836 0.9924 0.0000
vt 0.1764 0.9924 0.0000
vt 0.1868 0.9938 0.0000
vt 0.1732 0.9938 0.0000
vt 0.1701 0.9951 0.0000
vt 0.1701 0.0049 0.0000
vt 0.1732 0.0062 0.0000
vt 0.1764 0.0076 0.0000
vt 0.1836 0.0076 0.0000
vt 0.1899 0.9951 0.0000
vt 0.1868 0.0062 0.0000
vt 0.2236 0.0076 0.0000
vt 0.2236 0.9924 0.0000
vt 0.2204 0.9911 0.0000
vt 0.2204 0.0089 0.0000
vt 0.2071 0.9964 0.0000
vt 0.2329 0.9964 0.0000
vt 0.2359 0.9977 0.0000
vt 0.2041 0.9977 0.0000
vt 0.2359 0.0023 0.0000
vt 0.2329 0.0036 0.0000
vt 0.2101 0.9951 0.0000
vt 0.2101 0.0049 0.0000
vt 0.2132 0.0062 0.0000
vt 0.2132 0.9938 0.0000
vt 0.2268 0.0062 0.0000
vt 0.2268 0.9938 0.0000
vt 0.2164 0.9924 0.0000
vt 0.2164 0.0076 0.0000
vt 0.2196 0.0089 0.0000
vt 0.2196 0.9911 0.0000
vt 0.2299 0.9951 0.0000
vt 0.2299 0.0049 0.0000
vt 0.2041 0.0023 0.0000
vt 0.2071 0.0036 0.0000
vt 0.3559 0.0023 0.0000
vt 0.2532 0.9938 0.0000
vt 0.2532 0.0062 0.0000
vt 0.2564 0.0076 0.0000
vt 0.2564 0.9924 0.0000
vt 0.2596 0.0089 0.0000
vt 0.2596 0.9911 0.0000
vt 0.2604 0.0089 0.0000
vt 0.2604 0.9911 0.0000
vt 0.2668 0.9938 0.0000
vt 0.2668 0.0062 0.0000
vt 0.2636 0.9924 0.0000
vt 0.2636 0.0076 0.0000
vt 0.0596 0.9911 0.0000
vt 0.0596 0.0089 0.0000
vt 0.0604 0.0089 0.0000
vt 0.0604 0.9911 0.0000
vt 0.0636 0.9924 0.0000
vt 0.0564 0.9924 0.0000
vt 0.0668 0.9938 0.0000
vt 0.0532 0.9938 0.0000
vt 0.0699 0.9951 0.0000
vt 0.0501 0.9951 0.0000
vt 0.0501 0.0049 0.0000
vt 0.0532 0.0062 0.0000
vt 0.0471 0.9964 0.0000
vt 0.0471 0.0036 0.0000
vt 0.0759 0.9977 0.0000
vt 0.0759 0.0023 0.0000
vt 0.0564 0.0076 0.0000
vt 0.0668 0.0062 0.0000
vt 0.0699 0.0049 0.0000
vt 0.0729 0.9964 0.0000
vt 0.0441 0.9977 0.0000
vt 0.0636 0.0076 0.0000
vt 0.0441 0.0023 0.0000
vt 0.0729 0.0036 0.0000
vt 0.1929 0.0036 0.0000
vt 0.1671 0.0036 0.0000
vt 0.1641 0.0023 0.0000
vt 0.1959 0.0023 0.0000
vt 0.1671 0.9964 0.0000
vt 0.1929 0.9964 0.0000
vt 0.1959 0.9977 0.0000
vt 0.1641 0.9977 0.0000
vt 0.1899 0.0049 0.0000
vt 0.1241 0.0023 0.0000
vt 0.1241 0.9977 0.0000
vt 0.1271 0.0036 0.0000
vt 0.1436 0.0076 0.0000
vt 0.1436 0.9924 0.0000
vt 0.1404 0.9911 0.0000
vt 0.1404 0.0089 0.0000
vt 0.1468 0.0062 0.0000
vt 0.1468 0.9938 0.0000
vt 0.1271 0.9964 0.0000
vt 0.1301 0.9951 0.0000
vt 0.1301 0.0049 0.0000
vt 0.0841 0.0023 0.0000
vt 0.0841 0.9977 0.0000
vt 0.1129 0.0036 0.0000
vt 0.0871 0.0036 0.0000
vt 0.1159 0.0023 0.0000
vt 0.1004 0.0089 0.0000
vt 0.0996 0.0089 0.0000
vt 0.0964 0.0076 0.0000
vt 0.1036 0.0076 0.0000
vt 0.1068 0.0062 0.0000
vt 0.1068 0.9938 0.0000
vt 0.1036 0.9924 0.0000
vt 0.0901 0.9951 0.0000
vt 0.1099 0.9951 0.0000
vt 0.1129 0.9964 0.0000
vt 0.0871 0.9964 0.0000
vt 0.1099 0.0049 0.0000
vt 0.1159 0.9977 0.0000
vt 0.0964 0.9924 0.0000
vt 0.0932 0.9938 0.0000
vt 0.0932 0.0062 0.0000
vt 0.0901 0.0049 0.0000
vt 0.0996 0.9911 0.0000
vt 0.1004 0.9911 0.0000
vt 0.1396 0.9911 0.0000
vt 0.1364 0.9924 0.0000
vt 0.1332 0.9938 0.0000
vt 0.1332 0.0062 0.0000
vt 0.1364 0.0076 0.0000
vt 0.1396 0.0089 0.0000
vt 0.0329 0.0036 0.0000
vt 0.0329 0.9964 0.0000
vt 0.0359 0.0023 0.0000
vt 0.0041 0.0023 0.0000
vt 0.0071 0.0036 0.0000
vt 0.0359 0.9977 0.0000
vt 0.0041 0.9977 0.0000
vt 0.0071 0.9964 0.0000
# 809 texture coords

o 45
g 45
usemtl wire_204204204
s off
f 1/1/1 2/2/1 3/3/1 4/4/1 
f 4/1/2 3/2/2 5/5/2 6/6/2 
f 7/3/3 8/7/3 6/1/3 5/2/3 
f 3/7/4 2/1/4 7/8/4 5/9/4 
f 1/7/5 4/1/5 6/8/5 8/9/5 
f 2/3/6 1/7/6 8/6/6 7/5/6 
f 9/10/7 10/11/8 11/12/9 12/13/10 
f 13/14/11 14/15/12 15/16/10 16/17/9 
f 14/15/12 13/14/11 17/18/13 18/19/14 
f 19/20/15 20/21/16 21/22/17 22/23/18 
f 22/23/18 21/22/17 23/24/19 24/25/20 
f 25/26/21 26/27/22 27/28/23 28/29/24 
f 24/25/20 29/30/25 30/31/26 22/23/18 
f 9/10/7 31/32/14 32/33/27 28/29/24 
f 28/29/24 27/28/23 10/11/8 9/10/7 
f 18/19/14 17/18/13 33/34/28 34/35/27 
f 34/35/27 33/34/28 35/36/29 36/37/30 
f 37/38/22 35/36/29 33/34/28 38/39/23 
f 38/39/23 33/34/28 17/18/13 39/40/8 
f 39/40/8 17/18/13 13/14/11 16/17/9 
f 15/16/10 14/15/12 18/19/14 40/41/7 
f 28/29/24 32/33/27 41/42/30 25/26/21 
f 42/43/29 26/27/22 20/21/16 19/20/15 
f 43/44/23 44/45/28 45/46/13 46/47/8 
f 46/47/8 45/46/13 47/48/11 48/49/9 
f 49/50/13 50/51/8 51/52/23 52/53/28 
f 53/54/21 54/55/22 43/44/23 55/56/24 
f 55/56/24 43/44/23 46/47/8 56/57/7 
f 57/58/31 58/59/26 59/60/25 60/61/32 
f 56/57/7 46/47/8 48/49/9 61/62/10 
f 62/63/11 63/64/9 50/51/8 49/50/13 
f 60/61/32 64/65/19 65/66/17 57/58/31 
f 58/59/26 66/67/18 67/68/20 59/60/25 
f 57/58/31 65/66/17 68/69/16 69/70/33 
f 55/56/24 70/71/27 71/72/30 53/54/21 
f 69/70/33 72/73/34 58/59/26 57/58/31 
f 71/72/30 73/74/29 74/75/15 72/73/34 
f 64/65/19 67/68/20 66/67/18 65/66/17 
f 65/66/17 66/67/18 74/75/15 68/69/16 
f 52/53/28 51/52/23 75/76/22 76/77/29 
f 76/77/29 77/78/30 78/79/27 52/53/28 
f 52/53/28 78/79/27 79/80/14 49/50/13 
f 68/69/16 74/75/15 73/74/29 54/55/22 
f 69/70/33 68/69/16 54/55/22 53/54/21 
f 72/73/34 74/75/15 66/67/18 58/59/26 
f 53/54/21 71/72/30 72/73/34 69/70/33 
f 62/63/11 80/81/12 81/82/10 63/64/9 
f 82/83/31 83/84/17 84/85/16 85/86/33 
f 85/86/33 86/87/34 87/88/26 82/83/31 
f 88/89/21 89/90/30 86/87/34 85/86/33 
f 90/91/32 91/92/19 83/84/17 82/83/31 
f 85/86/33 84/85/16 92/93/22 88/89/21 
f 82/83/31 87/88/26 93/94/25 90/91/32 
f 94/95/31 95/96/17 96/97/16 97/98/33 
f 98/99/32 99/100/19 95/96/17 94/95/31 
f 97/98/33 96/97/16 100/101/22 101/102/21 
f 102/103/28 103/104/23 104/105/22 105/106/29 
f 105/106/29 106/107/30 107/108/27 102/103/28 
f 108/109/15 109/110/16 110/111/17 111/112/18 
f 108/109/15 112/113/34 106/107/30 105/106/29 
f 113/114/21 106/107/30 112/113/34 114/115/33 
f 115/116/7 116/117/14 107/108/27 117/118/24 
f 114/115/33 112/113/34 118/119/26 119/120/31 
f 119/120/31 118/119/26 120/121/25 121/122/32 
f 122/123/10 123/124/12 116/117/14 115/116/7 
f 124/125/11 11/12/9 10/11/8 125/126/13 
f 126/127/13 127/128/8 103/104/23 102/103/28 
f 125/126/13 10/11/8 27/28/23 128/129/28 
f 128/129/28 27/28/23 26/27/22 42/43/29 
f 42/43/29 41/42/30 32/33/27 128/129/28 
f 124/125/11 129/130/12 12/13/10 11/12/9 
f 128/129/28 32/33/27 31/32/14 125/126/13 
f 125/126/13 31/32/14 129/130/12 124/125/11 
f 12/13/10 129/130/12 31/32/14 9/10/7 
f 130/131/11 123/124/12 122/123/10 131/132/9 
f 102/103/28 107/108/27 116/117/14 126/127/13 
f 126/127/13 116/117/14 123/124/12 130/131/11 
f 117/118/24 107/108/27 106/107/30 113/114/21 
f 117/118/24 103/104/23 127/128/8 115/116/7 
f 115/116/7 127/128/8 131/132/9 122/123/10 
f 111/112/18 110/111/17 132/133/19 133/134/20 
f 130/131/11 131/132/9 127/128/8 126/127/13 
f 133/134/20 120/121/25 118/119/26 111/112/18 
f 113/114/21 104/105/22 103/104/23 117/118/24 
f 111/112/18 118/119/26 112/113/34 108/109/15 
f 134/135/15 135/136/16 136/137/17 137/138/18 
f 137/138/18 136/137/17 138/139/19 139/140/20 
f 139/140/20 140/141/25 141/142/26 137/138/18 
f 137/138/18 141/142/26 142/143/34 134/135/15 
f 105/106/29 104/105/22 109/110/16 108/109/15 
f 143/144/31 21/22/17 20/21/16 144/145/33 
f 144/145/33 20/21/16 26/27/22 25/26/21 
f 119/120/31 110/111/17 109/110/16 114/115/33 
f 19/20/15 145/146/34 41/42/30 42/43/29 
f 146/147/21 147/148/22 148/149/23 149/150/24 
f 114/115/33 109/110/16 104/105/22 113/114/21 
f 150/151/7 151/152/8 152/153/9 153/154/10 
f 154/155/26 155/156/18 156/157/20 157/158/25 
f 25/26/21 41/42/30 145/146/34 144/145/33 
f 121/122/32 132/133/19 110/111/17 119/120/31 
f 158/159/30 159/160/29 160/161/15 161/162/34 
f 162/163/32 23/24/19 21/22/17 143/144/31 
f 161/162/34 160/161/15 155/156/18 154/155/26 
f 144/145/33 145/146/34 30/31/26 143/144/31 
f 22/23/18 30/31/26 145/146/34 19/20/15 
f 149/150/24 148/149/23 151/152/8 150/151/7 
f 143/144/31 30/31/26 29/30/25 162/163/32 
f 163/164/19 156/157/20 155/156/18 164/165/17 
f 149/150/24 165/166/27 158/159/30 146/147/21 
f 164/165/17 155/156/18 160/161/15 166/167/16 
f 134/135/15 142/143/34 167/168/30 168/169/29 
f 169/170/21 167/168/30 142/143/34 170/171/33 
f 88/89/21 92/93/22 171/172/23 172/173/24 
f 172/173/24 171/172/23 173/174/8 174/175/7 
f 174/175/7 175/176/14 176/177/27 172/173/24 
f 172/173/24 176/177/27 89/90/30 88/89/21 
f 174/175/7 173/174/8 177/178/9 178/179/10 
f 179/180/29 92/93/22 84/85/16 180/181/15 
f 180/181/15 84/85/16 83/84/17 181/182/18 
f 182/183/28 171/172/23 92/93/22 179/180/29 
f 181/182/18 83/84/17 91/92/19 183/184/20 
f 184/185/11 177/178/9 173/174/8 185/186/13 
f 183/184/20 93/94/25 87/88/26 181/182/18 
f 180/181/15 86/87/34 89/90/30 179/180/29 
f 185/186/13 175/176/14 186/187/12 184/185/11 
f 181/182/18 87/88/26 86/87/34 180/181/15 
f 179/180/29 89/90/30 176/177/27 182/183/28 
f 185/186/13 173/174/8 171/172/23 182/183/28 
f 182/183/28 176/177/27 175/176/14 185/186/13 
f 178/179/10 186/187/12 175/176/14 174/175/7 
f 184/185/11 186/187/12 178/179/10 177/178/9 
f 187/188/29 188/189/22 189/190/16 190/191/15 
f 191/192/20 192/193/25 193/194/26 194/195/18 
f 195/196/24 196/197/27 197/198/30 198/199/21 
f 194/195/18 199/200/17 200/201/19 191/192/20 
f 187/188/29 197/198/30 196/197/27 201/202/28 
f 201/202/28 196/197/27 202/203/14 203/204/13 
f 190/191/15 189/190/16 199/200/17 194/195/18 
f 204/205/10 205/206/12 202/203/14 206/207/7 
f 203/204/13 202/203/14 205/206/12 207/208/11 
f 206/207/7 202/203/14 196/197/27 195/196/24 
f 198/199/21 188/189/22 208/209/23 195/196/24 
f 195/196/24 208/209/23 209/210/8 206/207/7 
f 206/207/7 209/210/8 210/211/9 204/205/10 
f 211/212/11 212/213/12 213/214/10 214/215/9 
f 215/216/28 216/217/23 217/218/22 218/219/29 
f 211/212/11 214/215/9 219/220/8 220/221/13 
f 215/216/28 221/222/27 222/223/14 220/221/13 
f 218/219/29 223/224/30 221/222/27 215/216/28 
f 213/214/10 212/213/12 222/223/14 224/225/7 
f 220/221/13 219/220/8 216/217/23 215/216/28 
f 220/221/13 222/223/14 212/213/12 211/212/11 
f 225/226/33 226/227/16 217/218/22 227/228/21 
f 224/225/7 222/223/14 221/222/27 228/229/24 
f 224/225/7 219/220/8 214/215/9 213/214/10 
f 228/229/24 216/217/23 219/220/8 224/225/7 
f 218/219/29 217/218/22 226/227/16 229/230/15 
f 229/230/15 226/227/16 230/231/17 231/232/18 
f 231/232/18 230/231/17 232/233/19 233/234/20 
f 231/232/18 234/235/26 235/236/34 229/230/15 
f 229/230/15 235/236/34 223/224/30 218/219/29 
f 227/228/21 223/224/30 235/236/34 225/226/33 
f 225/226/33 235/236/34 234/235/26 236/237/31 
f 236/237/31 234/235/26 237/238/25 238/239/32 
f 236/237/31 230/231/17 226/227/16 225/226/33 
f 233/234/20 237/238/25 234/235/26 231/232/18 
f 228/229/24 221/222/27 223/224/30 227/228/21 
f 227/228/21 217/218/22 216/217/23 228/229/24 
f 238/239/32 232/233/19 230/231/17 236/237/31 
f 239/240/1 240/241/1 241/242/1 242/243/1 
f 59/244/1 67/245/1 64/246/1 60/247/1 
f 29/248/1 24/249/1 23/250/1 162/251/1 
f 243/252/1 244/253/1 245/254/1 246/255/1 
f 247/256/1 248/257/1 249/258/1 250/259/1 
f 251/260/1 252/261/1 253/262/1 254/263/1 
f 255/264/1 256/265/1 257/266/1 258/267/1 
f 237/268/1 233/269/1 232/270/1 238/271/1 
f 259/272/1 260/273/1 261/274/1 262/275/1 
f 263/276/1 264/277/1 265/278/1 266/279/1 
f 267/280/1 268/281/1 269/282/1 270/283/1 
f 93/284/1 183/285/1 91/286/1 90/287/1 
f 271/288/1 272/289/1 273/290/1 274/291/1 
f 275/292/1 276/293/1 277/294/1 278/295/1 
f 279/296/1 280/297/1 281/298/1 282/299/1 
f 283/300/1 284/301/1 285/302/1 286/303/1 
f 287/304/1 288/305/1 289/306/1 290/307/1 
f 291/308/1 292/309/1 293/310/1 294/311/1 
f 140/312/1 139/313/1 138/314/1 295/315/1 
f 192/316/1 191/317/1 200/318/1 296/319/1 
f 120/320/1 133/321/1 132/322/1 121/323/1 
f 297/324/1 298/325/1 299/326/1 300/327/1 
f 301/328/1 302/329/1 303/330/1 304/331/1 
f 305/332/1 306/333/1 99/334/1 98/335/1 
f 157/336/1 156/337/1 163/338/1 307/339/1 
f 8/7/3 303/340/3 7/3/3 
f 303/340/3 8/7/3 6/1/3 
f 303/340/3 6/1/3 302/341/3 
f 302/341/3 6/1/3 291/342/3 
f 302/341/3 291/342/3 301/343/3 
f 291/342/3 6/1/3 294/344/3 
f 294/344/3 6/1/3 239/345/3 
f 294/344/3 239/345/3 293/346/3 
f 239/345/3 6/1/3 242/347/3 
f 242/347/3 6/1/3 305/348/3 
f 242/347/3 305/348/3 241/349/3 
f 305/348/3 6/1/3 98/99/3 
f 98/99/3 6/1/3 275/350/3 
f 98/99/3 275/350/3 99/100/3 
f 275/350/3 6/1/3 278/351/3 
f 278/351/3 6/1/3 255/352/3 
f 278/351/3 255/352/3 277/353/3 
f 255/352/3 6/1/3 258/354/3 
f 258/354/3 6/1/3 287/355/3 
f 258/354/3 287/355/3 257/356/3 
f 287/355/3 6/1/3 290/357/3 
f 290/357/3 6/1/3 237/238/3 
f 290/357/3 237/238/3 289/358/3 
f 237/238/3 6/1/3 238/239/3 
f 238/239/3 6/1/3 140/141/3 
f 238/239/3 140/141/3 232/233/3 
f 140/141/3 6/1/3 295/359/3 
f 295/359/3 6/1/3 192/193/3 
f 295/359/3 192/193/3 138/139/3 
f 192/193/3 6/1/3 296/360/3 
f 296/360/3 6/1/3 271/361/3 
f 296/360/3 271/361/3 200/201/3 
f 271/361/3 6/1/3 274/362/3 
f 274/362/3 6/1/3 259/363/3 
f 274/362/3 259/363/3 273/364/3 
f 259/363/3 6/1/3 262/365/3 
f 262/365/3 6/1/3 279/366/3 
f 262/365/3 279/366/3 261/367/3 
f 279/366/3 6/1/3 282/368/3 
f 282/368/3 6/1/3 263/369/3 
f 282/368/3 263/369/3 281/370/3 
f 263/369/3 6/1/3 266/371/3 
f 266/371/3 6/1/3 247/372/3 
f 266/371/3 247/372/3 265/373/3 
f 247/372/3 6/1/3 250/374/3 
f 250/374/3 6/1/3 267/375/3 
f 250/374/3 267/375/3 249/376/3 
f 267/375/3 6/1/3 270/377/3 
f 270/377/3 6/1/3 59/60/3 
f 270/377/3 59/60/3 269/378/3 
f 59/60/3 6/1/3 60/61/3 
f 60/61/3 6/1/3 157/158/3 
f 60/61/3 157/158/3 64/65/3 
f 157/158/3 6/1/3 307/379/3 
f 307/379/3 6/1/3 120/121/3 
f 307/379/3 120/121/3 163/164/3 
f 120/121/3 6/1/3 121/122/3 
f 121/122/3 6/1/3 283/380/3 
f 121/122/3 283/380/3 132/133/3 
f 283/380/3 6/1/3 286/381/3 
f 286/381/3 6/1/3 297/382/3 
f 286/381/3 297/382/3 285/383/3 
f 297/382/3 6/1/3 300/384/3 
f 300/384/3 6/1/3 29/30/3 
f 300/384/3 29/30/3 299/385/3 
f 29/30/3 6/1/3 162/163/3 
f 162/163/3 6/1/3 251/386/3 
f 162/163/3 251/386/3 23/24/3 
f 251/386/3 6/1/3 254/387/3 
f 254/387/3 6/1/3 243/388/3 
f 254/387/3 243/388/3 253/389/3 
f 243/388/3 6/1/3 246/390/3 
f 246/390/3 6/1/3 93/94/3 
f 246/390/3 93/94/3 245/391/3 
f 93/94/3 6/1/3 90/91/3 
f 90/91/3 6/1/3 91/92/3 
f 7/3/3 304/392/3 5/2/3 
f 304/392/3 7/3/3 303/340/3 
f 5/2/3 304/392/3 301/343/3 
f 5/2/3 301/343/3 292/393/3 
f 292/393/3 301/343/3 291/342/3 
f 5/2/3 292/393/3 293/346/3 
f 5/2/3 293/346/3 240/394/3 
f 240/394/3 293/346/3 239/345/3 
f 5/2/3 240/394/3 241/349/3 
f 5/2/3 241/349/3 306/395/3 
f 306/395/3 241/349/3 305/348/3 
f 5/2/3 306/395/3 99/100/3 
f 5/2/3 99/100/3 276/396/3 
f 276/396/3 99/100/3 275/350/3 
f 5/2/3 276/396/3 277/353/3 
f 5/2/3 277/353/3 256/397/3 
f 256/397/3 277/353/3 255/352/3 
f 5/2/3 256/397/3 257/356/3 
f 5/2/3 257/356/3 288/398/3 
f 288/398/3 257/356/3 287/355/3 
f 5/2/3 288/398/3 289/358/3 
f 5/2/3 289/358/3 233/234/3 
f 233/234/3 289/358/3 237/238/3 
f 5/2/3 233/234/3 232/233/3 
f 5/2/3 232/233/3 139/140/3 
f 139/140/3 232/233/3 140/141/3 
f 5/2/3 139/140/3 138/139/3 
f 5/2/3 138/139/3 191/192/3 
f 191/192/3 138/139/3 192/193/3 
f 5/2/3 191/192/3 200/201/3 
f 5/2/3 200/201/3 272/399/3 
f 272/399/3 200/201/3 271/361/3 
f 5/2/3 272/399/3 273/364/3 
f 5/2/3 273/364/3 260/400/3 
f 260/400/3 273/364/3 259/363/3 
f 5/2/3 260/400/3 261/367/3 
f 5/2/3 261/367/3 280/401/3 
f 280/401/3 261/367/3 279/366/3 
f 5/2/3 280/401/3 281/370/3 
f 5/2/3 281/370/3 264/402/3 
f 264/402/3 281/370/3 263/369/3 
f 5/2/3 264/402/3 265/373/3 
f 5/2/3 265/373/3 248/403/3 
f 248/403/3 265/373/3 247/372/3 
f 5/2/3 248/403/3 249/376/3 
f 5/2/3 249/376/3 268/404/3 
f 268/404/3 249/376/3 267/375/3 
f 5/2/3 268/404/3 269/378/3 
f 5/2/3 269/378/3 67/68/3 
f 67/68/3 269/378/3 59/60/3 
f 5/2/3 67/68/3 64/65/3 
f 5/2/3 64/65/3 156/157/3 
f 156/157/3 64/65/3 157/158/3 
f 5/2/3 156/157/3 163/164/3 
f 5/2/3 163/164/3 133/134/3 
f 133/134/3 163/164/3 120/121/3 
f 5/2/3 133/134/3 132/133/3 
f 5/2/3 132/133/3 284/405/3 
f 284/405/3 132/133/3 283/380/3 
f 5/2/3 284/405/3 285/383/3 
f 5/2/3 285/383/3 298/406/3 
f 298/406/3 285/383/3 297/382/3 
f 5/2/3 298/406/3 299/385/3 
f 5/2/3 299/385/3 24/25/3 
f 24/25/3 299/385/3 29/30/3 
f 5/2/3 24/25/3 23/24/3 
f 5/2/3 23/24/3 252/407/3 
f 252/407/3 23/24/3 251/386/3 
f 5/2/3 252/407/3 253/389/3 
f 5/2/3 253/389/3 244/408/3 
f 244/408/3 253/389/3 243/388/3 
f 5/2/3 244/408/3 245/391/3 
f 5/2/3 245/391/3 183/184/3 
f 183/184/3 245/391/3 93/94/3 
f 5/2/3 183/184/3 91/92/3 
f 5/2/3 91/92/3 6/1/3 
f 307/379/32 163/164/19 164/165/17 308/409/31 
f 309/410/14 310/411/13 311/412/28 312/413/27 
f 313/414/33 166/167/16 147/148/22 146/147/21 
f 314/415/11 315/416/12 316/417/10 317/418/9 
f 312/413/27 311/412/28 318/419/29 319/420/30 
f 320/421/23 311/412/28 310/411/13 321/422/8 
f 322/423/22 318/419/29 311/412/28 320/421/23 
f 321/422/8 310/411/13 314/415/11 317/418/9 
f 166/167/16 160/161/15 159/160/29 147/148/22 
f 308/409/31 154/155/26 157/158/25 307/379/32 
f 316/417/10 315/416/12 309/410/14 323/424/7 
f 323/424/7 309/410/14 312/413/27 324/425/24 
f 324/425/24 312/413/27 319/420/30 325/426/21 
f 313/414/33 161/162/34 154/155/26 308/409/31 
f 308/409/31 164/165/17 166/167/16 313/414/33 
f 146/147/21 158/159/30 161/162/34 313/414/33 
f 315/416/12 314/415/11 310/411/13 309/410/14 
f 246/390/32 245/391/19 326/427/17 327/428/31 
f 326/427/17 328/429/18 329/430/15 330/431/16 
f 331/432/33 332/433/34 333/434/26 327/428/31 
f 334/435/21 335/436/30 332/433/34 331/432/33 
f 331/432/33 330/431/16 336/437/22 334/435/21 
f 330/431/16 329/430/15 337/438/29 336/437/22 
f 327/428/31 333/434/26 243/388/25 246/390/32 
f 245/391/19 244/408/20 328/429/18 326/427/17 
f 327/428/31 326/427/17 330/431/16 331/432/33 
f 334/435/21 336/437/22 338/439/23 339/440/24 
f 340/441/8 341/442/13 342/443/11 343/444/9 
f 344/445/10 345/446/12 346/447/14 347/448/7 
f 339/440/24 348/449/27 335/436/30 334/435/21 
f 347/448/7 346/447/14 348/449/27 339/440/24 
f 332/433/34 329/430/15 328/429/18 333/434/26 
f 339/440/24 338/439/23 340/441/8 347/448/7 
f 335/436/30 337/438/29 329/430/15 332/433/34 
f 347/448/7 340/441/8 343/444/9 344/445/10 
f 333/434/26 328/429/18 244/408/20 243/388/25 
f 349/450/7 350/451/14 351/452/27 352/453/24 
f 353/454/29 354/455/30 351/452/27 355/456/28 
f 352/453/24 351/452/27 354/455/30 356/457/21 
f 355/456/28 351/452/27 350/451/14 357/458/13 
f 357/458/13 350/451/14 358/459/12 359/460/11 
f 359/460/11 358/459/12 360/461/10 361/462/9 
f 357/458/13 362/463/8 363/464/23 355/456/28 
f 360/461/10 358/459/12 350/451/14 349/450/7 
f 359/460/11 361/462/9 362/463/8 357/458/13 
f 355/456/28 363/464/23 364/465/22 353/454/29 
f 345/446/12 342/443/11 341/442/13 346/447/14 
f 348/449/27 365/466/28 337/438/29 335/436/30 
f 336/437/22 337/438/29 365/466/28 338/439/23 
f 338/439/23 365/466/28 341/442/13 340/441/8 
f 342/443/11 345/446/12 344/445/10 343/444/9 
f 346/447/14 341/442/13 365/466/28 348/449/27 
f 153/154/10 366/467/12 367/468/14 150/151/7 
f 147/148/22 159/160/29 368/469/28 148/149/23 
f 150/151/7 367/468/14 165/166/27 149/150/24 
f 367/468/14 369/470/13 368/469/28 165/166/27 
f 151/152/8 369/470/13 370/471/11 152/153/9 
f 370/471/11 366/467/12 153/154/10 152/153/9 
f 165/166/27 368/469/28 159/160/29 158/159/30 
f 148/149/23 368/469/28 369/470/13 151/152/8 
f 366/467/12 370/471/11 369/470/13 367/468/14 
f 352/453/24 363/464/23 362/463/8 349/450/7 
f 371/472/15 372/473/16 373/474/17 374/475/18 
f 374/475/18 373/474/17 265/373/19 264/402/20 
f 194/195/18 193/194/26 375/476/34 190/191/15 
f 266/371/32 265/373/19 373/474/17 376/477/31 
f 190/191/15 375/476/34 197/198/30 187/188/29 
f 353/454/29 364/465/22 372/473/16 371/472/15 
f 374/475/18 377/478/26 378/479/34 371/472/15 
f 376/477/31 373/474/17 372/473/16 379/480/33 
f 379/480/33 372/473/16 364/465/22 356/457/21 
f 380/481/33 375/476/34 193/194/26 381/482/31 
f 381/482/31 193/194/26 192/193/25 296/360/32 
f 376/477/31 377/478/26 263/369/25 266/371/32 
f 296/360/32 200/201/19 199/200/17 381/482/31 
f 381/482/31 199/200/17 189/190/16 380/481/33 
f 380/481/33 189/190/16 188/189/22 198/199/21 
f 379/480/33 378/479/34 377/478/26 376/477/31 
f 371/472/15 378/479/34 354/455/30 353/454/29 
f 349/450/7 362/463/8 361/462/9 360/461/10 
f 382/483/11 383/484/12 384/485/10 385/486/9 
f 356/457/21 364/465/22 363/464/23 352/453/24 
f 356/457/21 354/455/30 378/479/34 379/480/33 
f 198/199/21 197/198/30 375/476/34 380/481/33 
f 264/402/20 263/369/25 377/478/26 374/475/18 
f 386/487/24 387/488/23 388/489/8 389/490/7 
f 390/491/28 391/492/27 392/493/14 393/494/13 
f 393/494/13 392/493/14 394/495/12 395/496/11 
f 389/490/7 392/493/14 391/492/27 386/487/24 
f 389/490/7 388/489/8 396/497/9 397/498/10 
f 397/498/10 394/495/12 392/493/14 389/490/7 
f 386/487/24 391/492/27 398/499/30 399/500/21 
f 399/500/21 400/501/22 387/488/23 386/487/24 
f 390/491/28 387/488/23 400/501/22 401/502/29 
f 401/502/29 398/499/30 391/492/27 390/491/28 
f 393/494/13 388/489/8 387/488/23 390/491/28 
f 402/503/14 403/504/13 404/505/28 405/506/27 
f 405/506/27 404/505/28 406/507/29 407/508/30 
f 408/509/22 406/507/29 404/505/28 409/510/23 
f 168/169/29 410/511/22 135/136/16 134/135/15 
f 70/71/27 44/45/28 73/74/29 71/72/30 
f 409/510/23 404/505/28 403/504/13 411/512/8 
f 411/512/8 403/504/13 412/513/11 413/514/9 
f 54/55/22 73/74/29 44/45/28 43/44/23 
f 169/170/21 410/511/22 414/515/23 415/516/24 
f 415/516/24 414/515/23 416/517/8 417/518/7 
f 417/518/7 416/517/8 385/486/9 384/485/10 
f 412/513/11 418/519/12 419/520/10 413/514/9 
f 418/519/12 412/513/11 403/504/13 402/503/14 
f 420/521/14 45/46/13 44/45/28 70/71/27 
f 415/516/24 421/522/27 167/168/30 169/170/21 
f 61/62/10 422/523/12 420/521/14 56/57/7 
f 56/57/7 420/521/14 70/71/27 55/56/24 
f 423/524/21 408/509/22 409/510/23 424/525/24 
f 425/526/7 402/503/14 405/506/27 424/525/24 
f 407/508/30 406/507/29 426/527/15 427/528/34 
f 428/529/26 429/530/18 298/406/20 297/382/25 
f 430/531/31 428/529/26 297/382/25 300/384/32 
f 300/384/32 299/385/19 431/532/17 430/531/31 
f 424/525/24 405/506/27 407/508/30 423/524/21 
f 425/526/7 411/512/8 413/514/9 419/520/10 
f 430/531/31 431/532/17 432/533/16 433/534/33 
f 433/534/33 432/533/16 408/509/22 423/524/21 
f 432/533/16 426/527/15 406/507/29 408/509/22 
f 433/534/33 427/528/34 428/529/26 430/531/31 
f 419/520/10 418/519/12 402/503/14 425/526/7 
f 427/528/34 426/527/15 429/530/18 428/529/26 
f 424/525/24 409/510/23 411/512/8 425/526/7 
f 299/385/19 298/406/20 429/530/18 431/532/17 
f 431/532/17 429/530/18 426/527/15 432/533/16 
f 423/524/21 407/508/30 427/528/34 433/534/33 
f 434/535/26 435/536/18 284/405/20 283/380/25 
f 436/537/31 437/538/17 438/539/16 439/540/33 
f 439/540/33 440/541/34 441/542/26 436/537/31 
f 442/543/11 443/544/12 444/545/10 445/546/9 
f 442/543/11 445/546/9 446/547/8 447/548/13 
f 448/549/33 449/550/16 322/423/22 325/426/21 
f 450/551/34 451/552/15 435/536/18 434/535/26 
f 452/553/18 437/538/17 281/370/19 280/401/20 
f 452/553/18 441/542/26 440/541/34 453/554/15 
f 325/426/21 319/420/30 450/551/34 448/549/33 
f 453/554/15 440/541/34 454/555/30 455/556/29 
f 439/540/33 438/539/16 456/557/22 457/558/21 
f 323/424/7 321/422/8 317/418/9 316/417/10 
f 458/559/17 435/536/18 451/552/15 449/550/16 
f 459/560/31 458/559/17 449/550/16 448/549/33 
f 448/549/33 450/551/34 434/535/26 459/560/31 
f 319/420/30 318/419/29 451/552/15 450/551/34 
f 286/381/32 285/383/19 458/559/17 459/560/31 
f 449/550/16 451/552/15 318/419/29 322/423/22 
f 436/537/31 441/542/26 279/366/25 282/368/32 
f 325/426/21 322/423/22 320/421/23 324/425/24 
f 282/368/32 281/370/19 437/538/17 436/537/31 
f 280/401/20 279/366/25 441/542/26 452/553/18 
f 324/425/24 320/421/23 321/422/8 323/424/7 
f 459/560/31 434/535/26 283/380/25 286/381/32 
f 285/383/19 284/405/20 435/536/18 458/559/17 
f 457/558/21 454/555/30 440/541/34 439/540/33 
f 460/561/31 461/562/17 462/563/16 463/564/33 
f 464/565/15 465/566/34 466/567/30 467/568/29 
f 463/564/33 462/563/16 468/569/22 469/570/21 
f 463/564/33 465/566/34 470/571/26 460/561/31 
f 460/561/31 470/571/26 287/355/25 290/357/32 
f 290/357/32 289/358/19 461/562/17 460/561/31 
f 471/572/18 470/571/26 465/566/34 464/565/15 
f 469/570/21 466/567/30 465/566/34 463/564/33 
f 472/573/24 51/52/23 50/51/8 473/574/7 
f 207/208/11 210/211/9 209/210/8 203/204/13 
f 474/575/15 475/576/16 476/577/17 477/578/18 
f 473/574/7 79/80/14 78/79/27 472/573/24 
f 81/82/10 80/81/12 79/80/14 473/574/7 
f 478/579/31 479/580/26 271/361/25 274/362/32 
f 480/581/21 77/78/30 481/582/34 482/583/33 
f 382/483/11 385/486/9 416/517/8 483/584/13 
f 478/579/31 476/577/17 475/576/16 482/583/33 
f 484/585/11 485/586/12 486/587/10 487/588/9 
f 272/399/20 271/361/25 479/580/26 477/578/18 
f 483/584/13 416/517/8 414/515/23 488/589/28 
f 483/584/13 489/590/14 383/484/12 382/483/11 
f 474/575/15 481/582/34 77/78/30 76/77/29 
f 384/485/10 383/484/12 489/590/14 417/518/7 
f 490/591/13 491/592/8 492/593/23 493/594/28 
f 455/556/29 454/555/30 494/595/27 493/594/28 
f 490/591/13 495/596/14 485/586/12 484/585/11 
f 76/77/29 75/76/22 475/576/16 474/575/15 
f 486/587/10 485/586/12 495/596/14 496/597/7 
f 477/578/18 479/580/26 481/582/34 474/575/15 
f 168/169/29 167/168/30 421/522/27 488/589/28 
f 417/518/7 489/590/14 421/522/27 415/516/24 
f 274/362/32 273/364/19 476/577/17 478/579/31 
f 484/585/11 487/588/9 491/592/8 490/591/13 
f 488/589/28 414/515/23 410/511/22 168/169/29 
f 493/594/28 492/593/23 456/557/22 455/556/29 
f 493/594/28 494/595/27 495/596/14 490/591/13 
f 496/597/7 495/596/14 494/595/27 497/598/24 
f 482/583/33 481/582/34 479/580/26 478/579/31 
f 497/598/24 494/595/27 454/555/30 457/558/21 
f 457/558/21 456/557/22 492/593/23 497/598/24 
f 497/598/24 492/593/23 491/592/8 496/597/7 
f 496/597/7 491/592/8 487/588/9 486/587/10 
f 482/583/33 475/576/16 75/76/22 480/581/21 
f 488/589/28 421/522/27 489/590/14 483/584/13 
f 455/556/29 456/557/22 438/539/16 453/554/15 
f 453/554/15 438/539/16 437/538/17 452/553/18 
f 49/50/13 79/80/14 80/81/12 62/63/11 
f 473/574/7 50/51/8 63/64/9 81/82/10 
f 472/573/24 78/79/27 77/78/30 480/581/21 
f 480/581/21 75/76/22 51/52/23 472/573/24 
f 477/578/18 476/577/17 273/364/19 272/399/20 
f 207/208/11 205/206/12 204/205/10 210/211/9 
f 498/599/21 499/600/30 500/601/34 501/602/33 
f 501/602/33 500/601/34 502/603/26 503/604/31 
f 503/604/31 502/603/26 267/375/25 270/377/32 
f 201/202/28 208/209/23 188/189/22 187/188/29 
f 504/605/7 505/606/8 506/607/9 507/608/10 
f 508/609/18 509/610/17 269/378/19 268/404/20 
f 270/377/32 269/378/19 509/610/17 503/604/31 
f 503/604/31 509/610/17 510/611/16 501/602/33 
f 511/612/13 512/613/14 513/614/12 514/615/11 
f 515/616/29 516/617/22 510/611/16 517/618/15 
f 501/602/33 510/611/16 516/617/22 498/599/21 
f 203/204/13 209/210/8 208/209/23 201/202/28 
f 504/605/7 512/613/14 518/619/27 519/620/24 
f 268/404/20 267/375/25 502/603/26 508/609/18 
f 498/599/21 516/617/22 520/621/23 519/620/24 
f 515/616/29 499/600/30 518/619/27 521/622/28 
f 519/620/24 518/619/27 499/600/30 498/599/21 
f 521/622/28 518/619/27 512/613/14 511/612/13 
f 508/609/18 502/603/26 500/601/34 517/618/15 
f 521/622/28 520/621/23 516/617/22 515/616/29 
f 507/608/10 513/614/12 512/613/14 504/605/7 
f 519/620/24 520/621/23 505/606/8 504/605/7 
f 517/618/15 510/611/16 509/610/17 508/609/18 
f 517/618/15 500/601/34 499/600/30 515/616/29 
f 522/623/31 523/624/26 251/386/25 254/387/32 
f 524/625/21 36/37/30 525/626/34 526/627/33 
f 40/41/7 18/19/14 34/35/27 527/628/24 
f 36/37/30 35/36/29 528/629/15 525/626/34 
f 529/630/16 528/629/15 35/36/29 37/38/22 
f 254/387/32 253/389/19 530/631/17 522/623/31 
f 527/628/24 38/39/23 39/40/8 40/41/7 
f 526/627/33 525/626/34 523/624/26 522/623/31 
f 523/624/26 531/632/18 252/407/20 251/386/25 
f 524/625/21 37/38/22 38/39/23 527/628/24 
f 40/41/7 39/40/8 16/17/9 15/16/10 
f 527/628/24 34/35/27 36/37/30 524/625/21 
f 525/626/34 528/629/15 531/632/18 523/624/26 
f 253/389/19 252/407/20 531/632/18 530/631/17 
f 530/631/17 531/632/18 528/629/15 529/630/16 
f 522/623/31 530/631/17 529/630/16 526/627/33 
f 526/627/33 529/630/16 37/38/22 524/625/21 
f 47/48/11 422/523/12 61/62/10 48/49/9 
f 422/523/12 47/48/11 45/46/13 420/521/14 
f 514/615/11 513/614/12 507/608/10 506/607/9 
f 532/633/28 533/634/27 534/635/14 535/636/13 
f 536/637/18 537/638/17 249/376/19 248/403/20 
f 538/639/7 534/635/14 533/634/27 539/640/24 
f 538/639/7 540/641/8 541/642/9 542/643/10 
f 543/644/21 544/645/30 545/646/34 546/647/33 
f 539/640/24 533/634/27 544/645/30 543/644/21 
f 547/648/11 541/642/9 540/641/8 535/636/13 
f 539/640/24 548/649/23 540/641/8 538/639/7 
f 535/636/13 540/641/8 548/649/23 532/633/28 
f 536/637/18 549/650/26 545/646/34 550/651/15 
f 547/648/11 551/652/12 542/643/10 541/642/9 
f 514/615/11 506/607/9 505/606/8 511/612/13 
f 552/653/31 549/650/26 247/372/25 250/374/32 
f 250/374/32 249/376/19 537/638/17 552/653/31 
f 546/647/33 545/646/34 549/650/26 552/653/31 
f 553/654/29 554/655/22 555/656/16 550/651/15 
f 550/651/15 545/646/34 544/645/30 553/654/29 
f 511/612/13 505/606/8 520/621/23 521/622/28 
f 552/653/31 537/638/17 555/656/16 546/647/33 
f 553/654/29 544/645/30 533/634/27 532/633/28 
f 532/633/28 548/649/23 554/655/22 553/654/29 
f 550/651/15 555/656/16 537/638/17 536/637/18 
f 535/636/13 534/635/14 551/652/12 547/648/11 
f 543/644/21 554/655/22 548/649/23 539/640/24 
f 542/643/10 551/652/12 534/635/14 538/639/7 
f 248/403/20 247/372/25 549/650/26 536/637/18 
f 546/647/33 555/656/16 554/655/22 543/644/21 
f 556/657/28 557/658/23 558/659/22 559/660/29 
f 560/661/31 561/662/17 562/663/16 563/664/33 
f 563/664/33 562/663/16 558/659/22 564/665/21 
f 444/545/10 443/544/12 565/666/14 566/667/7 
f 567/668/18 568/669/26 569/670/34 570/671/15 
f 260/400/20 259/363/25 568/669/26 567/668/18 
f 447/548/13 446/547/8 557/658/23 556/657/28 
f 556/657/28 571/672/27 565/666/14 447/548/13 
f 447/548/13 565/666/14 443/544/12 442/543/11 
f 564/665/21 558/659/22 557/658/23 572/673/24 
f 559/660/29 558/659/22 562/663/16 570/671/15 
f 559/660/29 573/674/30 571/672/27 556/657/28 
f 566/667/7 565/666/14 571/672/27 572/673/24 
f 572/673/24 557/658/23 446/547/8 566/667/7 
f 570/671/15 562/663/16 561/662/17 567/668/18 
f 572/673/24 571/672/27 573/674/30 564/665/21 
f 567/668/18 561/662/17 261/367/19 260/400/20 
f 570/671/15 569/670/34 573/674/30 559/660/29 
f 564/665/21 573/674/30 569/670/34 563/664/33 
f 563/664/33 569/670/34 568/669/26 560/661/31 
f 566/667/7 446/547/8 445/546/9 444/545/10 
f 560/661/31 568/669/26 259/363/25 262/365/32 
f 262/365/32 261/367/19 561/662/17 560/661/31 
f 574/675/11 575/676/12 576/677/10 577/678/9 
f 574/675/11 577/678/9 578/679/8 579/680/13 
f 579/680/13 578/679/8 580/681/23 581/682/28 
f 582/683/29 583/684/30 584/685/27 581/682/28 
f 581/682/28 584/685/27 585/686/14 579/680/13 
f 579/680/13 585/686/14 575/676/12 574/675/11 
f 576/677/10 575/676/12 585/686/14 586/687/7 
f 581/682/28 580/681/23 587/688/22 582/683/29 
f 586/687/7 585/686/14 584/685/27 588/689/24 
f 589/690/7 590/691/8 591/692/9 592/693/10 
f 593/694/15 594/695/16 595/696/17 596/697/18 
f 596/697/18 595/696/17 257/356/19 256/397/20 
f 597/698/31 595/696/17 594/695/16 598/699/33 
f 599/700/29 600/701/30 601/702/27 602/703/28 
f 603/704/24 604/705/23 590/691/8 589/690/7 
f 605/706/13 590/691/8 604/705/23 602/703/28 
f 605/706/13 606/707/14 607/708/12 608/709/11 
f 599/700/29 609/710/22 594/695/16 593/694/15 
f 602/703/28 604/705/23 609/710/22 599/700/29 
f 602/703/28 601/702/27 606/707/14 605/706/13 
f 592/693/10 607/708/12 606/707/14 589/690/7 
f 610/711/21 609/710/22 604/705/23 603/704/24 
f 608/709/11 607/708/12 592/693/10 591/692/9 
f 589/690/7 606/707/14 601/702/27 603/704/24 
f 603/704/24 601/702/27 600/701/30 610/711/21 
f 256/397/20 255/352/25 611/712/26 596/697/18 
f 596/697/18 611/712/26 612/713/34 593/694/15 
f 608/709/11 591/692/9 590/691/8 605/706/13 
f 610/711/21 600/701/30 612/713/34 598/699/33 
f 598/699/33 612/713/34 611/712/26 597/698/31 
f 597/698/31 611/712/26 255/352/25 258/354/32 
f 258/354/32 257/356/19 595/696/17 597/698/31 
f 593/694/15 612/713/34 600/701/30 599/700/29 
f 598/699/33 594/695/16 609/710/22 610/711/21 
f 613/714/31 136/137/17 135/136/16 170/171/33 
f 471/572/18 461/562/17 289/358/19 288/398/20 
f 295/359/32 138/139/19 136/137/17 613/714/31 
f 288/398/20 287/355/25 470/571/26 471/572/18 
f 614/715/28 615/716/27 616/717/14 617/718/13 
f 617/718/13 616/717/14 618/719/12 619/720/11 
f 170/171/33 142/143/34 141/142/26 613/714/31 
f 170/171/33 135/136/16 410/511/22 169/170/21 
f 619/720/11 618/719/12 620/721/10 621/722/9 
f 469/570/21 468/569/22 622/723/23 623/724/24 
f 619/720/11 621/722/9 624/725/8 617/718/13 
f 614/715/28 622/723/23 468/569/22 467/568/29 
f 623/724/24 615/716/27 466/567/30 469/570/21 
f 613/714/31 141/142/26 140/141/25 295/359/32 
f 623/724/24 622/723/23 624/725/8 625/726/7 
f 625/726/7 624/725/8 621/722/9 620/721/10 
f 467/568/29 468/569/22 462/563/16 464/565/15 
f 467/568/29 466/567/30 615/716/27 614/715/28 
f 620/721/10 618/719/12 616/717/14 625/726/7 
f 625/726/7 616/717/14 615/716/27 623/724/24 
f 617/718/13 624/725/8 622/723/23 614/715/28 
f 464/565/15 462/563/16 461/562/17 471/572/18 
f 626/727/11 627/728/12 628/729/10 629/730/9 
f 626/727/11 629/730/9 630/731/8 631/732/13 
f 631/732/13 630/731/8 632/733/23 633/734/28 
f 633/734/28 632/733/23 634/735/22 635/736/29 
f 635/736/29 636/737/30 637/738/27 633/734/28 
f 638/739/15 639/740/34 636/737/30 635/736/29 
f 294/344/32 293/346/19 640/741/17 641/742/31 
f 631/732/13 642/743/14 627/728/12 626/727/11 
f 633/734/28 637/738/27 642/743/14 631/732/13 
f 643/744/24 637/738/27 636/737/30 644/745/21 
f 644/745/21 634/735/22 632/733/23 643/744/24 
f 635/736/29 634/735/22 645/746/16 638/739/15 
f 646/747/18 640/741/17 293/346/19 292/393/20 
f 647/748/7 642/743/14 637/738/27 643/744/24 
f 292/393/20 291/342/25 648/749/26 646/747/18 
f 643/744/24 632/733/23 630/731/8 647/748/7 
f 649/750/33 639/740/34 648/749/26 641/742/31 
f 644/745/21 636/737/30 639/740/34 649/750/33 
f 641/742/31 648/749/26 291/342/25 294/344/32 
f 641/742/31 640/741/17 645/746/16 649/750/33 
f 649/750/33 645/746/16 634/735/22 644/745/21 
f 647/748/7 630/731/8 629/730/9 628/729/10 
f 628/729/10 627/728/12 642/743/14 647/748/7 
f 638/739/15 645/746/16 640/741/17 646/747/18 
f 646/747/18 648/749/26 639/740/34 638/739/15 
f 650/751/33 651/752/34 652/753/26 653/754/31 
f 654/755/15 655/756/16 656/757/17 657/758/18 
f 588/689/24 580/681/23 578/679/8 586/687/7 
f 586/687/7 578/679/8 577/678/9 576/677/10 
f 658/759/21 587/688/22 580/681/23 588/689/24 
f 588/689/24 584/685/27 583/684/30 658/759/21 
f 278/351/32 277/353/19 656/757/17 653/754/31 
f 582/683/29 587/688/22 655/756/16 654/755/15 
f 650/751/33 655/756/16 587/688/22 658/759/21 
f 658/759/21 583/684/30 651/752/34 650/751/33 
f 657/758/18 656/757/17 277/353/19 276/396/20 
f 654/755/15 651/752/34 583/684/30 582/683/29 
f 653/754/31 656/757/17 655/756/16 650/751/33 
f 276/396/20 275/350/25 652/753/26 657/758/18 
f 653/754/31 652/753/26 275/350/25 278/351/32 
f 657/758/18 652/753/26 651/752/34 654/755/15 
f 397/498/10 396/497/9 395/496/11 394/495/12 
f 395/496/11 396/497/9 388/489/8 393/494/13 
f 306/395/20 305/348/25 659/760/26 660/761/18 
f 97/98/33 661/762/34 659/760/26 94/95/31 
f 94/95/31 659/760/26 305/348/25 98/99/32 
f 662/763/7 663/764/8 664/765/9 665/766/10 
f 666/767/24 667/768/23 663/764/8 662/763/7 
f 668/769/15 96/97/16 95/96/17 660/761/18 
f 660/761/18 659/760/26 661/762/34 668/769/15 
f 669/770/29 100/101/22 96/97/16 668/769/15 
f 660/761/18 95/96/17 99/100/19 306/395/20 
f 668/769/15 661/762/34 670/771/30 669/770/29 
f 101/102/21 670/771/30 661/762/34 97/98/33 
f 240/394/20 239/345/25 671/772/26 672/773/18 
f 673/774/33 674/775/34 671/772/26 675/776/31 
f 675/776/31 671/772/26 239/345/25 242/347/32 
f 676/777/10 677/778/12 678/779/14 679/780/7 
f 680/781/24 681/782/23 682/783/8 679/780/7 
f 683/784/29 684/785/22 685/786/16 686/787/15 
f 687/788/21 684/785/22 681/782/23 680/781/24 
f 686/787/15 685/786/16 688/789/17 672/773/18 
f 672/773/18 688/789/17 241/349/19 240/394/20 
f 689/790/13 682/783/8 681/782/23 690/791/28 
f 680/781/24 691/792/27 692/793/30 687/788/21 
f 672/773/18 671/772/26 674/775/34 686/787/15 
f 686/787/15 674/775/34 692/793/30 683/784/29 
f 693/794/11 694/795/9 682/783/8 689/790/13 
f 689/790/13 678/779/14 677/778/12 693/794/11 
f 687/788/21 692/793/30 674/775/34 673/774/33 
f 679/780/7 678/779/14 691/792/27 680/781/24 
f 683/784/29 692/793/30 691/792/27 690/791/28 
f 690/791/28 691/792/27 678/779/14 689/790/13 
f 690/791/28 681/782/23 684/785/22 683/784/29 
f 679/780/7 682/783/8 694/795/9 676/777/10 
f 693/794/11 677/778/12 676/777/10 694/795/9 
f 101/102/21 100/101/22 667/768/23 666/767/24 
f 695/796/11 664/765/9 663/764/8 696/797/13 
f 696/797/13 663/764/8 667/768/23 697/798/28 
f 697/798/28 667/768/23 100/101/22 669/770/29 
f 697/798/28 698/799/27 699/800/14 696/797/13 
f 669/770/29 670/771/30 698/799/27 697/798/28 
f 665/766/10 700/801/12 699/800/14 662/763/7 
f 695/796/11 700/801/12 665/766/10 664/765/9 
f 696/797/13 699/800/14 700/801/12 695/796/11 
f 662/763/7 699/800/14 698/799/27 666/767/24 
f 666/767/24 698/799/27 670/771/30 101/102/21 
f 242/347/32 241/349/19 688/789/17 675/776/31 
f 675/776/31 688/789/17 685/786/16 673/774/33 
f 673/774/33 685/786/16 684/785/22 687/788/21 
f 701/802/33 702/803/16 400/501/22 399/500/21 
f 703/804/31 704/805/26 303/340/25 302/341/32 
f 399/500/21 398/499/30 705/806/34 701/802/33 
f 302/341/32 301/343/19 706/807/17 703/804/31 
f 701/802/33 705/806/34 704/805/26 703/804/31 
f 304/392/20 303/340/25 704/805/26 707/808/18 
f 401/502/29 400/501/22 702/803/16 708/809/15 
f 707/808/18 704/805/26 705/806/34 708/809/15 
f 703/804/31 706/807/17 702/803/16 701/802/33 
f 708/809/15 705/806/34 398/499/30 401/502/29 
f 707/808/18 706/807/17 301/343/19 304/392/20 
f 708/809/15 702/803/16 706/807/17 707/808/18 
# 656 polygons - 152 triangles

